<svg xmlns="http://www.w3.org/2000/svg" width="80" height="80" viewBox="0 0 80 80">
  <g id="Grupo_1196" data-name="Grupo 1196" transform="translate(15792 12085.774)">
    <g id="Rectángulo_691" data-name="Rectángulo 691" transform="translate(-15792 -12085.774)" fill="#fff" stroke="#7dd3e9" stroke-width="2">
      <rect width="80" height="80" rx="10" stroke="none"/>
      <rect x="1" y="1" width="78" height="78" rx="9" fill="none"/>
    </g>
    <g id="Grupo_1195" data-name="Grupo 1195" transform="translate(-15774 -12067.914)">
      <ellipse id="Elipse_32" data-name="Elipse 32" cx="22.457" cy="22.456" rx="22.457" ry="22.456" transform="translate(0 0.204)" fill="#311a6b"/>
      <ellipse id="Elipse_33" data-name="Elipse 33" cx="19.494" cy="19.492" rx="19.494" ry="19.492" transform="translate(2.963 3.167)" fill="#f0f0f0"/>
      <path id="Trazado_605" data-name="Trazado 605" d="M105.212,121.556a15.393,15.393,0,1,1,15.394-15.393A15.411,15.411,0,0,1,105.212,121.556Z" transform="translate(-82.755 -83.504)" fill="#ff4a69"/>
      <path id="Trazado_606" data-name="Trazado 606" d="M150.876,160.754a8.925,8.925,0,1,1,8.925-8.925A8.935,8.935,0,0,1,150.876,160.754Z" transform="translate(-128.428 -129.162)" fill="#f0f0f0"/>
      <path id="Trazado_607" data-name="Trazado 607" d="M198.91,204.687a4.826,4.826,0,1,1,4.826-4.826A4.831,4.831,0,0,1,198.91,204.687Z" transform="translate(-176.46 -177.197)" fill="#ff4a69"/>
      <path id="Trazado_608" data-name="Trazado 608" d="M258.635,48.048,242.86,63.823a1.109,1.109,0,0,1-1.569,0h0a1.109,1.109,0,0,1,0-1.569l15.775-15.775Z" transform="translate(-217.279 -42.695)" fill="#7dd3e9"/>
      <path id="Trazado_609" data-name="Trazado 609" d="M262.442,57.239,246.667,73.015a1.109,1.109,0,0,1-1.569,0h0l16.56-16.56Z" transform="translate(-221.086 -51.887)" fill="#0f94a5"/>
      <path id="Trazado_610" data-name="Trazado 610" d="M350.457,6.213,356.53.14l1.417,3.644-6.073,6.073Z" transform="translate(-318.16)" fill="#ff4a69"/>
      <g id="Grupo_1162" data-name="Grupo 1162" transform="translate(35.283 5.353)">
        <path id="Trazado_613" data-name="Trazado 613" d="M394.5,66.431,388.429,72.5l3.644,1.417,6.073-6.073Z" transform="translate(-388.429 -66.431)" fill="#ff4a69"/>
      </g>
    </g>
  </g>
</svg>
