<svg xmlns="http://www.w3.org/2000/svg" width="33.845" height="39.587" viewBox="0 0 33.845 39.587">
  <g id="Grupo_1218" data-name="Grupo 1218" transform="translate(-1419.534 -662.327)">
    <path id="Trazado_722" data-name="Trazado 722" d="M1489.809,662.327h-16.895a3.284,3.284,0,0,0-3.281,3.281v33.026a3.284,3.284,0,0,0,3.281,3.281h23.59a3.284,3.284,0,0,0,3.28-3.281V672.3Zm8.133,36.307a1.439,1.439,0,0,1-1.437,1.438h-23.59a1.439,1.439,0,0,1-1.437-1.437V665.608a1.439,1.439,0,0,1,1.438-1.437h16.131l.009.009v8.882h8.882l.006.006Z" transform="translate(-46.407)" fill="#f15642"/>
    <path id="Trazado_723" data-name="Trazado 723" d="M1447.842,943.8a1.183,1.183,0,0,1-1.179,1.18h-25.949a1.183,1.183,0,0,1-1.18-1.18V932.007a1.183,1.183,0,0,1,1.18-1.18h25.949a1.183,1.183,0,0,1,1.179,1.18Z" transform="translate(0 -248.707)" fill="#f15642"/>
    <text id="PDF" transform="translate(1434.226 692.698)" fill="#f8f8f8" font-size="10" font-family="Montserrat-Bold, Montserrat" font-weight="700" letter-spacing="0.04em" style="isolation: isolate"><tspan x="-11.335" y="0">PDF</tspan></text>
  </g>
</svg>
