<svg xmlns="http://www.w3.org/2000/svg" width="86.2" height="86.2" viewBox="0 0 86.2 86.2">
  <g id="Grupo_12" data-name="Grupo 12" transform="translate(-134.5)">
    <path id="Trazado_10" data-name="Trazado 10" d="M177.6,0a43.1,43.1,0,1,0,43.1,43.1A43.1,43.1,0,0,0,177.6,0Zm0,81.7a38.6,38.6,0,1,1,38.6-38.6A38.623,38.623,0,0,1,177.6,81.7Z" fill="#f8a700"/>
    <circle id="Elipse_4" data-name="Elipse 4" cx="38.6" cy="38.6" r="38.6" transform="translate(139 4.5)" fill="#fff"/>
    <g id="Grupo_11" data-name="Grupo 11">
      <g id="Grupo_10" data-name="Grupo 10">
        <path id="Trazado_11" data-name="Trazado 11" d="M166.9,55.3a7.831,7.831,0,0,1-6.8-3.3c-1.6-2.2-2.4-5.4-2.4-9.8,0-4.3.8-7.6,2.4-9.8a7.952,7.952,0,0,1,6.8-3.3,7.831,7.831,0,0,1,6.8,3.3c1.6,2.2,2.4,5.4,2.4,9.8,0,4.3-.8,7.6-2.4,9.8A7.831,7.831,0,0,1,166.9,55.3Zm0-4.5a3.267,3.267,0,0,0,3-2.1,14.71,14.71,0,0,0,1.1-6.4,14.709,14.709,0,0,0-1.1-6.4,3.267,3.267,0,0,0-3-2.1c-2.8,0-4.1,2.8-4.1,8.5S164.2,50.8,166.9,50.8Z" fill="#1e234f"/>
        <path id="Trazado_12" data-name="Trazado 12" d="M198.2,45.7v4.5h-3.1V55H190V50.2H178.3V45.7l9-16H195v16Zm-15.1,0h7v-13Z" fill="#1e234f"/>
      </g>
    </g>
  </g>
</svg>
