<svg id="Layer_1" data-name="Layer 1" xmlns="http://www.w3.org/2000/svg" width="333.54" height="285.2" viewBox="0 0 333.54 285.2">
  <defs>
    <style>
      .cls-1 {
        fill: #f7e4e4;
      }

      .cls-2 {
        fill: #f9d4d4;
      }

      .cls-3 {
        fill: #f7bfbf;
      }

      .cls-4 {
        fill: #e70037;
      }

      .cls-5 {
        fill: #f8b234;
      }

      .cls-6 {
        fill: #471e89;
      }

      .cls-7 {
        fill: #a48fd8;
      }
    </style>
  </defs>
  <g>
    <g>
      <path class="cls-1" d="M320.14,148.67A136.54,136.54,0,1,1,183.6,12.13,136.54,136.54,0,0,1,320.14,148.67Z"/>
      <path class="cls-2" d="M293.91,148.67A110.31,110.31,0,1,1,183.6,38.36,110.31,110.31,0,0,1,293.91,148.67Z"/>
      <path class="cls-3" d="M272.76,148.67a88,88,0,1,1-88-88A88,88,0,0,1,272.76,148.67Z"/>
      <g>
        <path class="cls-4" d="M268.85.08c3.36.47,10,1.19,10.29,1.25a19.23,19.23,0,0,1,3.74,6.46c.71,2.72,4.21,6.22,5.06,7s3.09,2.92,3.53,5.1,1.67,6.08,3.33,6.55,1.57-1.52,4.52-1.7a11.29,11.29,0,0,1,6.42,1.91c.61.47,3.13.34,4.35.91s2,3.33,1.9,5.17,4.79,2,5.27,2.14,3.19-.95,4.38-1.87,1.19-2,2.79-2.45,2.48-1.12,3.77-3.56,2.89-1.06,3.56.91.78.31,1.5,1.57,0,1.73-1.29,3.77.92,6.86.71,9.44-.23,2.24-1.36,5.4-3.87,4.69-5.53,4.39-1.3.88-3,2.82.24,4.34.95,6.42A20.13,20.13,0,0,1,325,66c.34,1.94,0,6.53-1.77,8.09s-1.83.81-3.5-1.12-1.25,3.09-2.2,4.52-.58,1.35-2.28,2.27-4,4.59-2.92,7.1-2.89,1.87-5.17.75-2.51-.75-3.5,2-1.12,5.27-4.1,5.88-4,2.85-5.58,6.12-2.48,4.24-4.48,4.21-4.25,1.12-5.84,4.48-7.24,5.44-8.29,4.59,2-3.36,2.07-4.89-1.23-2.55-.17-4.25,3.7-3.87,3.67-5-5-1.63-6.93-1.49-2.07,2.24-2.52,3.19a8.22,8.22,0,0,1-3.29,4.55c-2.75,2.11-3.67,2.55-4.72,3.81s-.21,3.19-1.84,4.38-3,.3-5.09,1.29,1,5.78,2.68,6.83,1.67-.68,3.67-.48,2,2.25,2.89,4.56,4.62-.28,5.63-1.67,3.2-3.91,4.42-3.74,5,2.45,6.49,2,4.08-1,5,.24.17,3.7-3.19,4.31-2.08,1.36-4.69,2.52-4,6.89-5.2,8.15-3,2.07-3.6,5.54,6.05,4.18,8,5.37a9,9,0,0,1,3.63,5.3c.31,1.63.82,2.85,2.92,5.06s4.93,4.52,6.09,5.67-.07,1.73-.85,2-2.55-.68-2.45-.07,2,1.57,2.78,2.69-.44,2.89-2,4.24-3.54,2.76-2.72,3.4,3.36-.92,4.41-.17,3.67-.27,4.45-.95,3.44,1.84,2.52,2.34-3.08,2.52-3,3.33-.36,7.8-.56,8.92-3,2.55-4.39,4.08-1.53,5.45-2.19,6.77-1.68,4.39-2.49,6.12,1.52,6.77,0,7.59-3.22,3.77-5.1,6.27-1.84,2.7-4.23,3.72-5.43,4.84-5.4,6-3.75,5.22-5.81,6.06-3.75,2.17-6.35,2.27-2,1.3-3.15.71-1.71,0-2.71,1.46-1.83,3-2.87,2.87-1.84-3.38-3.21-3.74.25,4.28-.57,5.17-2.08,2.65-3.46,3.26-4,.66-6.32,1.88a34.47,34.47,0,0,1-8.2,3c-2.8.62-3.62,2.65-2.55,4.23s1.53,3.91-.58,4.18-2.31-1.7-3.63-3.54-.45-2.51-.07-4.41-5-2.48-7.1-3.19-3,.85-4.76,1.93-7.2.55-9.88-.57-1.4-4.28-.11-6.12-1.19-1.63-5.87-2.88-6.73-2.58-7.92-1.7-2.85,3.57-4.21,3.36-2.92.34-5.57,1.53-3.1,1.46-4.18-.21a2.24,2.24,0,0,0-3.84-.1c-1,1.26-2.21,2.92-4.82,2.79s.88,5.67,1,7.37-2.08,2.41-3.44,2.14-2.51-4.79-3.26-4.07-3.63,2.1-5.57.87-1.94-3.63-2.75-5.56-1.33.61-3.16-.48-.34-1.29.17-2.62,1.09-3.05.71-4.14-2.27-.71-3.5-2.89-.37-4.11-.68-4.92-3.19-.82-5.26-.55-1.36.18-2.31-2.51,0-4,1.83-6.08,3.06-4.21,4.76-6.22.78-3.94,1.39-7.27-3.06-4.38-3.46-6.15-1.91-3.56-3.4-2.82-2,3.33-4.11,2.45-4.38-3.57-6.9-3.84a16.59,16.59,0,0,0-10.32,3.47c-2.65,2.34-7.55,5.74-9.35,6.28s-7.57.14-8.49-2.38,1.6-1.05.85-5.53-3.23-.89-5.3-2.11-3.36-2.52-6.77-3-4.64,4.86-6.75,5.1-3.33-.68-2.68-2.31-1.7-2.17-2.55-1.8-3.43.17-8.63-.74-6.22-2.25-6.9-2.35-2-1.05-4.62-3.74-3.46-1.36-6.08-2.88-.54-2.21-1.29-4.59-3.36-1-5.1-3.06-1-1.46-2.88-4.86-6.66-4.28-7.41-3.8a3.9,3.9,0,0,1-4.59-2.17c-.78-2.25-1.9-2.08-4.65-4.08a12.41,12.41,0,0,1-5.1-8.19c-.47-3.3-1.83-6.62-.44-6.83s3.54,2.68,5.85,2.48,1.08-3.87-.51-6.18-1.06-3.36.06-5.34,1.4-3.09.79-6.28-2.79-5.4-3.16-6.35-5-2.35-7.27-3.2-4.42-2.27-4.08-5.16.17-5.25-1.79-5.83-4.29-3.55-4-3.67,3.58.31,3.79-.15-.27-4.74.12-6.59,0-2.7-2-3.94-1.48.41-2.63,0-.07-4-.2-5.38,1.53-.79,2.17-2.77S4,92,6,92.38s.51-1.58,2.49-1.61,4.05-1,5.05-.71S14.66,92,16,92.79s2.5.48,3.34-1.46,1.12-1.68,3.16-1.78,5.53,2,6.7,1.89,3.87-2.37,6-3.06,7.08-1.45,7.08-2.07.23-3.56.94-4.38S45,79.16,46,78.77s1.23-1.7,1.35-2.37-.48-2.31-.78-3.9,1.17-4.61.23-6.11,1.27-2.8,3-2.17,4.51-1.8,4.87-.86a7.54,7.54,0,0,0,3.64,2.88c.87.1,2.19-.74,1.5-2.88s1.43-4.16,2.93-7,3-6.32,3.7-5.3,3.26,1.78,4.64,1.94.86,1.9,4.48,2,3.06-3.88,3.26-7.39,3.82-3.37,5.25-3.37,1.83-1.07,2.45-2.49,2.44-3.77,3.72-3.37,2.39,1.07,2.39,4,4.18,6.06,6.47,7.13,3.57,1.79,4.54,3.45,2.6,6.85,2.9,7.36.16,4.74-.41,6.31-2.49,4.13-1,5.41,9.07,2,11.16,2.39,6.21,3.47,8.81,5.25,3.16.82,3.67,3.11,2.6,8,3.31,10.24,2.14,1.28,4.79,2,7.65,1.83,11.52,1.22a62.17,62.17,0,0,1,13.66.16c1.93.35,3.21,2.08,5.3,3.72s9.12-.16,11.21,1.78,5.5.66,8.61-1.38,10.09-5.86,12.28-5.86,9.83.41,11.92-1.78,4.28-5.3,5.3-6.22,2.6-2.14.56-4.69-.1-7.89,2.71-8,4.48,2.4,6.36,3,5.05-5,5.66-5.76,5.76-.61,7-.71,3.52-6.32,4.79-7.75,4.69-4.68,8.61-5.25,6.83-2.49,5.05-5.35-7.44-4.74-8.56-4.07-3.88,2.95-6,2.34-3.31,1.78-5,1.73-2.6-3.26-1.63-5.09.77-6.93,1.12-8.31,2.35-3,5.61-2.5,4.84-2.65,6.83-3.46,2.24-1.63,2-3.26a21.76,21.76,0,0,1,.71-7.44c.71-2.24,3.11-7,2.49-9.63s-3.36-3.32-2.85-4.23,2.4-4,3.77-4.33S259.1,3,259.1,3C261,1.44,265.48-.4,268.85.08Zm-55.34,271.6c-1.63,1.09-1,3.54-.27,5.68s3.77,2.64,4.6,3.3,4.43-1,5.32-1.74,3.36-3.8,3.63-5.64,3.43-5.3,3.54-7.2-1.84-2.24-3-1.43a6.41,6.41,0,0,1-4.45,1.56,12.65,12.65,0,0,0-5.08,1.58A28.45,28.45,0,0,1,213.51,271.68Z"/>
        <path class="cls-5" d="M67,108.76l4.79,14.91,15.65,0-12.69,9.15,4.88,14.87L67,138.4,54.4,147.64l4.89-14.87-12.7-9.15,15.65,0Zm47,31.47-5.57,0,4.52,3.26-1.74,5.29,4.49-3.28,4.49,3.28-1.73-5.29,4.51-3.26-5.57,0-1.7-5.3Zm-13,14.34-5.21-2,3.09,4.64-3.49,4.34,5.36-1.5,3.06,4.66.23-5.57,5.37-1.46-5.22-1.94.27-5.56Zm-1.2-53.18-5.93-2,3.63,5.12-3.78,5,6-1.87,3.6,5.15.07-6.28,6-1.84-6-2,.11-6.28Zm16.34,15.07-4.8-4,1.55,6.09-5.34,3.31,6.27.41,1.5,6.1,2.33-5.83L124,123l-4.82-4,2.37-5.82Z"/>
      </g>
    </g>
    <g>
      <path class="cls-6" d="M274.5,153.12a9.29,9.29,0,0,0-15.8-2.37l-15-6.1a44.67,44.67,0,0,0-.18-29.62l.06-.06,8.59-3.61.36-.19a7,7,0,1,0-1.78-4.23c-.12.06-.24.06-.36.12l-8.65,3.62-.06.06a44.24,44.24,0,0,0-21-20.85v-.06L225.07,79c.06-.12.06-.18.12-.31a9.19,9.19,0,0,0,4.91-.61,9.36,9.36,0,1,0-12.27-5A9.09,9.09,0,0,0,220.9,77a.41.41,0,0,0-.13.24l-4.41,10.86h-.06a44.43,44.43,0,0,0-29.56.18l-.07-.06L177.72,67a5.85,5.85,0,0,0-6.5-9.44,5.87,5.87,0,0,0-3.13,7.66,5.79,5.79,0,0,0,5.34,3.56l8.95,21.34v.06a44.05,44.05,0,0,0-20.79,21h-.06l-10.8-4.41c-.12-.06-.18-.06-.3-.13a8.87,8.87,0,0,0-.62-4.84A9.34,9.34,0,1,0,132.58,109a9.3,9.3,0,0,0,12.2,5,9.18,9.18,0,0,0,3.93-3.06.31.31,0,0,0,.24.12l10.8,4.41.06.07a44.27,44.27,0,0,0,.18,29.61h-.06l-8.58,3.62L151,149a7,7,0,1,0,1.78,4.23.75.75,0,0,0,.36-.13l8.65-3.61h.06a44.09,44.09,0,0,0,21,20.78v.07l-4.42,10.85c-.06.06-.06.12-.12.25a9.19,9.19,0,0,0-4.9.67,9.33,9.33,0,1,0,12.26,5,9.18,9.18,0,0,0-3.06-3.87c.06-.12.12-.18.12-.3l4.41-10.8V172a44.26,44.26,0,0,0,29.63-.18l.06.06,2.76,6.56a7,7,0,1,0,4.29-1.84L221.14,170A44.17,44.17,0,0,0,241.93,149L256.71,155a9.32,9.32,0,0,0,12.82,10.32A9.3,9.3,0,0,0,274.5,153.12Z"/>
      <g>
        <path class="cls-7" d="M223.47,143.86a9.35,9.35,0,1,1-7.23-17.24,9.35,9.35,0,0,1,7.23,17.24Z"/>
        <path class="cls-7" d="M202.44,113a7,7,0,1,1,3.74-9.2,7,7,0,0,1-3.74,9.2Z"/>
        <path class="cls-7" d="M203.72,167.89a7,7,0,1,1,3.75-9.13,7,7,0,0,1-3.75,9.13Z"/>
        <path class="cls-7" d="M178.88,111.85a2.55,2.55,0,0,1-.18-.92,4.73,4.73,0,0,1,.12-.92,3.22,3.22,0,0,1,.55-.74,2.27,2.27,0,0,1,.74-.49,2.49,2.49,0,0,1,1.78-.06,2.38,2.38,0,0,1,.74.55,2.32,2.32,0,0,1-.68,3.8,2.32,2.32,0,0,1-1.84,0,2.4,2.4,0,0,1-1.23-1.22Z"/>
        <path class="cls-7" d="M166.13,145.7a1.9,1.9,0,0,1-.19-.86,2.3,2.3,0,0,1,.19-.92,2.12,2.12,0,0,1,.49-.74,2.29,2.29,0,0,1,.8-.55,2.51,2.51,0,0,1,1.77,0,2.78,2.78,0,0,1,.74.55,2.38,2.38,0,0,1,.55,2.52,2.55,2.55,0,0,1-1.29,1.28,3.62,3.62,0,0,1-.86.13,2.21,2.21,0,0,1-.91-.13,2.55,2.55,0,0,1-1.29-1.28Z"/>
        <path class="cls-7" d="M230.46,148a2.55,2.55,0,0,1-.18-.92,2,2,0,0,1,.18-.86,2.44,2.44,0,0,1,.49-.74,3.14,3.14,0,0,1,.74-.55,2.35,2.35,0,0,1,1.84,0,5.25,5.25,0,0,1,.74.49,2.48,2.48,0,0,1,.55,2.58,2.49,2.49,0,0,1-2.21,1.41,3.7,3.7,0,0,1-.86-.13,2.63,2.63,0,0,1-1.29-1.28Z"/>
        <path class="cls-7" d="M184.1,161.15a2.33,2.33,0,0,1-.19-.92,1.87,1.87,0,0,1,.19-.86,2.12,2.12,0,0,1,.49-.74,3.18,3.18,0,0,1,.73-.55,2.44,2.44,0,0,1,1.84,0,6.3,6.3,0,0,1,.74.49,2.28,2.28,0,0,1-.74,3.81,2.4,2.4,0,0,1-.85.18,4.19,4.19,0,0,1-.92-.12,2.61,2.61,0,0,1-1.29-1.29Z"/>
        <path class="cls-7" d="M229.91,114.24a7,7,0,1,1,3.74-9.2,7,7,0,0,1-3.74,9.2Z"/>
        <path class="cls-7" d="M208.81,94.19a2,2,0,0,1-.18-.86,2.47,2.47,0,0,1,.18-.92,2.32,2.32,0,0,1,.49-.74,3.14,3.14,0,0,1,.74-.55,2.35,2.35,0,0,1,1.84,0,5.25,5.25,0,0,1,.74.49,2.48,2.48,0,0,1,.55,2.58,2.52,2.52,0,0,1-1.29,1.22,2.33,2.33,0,0,1-.92.19,1.86,1.86,0,0,1-.86-.13,2.41,2.41,0,0,1-1.29-1.28Z"/>
        <path class="cls-7" d="M181.4,98.05a2.51,2.51,0,0,1-.18-.92,4.83,4.83,0,0,1,.12-.92,5,5,0,0,1,.55-.74,3.28,3.28,0,0,1,.74-.49,2.57,2.57,0,0,1,1.77-.06,3.9,3.9,0,0,1,.8.55,2.39,2.39,0,0,1,.49,2.52,2.46,2.46,0,0,1-1.22,1.28,2.37,2.37,0,0,1-.92.19,2.3,2.3,0,0,1-.92-.19,2.33,2.33,0,0,1-1.23-1.22Z"/>
        <path class="cls-7" d="M175,133.19a7,7,0,1,1,3.74-9.14,6.9,6.9,0,0,1-3.74,9.14Z"/>
        <path class="cls-7" d="M198.2,130.12a4.66,4.66,0,0,1-3.62-8.58,4.71,4.71,0,0,1,6.14,2.51,4.62,4.62,0,0,1-2.52,6.07Z"/>
        <path class="cls-7" d="M235.92,131.53a4.64,4.64,0,1,1,2.52-6.13,4.71,4.71,0,0,1-2.52,6.13Z"/>
        <path class="cls-7" d="M222.55,161.52a4.66,4.66,0,0,1-3.62-8.59,4.66,4.66,0,1,1,3.62,8.59Z"/>
        <path class="cls-7" d="M197.47,140.36a3.64,3.64,0,0,1-.12-.86,4.94,4.94,0,0,1,.12-.92,2,2,0,0,1,.55-.73,1.68,1.68,0,0,1,.74-.56,3,3,0,0,1,1.77,0,1.68,1.68,0,0,1,.74.56,2.26,2.26,0,0,1,.55,2.51,2.4,2.4,0,0,1-1.29,1.29,2,2,0,0,1-.85.12,1.63,1.63,0,0,1-.92-.12,2.61,2.61,0,0,1-1.29-1.29Z"/>
        <path class="cls-7" d="M187.59,145.82a4.66,4.66,0,0,1-3.62-8.59,4.66,4.66,0,1,1,3.62,8.59Z"/>
        <path class="cls-7" d="M212.8,117.92a2.55,2.55,0,0,1-.18-.92,2.47,2.47,0,0,1,.18-.92,2.23,2.23,0,0,1,1.23-1.23,2.77,2.77,0,0,1,1.84-.06,5.81,5.81,0,0,1,.73.55,2.29,2.29,0,0,1-.73,3.8,2.37,2.37,0,0,1-.92.19,1.84,1.84,0,0,1-.86-.19,2.52,2.52,0,0,1-1.29-1.22Z"/>
      </g>
    </g>
  </g>
</svg>
