<svg id="Grupo_3" data-name="Grupo 3" xmlns="http://www.w3.org/2000/svg" width="86.2" height="86.2" viewBox="0 0 86.2 86.2">
  <path id="Trazado_1" data-name="Trazado 1" d="M43.1,0A43.1,43.1,0,1,0,86.2,43.1,43.1,43.1,0,0,0,43.1,0Zm0,81.7A38.6,38.6,0,1,1,81.7,43.1,38.623,38.623,0,0,1,43.1,81.7Z" fill="#1fa6b9"/>
  <circle id="Elipse_1" data-name="Elipse 1" cx="38.6" cy="38.6" r="38.6" transform="translate(4.5 4.5)" fill="#fff"/>
  <g id="Grupo_2" data-name="Grupo 2">
    <g id="Grupo_1" data-name="Grupo 1">
      <path id="Trazado_2" data-name="Trazado 2" d="M32.4,55.3A7.831,7.831,0,0,1,25.6,52c-1.6-2.2-2.4-5.4-2.4-9.8,0-4.3.8-7.6,2.4-9.8a7.952,7.952,0,0,1,6.8-3.3,7.831,7.831,0,0,1,6.8,3.3c1.6,2.2,2.4,5.4,2.4,9.8,0,4.3-.8,7.6-2.4,9.8A7.952,7.952,0,0,1,32.4,55.3Zm0-4.5a3.267,3.267,0,0,0,3-2.1,14.71,14.71,0,0,0,1.1-6.4,14.71,14.71,0,0,0-1.1-6.4,3.267,3.267,0,0,0-3-2.1c-2.8,0-4.1,2.8-4.1,8.5S29.6,50.8,32.4,50.8Z" fill="#1e234f"/>
      <path id="Trazado_3" data-name="Trazado 3" d="M53.1,29.6h4.8V55h-5V34.8l-5.8,5.4V35Z" fill="#1e234f"/>
    </g>
  </g>
</svg>
