<svg xmlns="http://www.w3.org/2000/svg" width="86.2" height="86.2" viewBox="0 0 86.2 86.2">
  <g id="Grupo_15" data-name="Grupo 15" transform="translate(-134.5 -108.4)">
    <path id="Trazado_13" data-name="Trazado 13" d="M177.6,108.4a43.1,43.1,0,1,0,43.1,43.1A43.1,43.1,0,0,0,177.6,108.4Zm0,81.7a38.6,38.6,0,1,1,38.6-38.6A38.623,38.623,0,0,1,177.6,190.1Z" fill="#f8a700"/>
    <circle id="Elipse_5" data-name="Elipse 5" cx="38.6" cy="38.6" r="38.6" transform="translate(139 112.9)" fill="#fff"/>
    <g id="Grupo_14" data-name="Grupo 14">
      <g id="Grupo_13" data-name="Grupo 13">
        <path id="Trazado_14" data-name="Trazado 14" d="M166.9,163.8a7.831,7.831,0,0,1-6.8-3.3c-1.6-2.2-2.4-5.4-2.4-9.8,0-4.3.8-7.6,2.4-9.8a7.952,7.952,0,0,1,6.8-3.3,7.831,7.831,0,0,1,6.8,3.3c1.6,2.2,2.4,5.4,2.4,9.8,0,4.3-.8,7.6-2.4,9.8A7.831,7.831,0,0,1,166.9,163.8Zm0-4.6a3.267,3.267,0,0,0,3-2.1,14.71,14.71,0,0,0,1.1-6.4,14.709,14.709,0,0,0-1.1-6.4,3.267,3.267,0,0,0-3-2.1c-2.8,0-4.1,2.8-4.1,8.5S164.2,159.2,166.9,159.2Z" fill="#1e234f"/>
        <path id="Trazado_15" data-name="Trazado 15" d="M187.8,147c6.5,0,9.7,2.7,9.7,8a8.291,8.291,0,0,1-2.5,6.4,8.835,8.835,0,0,1-6.5,2.4,10.632,10.632,0,0,1-4.5-.9,7.54,7.54,0,0,1-3.3-2.8,7.724,7.724,0,0,1-1.2-4.3,6.151,6.151,0,0,1,.1-1.3l5-.2a5.384,5.384,0,0,0-.1,1.1,3.609,3.609,0,0,0,1.1,2.8,4.47,4.47,0,0,0,2.8.9,3.69,3.69,0,0,0,2.9-1.1,3.945,3.945,0,0,0,1-2.9,3.542,3.542,0,0,0-1.3-3,6.851,6.851,0,0,0-4.2-1h-6.6l1.1-13.1h15v4.5H186l-.3,4.4h2.1Z" fill="#1e234f"/>
      </g>
    </g>
  </g>
</svg>
