<svg xmlns="http://www.w3.org/2000/svg" width="86.2" height="86.2" viewBox="0 0 86.2 86.2">
  <g id="Grupo_9" data-name="Grupo 9" transform="translate(0 -210.4)">
    <path id="Trazado_7" data-name="Trazado 7" d="M43.1,210.4a43.1,43.1,0,1,0,43.1,43.1A43.041,43.041,0,0,0,43.1,210.4Zm0,81.6a38.6,38.6,0,1,1,38.6-38.6A38.623,38.623,0,0,1,43.1,292Z" fill="#1fa6b9"/>
    <circle id="Elipse_3" data-name="Elipse 3" cx="38.6" cy="38.6" r="38.6" transform="translate(4.5 214.9)" fill="#fff"/>
    <g id="Grupo_8" data-name="Grupo 8">
      <g id="Grupo_7" data-name="Grupo 7">
        <path id="Trazado_8" data-name="Trazado 8" d="M32.4,265.7a7.831,7.831,0,0,1-6.8-3.3c-1.6-2.2-2.4-5.4-2.4-9.8,0-4.3.8-7.6,2.4-9.8a7.952,7.952,0,0,1,6.8-3.3,7.831,7.831,0,0,1,6.8,3.3c1.6,2.2,2.4,5.4,2.4,9.8,0,4.3-.8,7.6-2.4,9.8A7.952,7.952,0,0,1,32.4,265.7Zm0-4.6a3.267,3.267,0,0,0,3-2.1,19.168,19.168,0,0,0,0-12.8,3.267,3.267,0,0,0-3-2.1c-2.8,0-4.1,2.8-4.1,8.5S29.6,261.1,32.4,261.1Z" fill="#1e234f"/>
        <path id="Trazado_9" data-name="Trazado 9" d="M53.8,265.7c-3.2,0-5.5-.8-6.9-2.3-1.5-1.5-2.2-3.9-2.2-7.1l5.2-.2A10.889,10.889,0,0,0,50,258c.1.5.2,1,.3,1.4a2.589,2.589,0,0,0,.7,1.1,2.384,2.384,0,0,0,1.1.6,7.18,7.18,0,0,0,1.7.2,4.04,4.04,0,0,0,3-1,3.62,3.62,0,0,0,1-2.7,3.337,3.337,0,0,0-1-2.7,4,4,0,0,0-2.7-.9h-1v-4H54a2.878,2.878,0,0,0,2.1-.9,3.094,3.094,0,0,0,.8-2.3,2.583,2.583,0,0,0-.9-2.1,3.612,3.612,0,0,0-2.4-.7,5.9,5.9,0,0,0-1.4.2,3.49,3.49,0,0,0-.9.6,2.622,2.622,0,0,0-.5.9c-.1.4-.2.7-.3,1.1,0,.4-.1.8-.1,1.2l-5.1-.2c0-2.7.7-4.7,2.2-6.1a8.44,8.44,0,0,1,6-2.1,8.628,8.628,0,0,1,5.8,1.9,6.159,6.159,0,0,1,2.3,4.8,5.183,5.183,0,0,1-1,3.3,4.908,4.908,0,0,1-2.2,1.9,7.74,7.74,0,0,1,1.6.7,5.525,5.525,0,0,1,2.4,3,6.566,6.566,0,0,1,.4,2.5,6.956,6.956,0,0,1-2.5,5.7C58.8,265,56.5,265.7,53.8,265.7Z" fill="#1e234f"/>
      </g>
    </g>
  </g>
</svg>
