<svg xmlns="http://www.w3.org/2000/svg" width="86.2" height="86.2" viewBox="0 0 86.2 86.2">
  <g id="Grupo_6" data-name="Grupo 6" transform="translate(0 -108.4)">
    <path id="Trazado_4" data-name="Trazado 4" d="M43.1,108.4a43.1,43.1,0,1,0,43.1,43.1A43.1,43.1,0,0,0,43.1,108.4Zm0,81.7a38.6,38.6,0,1,1,38.6-38.6A38.623,38.623,0,0,1,43.1,190.1Z" fill="#1fa6b9"/>
    <circle id="Elipse_2" data-name="Elipse 2" cx="38.6" cy="38.6" r="38.6" transform="translate(4.5 112.9)" fill="#fff"/>
    <g id="Grupo_5" data-name="Grupo 5">
      <g id="Grupo_4" data-name="Grupo 4">
        <path id="Trazado_5" data-name="Trazado 5" d="M32.4,163.8a7.831,7.831,0,0,1-6.8-3.3c-1.6-2.2-2.4-5.4-2.4-9.8,0-4.3.8-7.6,2.4-9.8a7.952,7.952,0,0,1,6.8-3.3,7.831,7.831,0,0,1,6.8,3.3c1.6,2.2,2.4,5.4,2.4,9.8,0,4.3-.8,7.6-2.4,9.8A7.952,7.952,0,0,1,32.4,163.8Zm0-4.6a3.267,3.267,0,0,0,3-2.1,14.71,14.71,0,0,0,1.1-6.4,14.71,14.71,0,0,0-1.1-6.4,3.267,3.267,0,0,0-3-2.1c-2.8,0-4.1,2.8-4.1,8.5S29.6,159.2,32.4,159.2Z" fill="#1e234f"/>
        <path id="Trazado_6" data-name="Trazado 6" d="M51.9,158.9H62.7v4.5H44.9v-3.8L55,149.3a6.206,6.206,0,0,0,2.2-4.4,3.244,3.244,0,0,0-.9-2.4,3.573,3.573,0,0,0-2.6-.9c-2.4,0-3.6,1.4-3.6,4.1v1.9l-5-.5v-1.3a8.064,8.064,0,0,1,2.3-6.1,8.879,8.879,0,0,1,6.3-2.1,9.275,9.275,0,0,1,6.1,1.9,6.51,6.51,0,0,1,2.4,5.3,8.174,8.174,0,0,1-.8,3.5,13.993,13.993,0,0,1-2.5,3.4Z" fill="#1e234f"/>
      </g>
    </g>
  </g>
</svg>
