<svg xmlns="http://www.w3.org/2000/svg" xmlns:xlink="http://www.w3.org/1999/xlink" width="500" height="500" viewBox="0 0 500 500">
  <defs>
    <style>
      .cls-1 {
        isolation: isolate;
      }

      .cls-2 {
        fill: #57a8ea;
        opacity: 0.38;
      }

      .cls-3 {
        fill: #2b497a;
      }

      .cls-4 {
        fill: #66acff;
      }

      .cls-5 {
        fill: #f9a49b;
      }

      .cls-6 {
        fill: #1e3856;
      }

      .cls-14, .cls-21, .cls-7 {
        fill: #fff;
      }

      .cls-8 {
        fill: #abb1eb;
      }

      .cls-18, .cls-8 {
        opacity: 0.45;
      }

      .cls-18, .cls-22, .cls-8, .cls-9 {
        mix-blend-mode: multiply;
      }

      .cls-9 {
        fill: #1f9ff1;
        opacity: 0.36;
      }

      .cls-10 {
        fill: url(#linear-gradient);
      }

      .cls-11, .cls-22 {
        fill: #c6d7eb;
      }

      .cls-12 {
        fill: #cae0ef;
      }

      .cls-13 {
        fill: #f24c68;
      }

      .cls-14 {
        opacity: 0.43;
        mix-blend-mode: screen;
      }

      .cls-15 {
        fill: #a6c6e0;
      }

      .cls-16 {
        fill: none;
        stroke: #e9f7ff;
        stroke-miterlimit: 10;
        stroke-width: 0.5px;
      }

      .cls-17 {
        fill: #eff6f9;
      }

      .cls-18 {
        fill: #f2787a;
      }

      .cls-19 {
        fill: url(#linear-gradient-2);
      }

      .cls-20 {
        fill: url(#linear-gradient-3);
      }

      .cls-21 {
        opacity: 0.75;
      }

      .cls-22 {
        opacity: 0.57;
      }

      .cls-23 {
        fill: #d83659;
      }
    </style>
    <linearGradient id="linear-gradient" x1="223.26" y1="177.29" x2="221.21" y2="138.37" gradientTransform="translate(-99.35 30.42) rotate(-6.87)" gradientUnits="userSpaceOnUse">
      <stop offset="0" stop-color="#bbd6fe"/>
      <stop offset="1" stop-color="#fefefe"/>
    </linearGradient>
    <linearGradient id="linear-gradient-2" x1="219.92" y1="168.85" x2="221.01" y2="154.37" gradientTransform="translate(-99.35 30.42) rotate(-6.87)" gradientUnits="userSpaceOnUse">
      <stop offset="0" stop-color="#ebeefc"/>
      <stop offset="1" stop-color="#fff"/>
    </linearGradient>
    <linearGradient id="linear-gradient-3" x1="230.79" y1="169.66" x2="231.87" y2="155.18" xlink:href="#linear-gradient-2"/>
  </defs>
  <g class="cls-1">
    <g id="OBJECTS">
      <g>
        <g>
          <path class="cls-2" d="M447.71,154.61a127.42,127.42,0,0,0-251-31.07c-2.08-.08-4.15-.13-6.25-.13a161,161,0,0,0,0,322,162.66,162.66,0,0,0,16.31-.82A148,148,0,0,0,415.09,239.74,126.91,126.91,0,0,0,447.71,154.61Z"/>
          <circle class="cls-2" cx="115.32" cy="62.73" r="36.17" transform="translate(-15.35 50.12) rotate(-23.03)"/>
          <circle class="cls-2" cx="461.22" cy="237.27" r="13.21"/>
        </g>
        <g>
          <path class="cls-3" d="M124.63,120.27s-3.89-5.94-12.92-4.16-14.61,15.33-9.15,25,12,16.48,5,20.12-15.2,8.58-11.88,14.49,20.8,9.62,30.89,1.65,12.36-25.81,8.92-34.6S124.63,120.27,124.63,120.27Z"/>
          <g>
            <path class="cls-4" d="M199.64,388s-1,12.24,3,15.26c2.15,1.61,8.48,1.65,14.91,4.46s12.86,5,17.36,2.29,3.43-4.5-1.53-7.91-6.67-4.94-12.15-10-7.51-6.11-7.51-6.11S203.13,384.59,199.64,388Z"/>
            <path class="cls-4" d="M88.59,336.37S79.8,338.14,77,341.58s-2.73,5.56,2.06,13.74,5.21,13.87,7.83,18.05c2.89,4.59,12.21,5.15,15,3.39s-5.19-12.52-5.78-17.8-1.07-9.55-1.07-9.55Z"/>
            <path class="cls-5" d="M98.42,329.84l-9.83,6.53a18,18,0,0,0,6.46,13L108.82,344Z"/>
            <path class="cls-5" d="M196.75,376.7l2.89,11.3s6.56,2.43,14.09-2.05l-.62-14.67Z"/>
            <path class="cls-6" d="M214.22,378.45a25.25,25.25,0,0,1-9.71,3.87,32.46,32.46,0,0,1-8.37.48s-4.69-16.22-9.22-33.29-3.36-36.71-3.36-36.71l-16.63-44.09-8.74-19.57-1.81-4,33.41-17.17s20.22,60.24,21.88,71.59S214.22,378.45,214.22,378.45Z"/>
            <path class="cls-3" d="M185.5,303.6c-3.33,13.63-80.64,43.3-80.64,43.3a22.92,22.92,0,0,1-7.75-10.26,22,22,0,0,1-1.43-7s12.19-10.32,31.13-23.32,26.32-13.63,26.32-13.63-8-13.15-14.13-23.75-7-16.29-7-16.29l10.14-4.48,31.69-14S188.82,290,185.5,303.6Z"/>
          </g>
          <g>
            <path class="cls-4" d="M180,236.52a28.31,28.31,0,0,0-2.53,2c-9.38,8.14-23.09,19.53-31.14,20.26a90.47,90.47,0,0,1-17.36-.54,231.54,231.54,0,0,0,4.12-23.51c1.1-10.52-5.05-26.36-9.49-31.58l-.94-2L110.33,175A44.34,44.34,0,0,1,128,162.31l23.91-.58c1.67,4,20.85,50.74,26.35,69.43C178.81,233.15,179.4,234.93,180,236.52Z"/>
            <path class="cls-7" d="M214.5,184.12a74.77,74.77,0,0,1-3.75,6.91c-6.52,10.31-16.7,12.93-21.34,12.35a82.29,82.29,0,0,1-11.23-2.85c-1.89-.59-3.23-1-3.39-1.08h0c-11-17.06-8.55-36.17-8.55-36.17,4.52,1.21,14.82,13.14,23.45,18,0,0,3.07-2.8,7.66-7.3h0S202.09,184.63,214.5,184.12Z"/>
            <path class="cls-7" d="M215.9,152.7l.23-.4S216,152.48,215.9,152.7Z"/>
            <path class="cls-7" d="M220.56,138.38c.38-.54.78-1.07,1.17-1.57-.39.52-.78,1-1.16,1.57-2,2.81-4.43,13.91-4.43,13.91h0S218.57,141.19,220.56,138.38Z"/>
            <path class="cls-7" d="M237,134.24a10.59,10.59,0,0,1,.85-1C237.59,133.57,237.3,133.88,237,134.24Z"/>
            <path class="cls-7" d="M239.43,132.46c-.37-.22-.9.12-1.58.83C238.53,132.57,239.06,132.24,239.43,132.46Z"/>
            <path class="cls-8" d="M174.51,183.37a26.47,26.47,0,0,1-8.3-9.83s.55,8.39,3.41,14S174.51,183.37,174.51,183.37Z"/>
            <path class="cls-9" d="M183.68,224.25s-15.61-.35-22.38,12.16-8.46,17.9-32.35,21.8a228.61,228.61,0,0,0,4.11-23.51c1.1-10.51-5.05-26.34-9.48-31.57l-.94-2,4.9-7.39s5.56,15.07,18.55,11.77,23.87-9.18,30.43-6.22a5.42,5.42,0,0,1,1.66,1.26c-2-.62-3.4-1.09-3.4-1.09s1.87,14.49,8.64,20.55C183.64,222.53,183.68,224.25,183.68,224.25Z"/>
            <path class="cls-10" d="M156.52,161.88s2,14.72-3.44,16.58c-9.07,3.1-28.45-14.72-28.45-14.72a26.85,26.85,0,0,1,5.67-2.56c3.64,6.57,11.69,9.17,11.69,9.17a7.32,7.32,0,0,1,2.3-4.1l3.16,1.8,1.86-3.5a10.15,10.15,0,0,1,3,2.47,19.22,19.22,0,0,0-.54-5.57c.44.08.9.15,1.36.19C154.88,161.85,156.52,161.88,156.52,161.88Z"/>
            <path class="cls-5" d="M230.22,136.76c.06.57.1,1.15.13,1.75a22.4,22.4,0,0,1-.07,2.71,14,14,0,0,1-2.54,6.28l-.42.6c-.43.58-.86,1.14-1.31,1.68-.3.37-.61.72-.91,1.05-.46.51-.9,1-1.33,1.42l-.43.42-.8.78-.73.66-.6.53-.25.22-.51.42-.11.08s-3.84,16.53-5.84,28.76h0c-11.73,4.06-16.17-5.58-16.17-5.58,1.44-2.61,3.12-5.67,4.87-9a102.44,102.44,0,0,0,4.64-10.07c.17-.45.33-.88.49-1.29.53-1.43.91-2.62,1.19-3.54l.2-.71c.07-.22.12-.41.17-.58s.08-.31.11-.44.1-.39.11-.45v0s-.85-11.32.25-14.59c.21-.61.43-1.23.66-1.83,1-2.61,2.13-4.91,2.13-4.91a5,5,0,0,1,1.65,2.77c.26,1.66-.34,6.76.55,9,0,0,6.46-6.09,8.08-10.1l1.09-2.74a3.19,3.19,0,0,0,.19-.48l.2-.44c.18-.43.36-.81.53-1.15.45-.88.86-1.36,1.27-1.25a1,1,0,0,1,.34.22C227.87,127.76,229.7,131.82,230.22,136.76Z"/>
            <path class="cls-7" d="M167.64,259.45c-3.09,2.11-34.95-1-40.2,6.16-5.09,7-2.93,12.65-2.81,13-.4-.2-10.47-5.47-1.72-27.09A58.32,58.32,0,0,0,126,241c2.86-14.3.81-28.41-.4-34.61a.37.37,0,0,1,0-.09v0c-.4-2-.7-3.17-.7-3.17s-.09-.16-.27-.44c-2-3.34-14.77-24.55-14.27-27.62.54-3.36,2.23-4.65,9.85-8.57a111.43,111.43,0,0,0,11.15-6.73,340.1,340.1,0,0,1,23.13,49c1.06,2.84,2.11,5.74,3.12,8.71.15.42.29.85.43,1.27l0,.06C168.61,249.72,170.68,257.35,167.64,259.45Z"/>
            <path class="cls-11" d="M158,218.72S145.59,237,135,240a22.08,22.08,0,0,1-9,1c2.86-14.3.81-28.41-.4-34.61v0l0-.07v0l-1-3.61L119,181.77s18.29,25.37,22.66,26.54c3.86,1,11.13.51,12.81.37l.35,0,3.2,10Z"/>
            <path class="cls-7" d="M207.92,247.1s-4.19-1.19-11.49.94c-6.58,1.94-11.37,2.54-16.46-11.52-.57-1.59-1.16-3.37-1.74-5.36-5.5-18.69-24.68-65.39-26.35-69.43l-.12-.28c.54.1,1.16.18,1.85.24h0c.18,0,.36,0,.55,0l.77.05c4,.19,9.2,0,12,1.78a3.89,3.89,0,0,1,1.87,2.45,339,339,0,0,0,10.46,34.87c3.26,8.76,7,16.89,10.86,21.27A165.29,165.29,0,0,1,207.92,247.1Z"/>
            <g>
              <g>
                <path class="cls-12" d="M239.51,112.71,181.68,222.76a.93.93,0,0,1-1.26.39l-25.2-13.24a.93.93,0,0,1-.4-1.26l57.84-110a4.6,4.6,0,0,1,6.23-1.94l18.68,9.81a4.62,4.62,0,0,1,1.94,6.24Z"/>
                <path class="cls-13" d="M158.51,208.19,215.36,100a1.57,1.57,0,0,1,2.11-.66l18.68,9.82a1.54,1.54,0,0,1,.47.37,1.56,1.56,0,0,1,.19,1.74L180,219.46Z"/>
                <path class="cls-3" d="M221.37,97.86h15.54a2,2,0,0,1,2,2v2a0,0,0,0,1,0,0H219.41a0,0,0,0,1,0,0v-2a2,2,0,0,1,2-2Z" transform="translate(72.74 -95.14) rotate(27.72)"/>
                <polygon class="cls-7" points="234.53 86.57 254.8 51 237.09 87.92 234.53 86.57"/>
                <rect class="cls-12" x="129.77" y="237.02" width="47.22" height="16.27" transform="translate(-134.98 266.88) rotate(-62.28)"/>
                <path class="cls-3" d="M195,197.37l-13.34,25.39a.93.93,0,0,1-1.26.39l-25.2-13.24a.93.93,0,0,1-.4-1.26l13.35-25.39Z"/>
                <path class="cls-14" d="M239,107.59,178.7,222.25,159.19,212,219.61,97l18,9.44A4.64,4.64,0,0,1,239,107.59Z"/>
                <rect class="cls-15" x="159.57" y="216.1" width="9.52" height="16.27" transform="translate(-110.61 265.39) rotate(-62.28)"/>
                <g>
                  <g>
                    <line class="cls-16" x1="184.33" y1="187.86" x2="196.62" y2="194.32"/>
                    <line class="cls-16" x1="192.58" y1="186.77" x2="198.86" y2="190.07"/>
                    <line class="cls-16" x1="194.81" y1="182.52" x2="201.09" y2="185.82"/>
                    <line class="cls-16" x1="197.05" y1="178.27" x2="203.33" y2="181.57"/>
                    <line class="cls-16" x1="199.28" y1="174.02" x2="205.56" y2="177.32"/>
                  </g>
                  <g>
                    <line class="cls-16" x1="195.58" y1="166.45" x2="207.88" y2="172.91"/>
                    <line class="cls-16" x1="203.83" y1="165.36" x2="210.11" y2="168.66"/>
                    <line class="cls-16" x1="206.06" y1="161.11" x2="212.35" y2="164.41"/>
                    <line class="cls-16" x1="208.3" y1="156.85" x2="214.58" y2="160.16"/>
                    <line class="cls-16" x1="210.53" y1="152.6" x2="216.81" y2="155.9"/>
                  </g>
                  <g>
                    <line class="cls-16" x1="206.84" y1="145.01" x2="219.14" y2="151.47"/>
                    <line class="cls-16" x1="215.1" y1="143.92" x2="221.38" y2="147.22"/>
                    <line class="cls-16" x1="217.33" y1="139.67" x2="223.61" y2="142.97"/>
                    <line class="cls-16" x1="219.56" y1="135.42" x2="225.85" y2="138.72"/>
                    <line class="cls-16" x1="221.8" y1="131.16" x2="228.08" y2="134.46"/>
                  </g>
                  <g>
                    <line class="cls-16" x1="218.1" y1="123.59" x2="230.4" y2="130.05"/>
                    <line class="cls-16" x1="226.35" y1="122.49" x2="232.64" y2="125.8"/>
                    <line class="cls-16" x1="228.59" y1="118.24" x2="234.87" y2="121.54"/>
                    <line class="cls-16" x1="230.82" y1="113.99" x2="237.11" y2="117.29"/>
                    <line class="cls-16" x1="233.06" y1="109.74" x2="239.34" y2="113.04"/>
                  </g>
                </g>
                <path class="cls-7" d="M181.53,227.87l-30.67-16.12a3.75,3.75,0,0,1-1.57-5.06h0a3.75,3.75,0,0,1,5.06-1.57L185,221.24a3.75,3.75,0,0,1,1.57,5.06h0A3.75,3.75,0,0,1,181.53,227.87Z"/>
                <path class="cls-4" d="M237.62,83.93h0a4.46,4.46,0,0,0-5.8,1.49l-6.65,10.09,9.78,5.14,4.7-11A4.46,4.46,0,0,0,237.62,83.93Z"/>
              </g>
              <rect class="cls-17" x="126.29" y="265.87" width="30.22" height="5.21" transform="translate(141.12 -34.96) rotate(27.72)"/>
            </g>
            <path class="cls-7" d="M166.23,206.81c-.8,1.49-6.48,3-6.48,3a11.26,11.26,0,0,1-.14,4.12,3.88,3.88,0,0,1-2.29,2.55,14.56,14.56,0,0,1-3.63,1.22c-6.66,6.86-15.7,11.22-23.63,13.71-1,.3-1.92.59-2.86.84-5.81,1.57-10.73,2.08-13.21,1.82-6.17-.64-5.85-3.76-7-15.74s-.21-40.7,3.35-43.3,17.79,13.7,17.34,17.58c0,.18,0,.39-.08.61-.33,2.53-1.21,8.23-2,13.11-.72,4.5-1.34,8.31-1.34,8.31a18.47,18.47,0,0,1,2.49-.95c.47-.15,1-.32,1.63-.49a70.55,70.55,0,0,1,9-1.83,62.18,62.18,0,0,0,10.5-2.43,44.45,44.45,0,0,0,5.11-1.95s2.76-6.86,3.44-7.54,8.84-3.09,10.1-.06A8.82,8.82,0,0,1,166.23,206.81Z"/>
            <path class="cls-11" d="M124.61,202.65,119,181.77s3.93,5.47,8.6,11.45c-.33,2.53-1.21,8.23-2,13.11v-.07Z"/>
            <path class="cls-5" d="M166.24,206.81c-.81,1.5-6.49,3-6.49,3a11.35,11.35,0,0,1-.13,4.12c-.47,2.8-5.93,3.77-5.93,3.77-6.66,6.87-15.69,11.23-23.63,13.72-4-6.4-3.08-13.5-1.68-18.22a69.65,69.65,0,0,1,9-1.83,58,58,0,0,0,15.6-4.39s2.77-6.85,3.45-7.53,8.83-3.08,10.08-.06A8.87,8.87,0,0,1,166.24,206.81Z"/>
          </g>
          <g>
            <path class="cls-4" d="M123.11,121.62s-3.6-.28-6.23,4.91c-2.86,5.62-2.06,14.73,4.6,16.89S123.11,121.62,123.11,121.62Z"/>
            <path class="cls-3" d="M152.59,138s.95,7.47,5.62,10.6c0,0-2.09-5.49-.82-13.72s2.17-11.84.43-15.17-5.72-1.79-5.72-1.79-7.61-9.83-19.63-6.22-12.34,11.81-12.29,15.8c0,0-3.26,4.78-.43,12.49s12.72,14.63,12.72,14.63l4.21-14.48Z"/>
            <path class="cls-5" d="M152.31,167a10.15,10.15,0,0,0-3-2.47l-1.86,3.5-3.16-1.8a7.32,7.32,0,0,0-2.3,4.1s-8.05-2.6-11.69-9.17a0,0,0,0,0,0,0l1.25-.6a13.37,13.37,0,0,0,.71-3.54s0,0,0,0a42.89,42.89,0,0,0-.12-7.4c-.19-2-.41-3.46-.41-3.46l16.54,7.62s-.1,1.48,0,3.08c0,.45,0,.91.1,1.35l0,.2a4.16,4.16,0,0,0,.71,2.11,5.35,5.35,0,0,0,2.67,1A19.22,19.22,0,0,1,152.31,167Z"/>
            <path class="cls-18" d="M151.46,161.46c-15.64,4.29-18.17-6.13-19.28-11.89a20.4,20.4,0,0,1-.41-3.45l16.54,7.62s-.4,5.48.79,6.75C149.68,161.11,149.8,161.29,151.46,161.46Z"/>
            <path class="cls-5" d="M155.81,143.09c-.24,4.33-1.09,9.25-3.42,12.4-2,2.71-12.94,2.33-17.36-2.7a18.69,18.69,0,0,1-2.31-3.24s0,0,0-.06a11.44,11.44,0,0,1-1.52-4.4s-4.75-.32-3.95-5.72a2.7,2.7,0,0,1,4.16-2.09,6.27,6.27,0,0,1,1.84,2.76c5.31-.16,17.12-7.22,17.2-16a21.9,21.9,0,0,0,5.17,10A58.36,58.36,0,0,1,155.81,143.09Z"/>
            <path class="cls-19" d="M147.45,168.05l-3.16-1.8a7.32,7.32,0,0,0-2.3,4.1s-8.05-2.6-11.69-9.17a0,0,0,0,0,0,0,8.43,8.43,0,0,0,2-4.14s0,0,0,0,5.36,6.46,12.26,7Z"/>
            <path class="cls-20" d="M152.31,167a10.15,10.15,0,0,0-3-2.47l-1.86,3.5-.23-4.67s1.81-1.37,1.17-5l0-.2-.15-1.37.05,0a6.29,6.29,0,0,1,3.27,3.85c.09.26.16.52.23.78A19.22,19.22,0,0,1,152.31,167Z"/>
            <path class="cls-7" d="M155.81,143.09c-.24,4.33-1.09,9.25-3.42,12.4-2,2.71-12.94,2.33-17.36-2.7a18.69,18.69,0,0,1-2.31-3.24s0,0,0-.06a22.69,22.69,0,0,1-1.52-4.4s8.56,2.39,14-.76,6.13-3.92,8-2.44C154.72,143.1,155.55,143.13,155.81,143.09Z"/>
            <path class="cls-7" d="M133.22,140l3.64,6.37.87-.29s-2.87-6.57-5.3-7.69Z"/>
          </g>
        </g>
        <g>
          <polygon class="cls-21" points="350.41 173.82 357.37 229.77 378.02 177.31 370.85 233.23 403.9 187.55 383.04 239.94 426.41 203.91 393.19 249.46 444.15 225.36 400.64 261.21 456 250.54 404.94 274.44 461.22 277.88 405.81 288.33 459.47 305.65 403.21 302 450.87 332.12 397.28 314.59 435.96 355.62 388.41 325.31 415.67 374.67 377.15 333.5 391.28 388.08 364.22 338.62 364.33 395 350.41 340.36 336.5 395 336.61 338.62 309.54 388.08 323.67 333.5 285.15 374.67 312.41 325.31 264.86 355.62 303.54 314.59 249.95 332.12 297.61 302 241.35 305.65 295.01 288.33 239.6 277.88 295.88 274.44 244.82 250.54 300.18 261.21 256.67 225.36 307.64 249.46 274.41 203.91 317.78 239.94 296.92 187.55 329.98 233.23 322.8 177.31 343.45 229.77 350.41 173.82"/>
          <g>
            <path class="cls-3" d="M327,216.33H430.84a6.27,6.27,0,0,1,6.27,6.27v12.31a2.91,2.91,0,0,1-2.91,2.91H323.61a2.91,2.91,0,0,1-2.91-2.91V222.59a6.27,6.27,0,0,1,6.27-6.27Z" transform="translate(120.78 -131.4) rotate(23.31)"/>
            <g>
              <path class="cls-6" d="M330.33,214.79h0a1.33,1.33,0,0,1-.7-1.76l5.22-12.13a1.35,1.35,0,0,1,1.77-.7h0a1.34,1.34,0,0,1,.7,1.76l-5.23,12.13A1.33,1.33,0,0,1,330.33,214.79Z"/>
              <path class="cls-6" d="M343.31,220.39h0a1.35,1.35,0,0,1-.7-1.77l5.22-12.13a1.35,1.35,0,0,1,1.77-.7h0a1.35,1.35,0,0,1,.7,1.77l-5.23,12.12A1.34,1.34,0,0,1,343.31,220.39Z"/>
              <path class="cls-6" d="M356.29,226h0a1.34,1.34,0,0,1-.7-1.77l5.22-12.12a1.35,1.35,0,0,1,1.77-.71h0a1.35,1.35,0,0,1,.7,1.77l-5.23,12.13A1.34,1.34,0,0,1,356.29,226Z"/>
              <path class="cls-6" d="M369.27,231.57h0a1.33,1.33,0,0,1-.7-1.76l5.22-12.13a1.35,1.35,0,0,1,1.77-.7h0a1.34,1.34,0,0,1,.7,1.76L371,230.87A1.33,1.33,0,0,1,369.27,231.57Z"/>
              <path class="cls-6" d="M382.25,237.16h0a1.33,1.33,0,0,1-.7-1.76l5.22-12.13a1.35,1.35,0,0,1,1.77-.7h0a1.34,1.34,0,0,1,.7,1.76L384,236.46A1.33,1.33,0,0,1,382.25,237.16Z"/>
              <path class="cls-6" d="M395.23,242.76h0a1.35,1.35,0,0,1-.7-1.77l5.22-12.13a1.35,1.35,0,0,1,1.77-.7h0a1.35,1.35,0,0,1,.7,1.77L397,242.06A1.34,1.34,0,0,1,395.23,242.76Z"/>
              <path class="cls-6" d="M408.21,248.35h0a1.34,1.34,0,0,1-.7-1.76l5.22-12.13a1.35,1.35,0,0,1,1.77-.7h0a1.34,1.34,0,0,1,.7,1.76L410,247.65A1.35,1.35,0,0,1,408.21,248.35Z"/>
              <path class="cls-6" d="M421.19,253.94h0a1.34,1.34,0,0,1-.7-1.76l5.23-12.13a1.33,1.33,0,0,1,1.76-.7h0a1.33,1.33,0,0,1,.7,1.76L423,253.24A1.35,1.35,0,0,1,421.19,253.94Z"/>
            </g>
            <path class="cls-7" d="M423.58,258,377.76,364.37a13.75,13.75,0,0,1-18.06,7.19l-74.48-32.1a13.74,13.74,0,0,1-7.17-18l45.83-106.35Z"/>
            <path class="cls-12" d="M420.12,256.53,374.3,362.88a10,10,0,0,1-13.11,5.21L286.71,336a10,10,0,0,1-5.2-13.1l45.83-106.35Z"/>
            <path class="cls-4" d="M411,277.63,374.3,362.88a10,10,0,0,1-13.11,5.21L286.71,336a10,10,0,0,1-5.2-13.1L321,231.34C345,238.81,366.07,256.34,411,277.63Z"/>
            <rect class="cls-3" x="295.77" y="262.04" width="108.56" height="58.88" transform="translate(143.91 -114.73) rotate(23.31)"/>
            <g>
              <rect class="cls-7" x="330.47" y="286.44" width="39.17" height="10.07" transform="translate(-56.15 497.62) rotate(-66.69)"/>
              <rect class="cls-7" x="345.02" y="271.89" width="10.07" height="39.17" transform="translate(-56.15 497.62) rotate(-66.69)"/>
            </g>
            <path class="cls-22" d="M423.58,258,377.76,364.37a13.75,13.75,0,0,1-18.06,7.19l-74.48-32.1a13.74,13.74,0,0,1-7.17-18l2.32-5.39c95.88,34,138.48-60,138.48-60Z"/>
          </g>
        </g>
        <g>
          <g>
            <g>
              <path class="cls-13" d="M354.4,67.8l-11.35-.43a53.15,53.15,0,0,0,4.44-17.87c.1-1.26.16-2.57.16-3.93h3.82s-.06,1.56,0,3.93C351.53,54.4,352.05,62.72,354.4,67.8Z"/>
              <path class="cls-23" d="M351.46,49.5h-4c.1-1.26.16-2.57.16-3.93h3.82S351.41,47.13,351.46,49.5Z"/>
              <path class="cls-13" d="M356,45.52c0,1.09-2.63,2-5.86,2s-5.86-.88-5.86-2,2.62-2,5.86-2S356,44.43,356,45.52Z"/>
              <path class="cls-23" d="M350.26,46.88a13.71,13.71,0,0,1-3.86-.44,2.48,2.48,0,0,1-.95-.47.8.8,0,0,1-.29-.64.94.94,0,0,1,.32-.6,4.89,4.89,0,0,1,1.94-.69,13.49,13.49,0,0,1,3.91-.11,11.24,11.24,0,0,1,1.91.43,4.84,4.84,0,0,1,.9.4c.26.16.64.41.53.76,0-.34-.34-.49-.6-.62a5.77,5.77,0,0,0-.9-.26,10.9,10.9,0,0,0-1.88-.26,17,17,0,0,0-3.77.24,4.43,4.43,0,0,0-1.68.54.36.36,0,0,0-.14.22s0,.12.1.21a2.33,2.33,0,0,0,.75.42A22.29,22.29,0,0,0,350.26,46.88Z"/>
            </g>
            <g>
              <path class="cls-13" d="M340.26,69l-10,5.31a53,53,0,0,0-5.09-17.7c-.54-1.14-1.15-2.31-1.82-3.48l3.31-1.91s.72,1.37,1.95,3.4C331.08,58.8,335.69,65.75,340.26,69Z"/>
              <path class="cls-23" d="M328.57,54.59l-3.44,2c-.54-1.14-1.15-2.31-1.82-3.48l3.31-1.91S327.34,52.56,328.57,54.59Z"/>
              <path class="cls-13" d="M330.5,48.88c.54.94-1.29,3-4.09,4.64s-5.52,2.16-6.06,1.22,1.29-3,4.09-4.64S330,47.94,330.5,48.88Z"/>
              <path class="cls-23" d="M326.22,52.93a13.53,13.53,0,0,1-3.57,1.54,2.46,2.46,0,0,1-1.06.07.8.8,0,0,1-.56-.41.89.89,0,0,1,0-.68,5,5,0,0,1,1.32-1.57,13.19,13.19,0,0,1,3.34-2,11.58,11.58,0,0,1,1.87-.59,6.51,6.51,0,0,1,1-.1c.3,0,.76,0,.84.39-.14-.32-.54-.26-.83-.24a5.78,5.78,0,0,0-.91.23,10.83,10.83,0,0,0-1.76.72,16.61,16.61,0,0,0-3.14,2.08,4.69,4.69,0,0,0-1.19,1.32.39.39,0,0,0,0,.26c0,.05.07.09.19.13a2.77,2.77,0,0,0,.86,0A22.72,22.72,0,0,0,326.22,52.93Z"/>
            </g>
            <g>
              <path class="cls-13" d="M328.6,77.05l-6,9.62A52.91,52.91,0,0,0,309.3,73.89c-1-.72-2.14-1.43-3.31-2.1l1.91-3.31s1.32.83,3.39,2C315.57,72.84,323,76.55,328.6,77.05Z"/>
              <path class="cls-23" d="M311.29,70.45l-2,3.44c-1-.72-2.14-1.43-3.31-2.1l1.91-3.31S309.22,69.31,311.29,70.45Z"/>
              <path class="cls-13" d="M310.11,64.54c.94.54.39,3.26-1.23,6.06s-3.69,4.63-4.63,4.09-.4-3.26,1.22-6.06S309.16,64,310.11,64.54Z"/>
              <path class="cls-23" d="M308.43,70.18a13.76,13.76,0,0,1-2.32,3.12,2.47,2.47,0,0,1-.89.59.79.79,0,0,1-.69-.07.89.89,0,0,1-.35-.58,4.73,4.73,0,0,1,.36-2,13.16,13.16,0,0,1,1.86-3.44,12.14,12.14,0,0,1,1.33-1.44,5.1,5.1,0,0,1,.8-.58c.26-.14.67-.35.92-.08-.28-.21-.6,0-.84.21a5.87,5.87,0,0,0-.67.65,12.08,12.08,0,0,0-1.17,1.5,17.75,17.75,0,0,0-1.68,3.38,4.73,4.73,0,0,0-.37,1.73.46.46,0,0,0,.12.23.24.24,0,0,0,.23,0,2.41,2.41,0,0,0,.74-.44A22.39,22.39,0,0,0,308.43,70.18Z"/>
            </g>
            <g>
              <path class="cls-13" d="M322.55,89.88l-.42,11.35a53.11,53.11,0,0,0-17.87-4.43c-1.26-.11-2.57-.17-3.93-.17V92.81s1.56.06,3.93,0C309.15,92.75,317.48,92.23,322.55,89.88Z"/>
              <path class="cls-23" d="M304.26,92.82v4c-1.26-.11-2.57-.17-3.93-.17V92.81S301.89,92.87,304.26,92.82Z"/>
              <path class="cls-13" d="M300.27,88.29c1.09,0,2,2.63,2,5.86s-.89,5.86-2,5.86-2-2.62-2-5.86S299.19,88.29,300.27,88.29Z"/>
              <path class="cls-23" d="M301.64,94a13.43,13.43,0,0,1-.45,3.87,2.56,2.56,0,0,1-.47,1,.81.81,0,0,1-.63.28.94.94,0,0,1-.6-.32,4.87,4.87,0,0,1-.7-1.93,13.22,13.22,0,0,1-.1-3.92,11.24,11.24,0,0,1,.43-1.91,4.84,4.84,0,0,1,.4-.9c.15-.25.4-.64.75-.53-.34,0-.49.34-.61.6a4.74,4.74,0,0,0-.26.91,10.79,10.79,0,0,0-.26,1.87,17.58,17.58,0,0,0,.23,3.77,4.62,4.62,0,0,0,.55,1.68.34.34,0,0,0,.21.14c.06,0,.13,0,.22-.1a2.87,2.87,0,0,0,.42-.74A22.64,22.64,0,0,0,301.64,94Z"/>
            </g>
            <g>
              <path class="cls-13" d="M323.73,104l5.3,10a53.18,53.18,0,0,0-17.69,5.09c-1.15.54-2.31,1.15-3.49,1.83l-1.91-3.31s1.38-.73,3.41-2C313.55,113.2,320.51,108.59,323.73,104Z"/>
              <path class="cls-23" d="M309.35,115.71l2,3.44c-1.15.54-2.31,1.15-3.49,1.83l-1.91-3.31S307.32,116.94,309.35,115.71Z"/>
              <path class="cls-13" d="M303.64,113.78c.94-.54,3,1.29,4.63,4.09s2.17,5.52,1.23,6.06-3-1.28-4.64-4.09S302.7,114.33,303.64,113.78Z"/>
              <path class="cls-23" d="M307.69,118.06a13.67,13.67,0,0,1,1.54,3.57,2.63,2.63,0,0,1,.07,1.06.8.8,0,0,1-.41.56.89.89,0,0,1-.68,0,4.67,4.67,0,0,1-1.57-1.32,13.52,13.52,0,0,1-2.05-3.34,11.23,11.23,0,0,1-.58-1.87,5.35,5.35,0,0,1-.11-1c0-.3,0-.76.39-.84-.31.14-.25.55-.23.83a5,5,0,0,0,.23.92,12.1,12.1,0,0,0,.71,1.75,17.58,17.58,0,0,0,2.09,3.15,4.77,4.77,0,0,0,1.31,1.18.48.48,0,0,0,.26,0s.1-.08.13-.2a2.48,2.48,0,0,0,0-.86A23.79,23.79,0,0,0,307.69,118.06Z"/>
            </g>
            <g>
              <path class="cls-13" d="M331.81,115.68l9.62,6A53.13,53.13,0,0,0,328.65,135c-.72,1-1.43,2.14-2.11,3.32l-3.31-1.91s.83-1.32,2-3.4C327.59,128.72,331.31,121.24,331.81,115.68Z"/>
              <path class="cls-23" d="M325.21,133l3.44,2c-.72,1-1.43,2.14-2.11,3.32l-3.31-1.91S324.06,135.07,325.21,133Z"/>
              <path class="cls-13" d="M319.29,134.18c.55-1,3.26-.4,6.07,1.22s4.63,3.69,4.08,4.64-3.25.39-6.06-1.23S318.75,135.12,319.29,134.18Z"/>
              <path class="cls-23" d="M324.94,135.86a13.47,13.47,0,0,1,3.12,2.32,2.47,2.47,0,0,1,.59.88.82.82,0,0,1-.07.69,1,1,0,0,1-.58.36,5,5,0,0,1-2-.36,13.33,13.33,0,0,1-3.44-1.87,11.44,11.44,0,0,1-1.45-1.33,5.84,5.84,0,0,1-.58-.8c-.14-.26-.35-.67-.08-.92-.2.28.05.6.21.84a7.06,7.06,0,0,0,.66.68,11.13,11.13,0,0,0,1.5,1.16,17.18,17.18,0,0,0,3.38,1.68,4.73,4.73,0,0,0,1.73.37.42.42,0,0,0,.23-.12.27.27,0,0,0,0-.23,2.37,2.37,0,0,0-.43-.74A22.27,22.27,0,0,0,324.94,135.86Z"/>
            </g>
            <g>
              <path class="cls-13" d="M344.64,121.73l11.35.42A53.25,53.25,0,0,0,351.55,140c-.1,1.27-.16,2.58-.16,3.93h-3.82s.06-1.55,0-3.93C347.51,135.13,347,126.8,344.64,121.73Z"/>
              <path class="cls-23" d="M347.58,140h4c-.1,1.27-.16,2.58-.16,3.93h-3.82S347.63,142.4,347.58,140Z"/>
              <path class="cls-13" d="M343.05,144c0-1.09,2.62-2,5.86-2s5.86.88,5.86,2-2.62,2-5.86,2S343.05,145.1,343.05,144Z"/>
              <path class="cls-23" d="M348.78,142.64a13.72,13.72,0,0,1,3.86.45,2.48,2.48,0,0,1,.95.47.79.79,0,0,1,.29.63.91.91,0,0,1-.32.6,4.91,4.91,0,0,1-1.94.7,13.15,13.15,0,0,1-3.91.1,10.36,10.36,0,0,1-1.91-.43,4.84,4.84,0,0,1-.9-.4c-.26-.15-.64-.4-.54-.75,0,.34.35.49.61.62a5.2,5.2,0,0,0,.9.26,12,12,0,0,0,1.88.25,17,17,0,0,0,3.77-.23,4.68,4.68,0,0,0,1.68-.55.34.34,0,0,0,.14-.21.25.25,0,0,0-.1-.21,2.33,2.33,0,0,0-.75-.42A21.35,21.35,0,0,0,348.78,142.64Z"/>
            </g>
            <g>
              <path class="cls-13" d="M358.78,120.56l10-5.31a52.89,52.89,0,0,0,5.09,17.69c.54,1.15,1.14,2.31,1.82,3.49l-3.31,1.91s-.72-1.38-1.95-3.41C368,130.73,363.35,123.77,358.78,120.56Z"/>
              <path class="cls-23" d="M370.47,134.93l3.44-2c.54,1.15,1.14,2.31,1.82,3.49l-3.31,1.91S371.7,137,370.47,134.93Z"/>
              <ellipse class="cls-13" cx="373.61" cy="137.71" rx="5.86" ry="1.97" transform="translate(-18.8 205.26) rotate(-30)"/>
              <path class="cls-23" d="M372.82,136.6a13.89,13.89,0,0,1,3.57-1.55,2.42,2.42,0,0,1,1.05-.06.75.75,0,0,1,.57.4.89.89,0,0,1,0,.68,4.81,4.81,0,0,1-1.33,1.57,13.28,13.28,0,0,1-3.33,2.05,11.53,11.53,0,0,1-1.87.58,5.45,5.45,0,0,1-1,.11c-.3,0-.76,0-.84-.39.14.31.54.25.83.23a4.86,4.86,0,0,0,.91-.23,10.79,10.79,0,0,0,1.76-.71,17.5,17.5,0,0,0,3.14-2.09,4.53,4.53,0,0,0,1.19-1.31.39.39,0,0,0,0-.26c0-.05-.07-.1-.19-.13a2.27,2.27,0,0,0-.86,0A22.42,22.42,0,0,0,372.82,136.6Z"/>
            </g>
            <g>
              <path class="cls-13" d="M370.43,112.47l6.05-9.61a52.84,52.84,0,0,0,13.25,12.77c1,.73,2.15,1.43,3.32,2.11l-1.91,3.31s-1.32-.83-3.39-2C383.47,116.69,376,113,370.43,112.47Z"/>
              <path class="cls-23" d="M387.75,119.08l2-3.45c1,.73,2.15,1.43,3.32,2.11l-1.91,3.31S389.82,120.22,387.75,119.08Z"/>
              <path class="cls-13" d="M388.93,125c-.94-.55-.39-3.26,1.23-6.06s3.69-4.64,4.63-4.09.4,3.26-1.22,6.06S389.87,125.53,388.93,125Z"/>
              <path class="cls-23" d="M390.61,119.34a14,14,0,0,1,2.32-3.12,2.61,2.61,0,0,1,.89-.59.8.8,0,0,1,.68.07.89.89,0,0,1,.36.58,4.74,4.74,0,0,1-.36,2,13.36,13.36,0,0,1-1.87,3.44,11.27,11.27,0,0,1-1.32,1.44,6.52,6.52,0,0,1-.8.58c-.26.14-.67.35-.92.08.28.2.6,0,.83-.21a4.71,4.71,0,0,0,.68-.66,10.53,10.53,0,0,0,1.16-1.5,17.14,17.14,0,0,0,1.69-3.37,4.59,4.59,0,0,0,.36-1.73.36.36,0,0,0-.11-.23s-.12-.05-.24,0a2.44,2.44,0,0,0-.73.43A23.89,23.89,0,0,0,390.61,119.34Z"/>
            </g>
            <g>
              <path class="cls-13" d="M376.49,99.64l.42-11.35a53,53,0,0,0,17.87,4.44c1.26.11,2.57.16,3.93.16v3.83s-1.56-.06-3.93,0C389.89,96.77,381.56,97.29,376.49,99.64Z"/>
              <path class="cls-23" d="M394.78,96.7v-4c1.26.11,2.57.16,3.93.16v3.83S397.15,96.66,394.78,96.7Z"/>
              <path class="cls-13" d="M398.76,101.23c-1.08,0-2-2.62-2-5.86s.89-5.86,2-5.86,2,2.63,2,5.86S399.85,101.23,398.76,101.23Z"/>
              <path class="cls-23" d="M397.4,95.5a13.37,13.37,0,0,1,.45-3.86,2.48,2.48,0,0,1,.47-1,.74.74,0,0,1,.63-.28.89.89,0,0,1,.6.32,4.81,4.81,0,0,1,.7,1.93,13.49,13.49,0,0,1,.1,3.91,11.35,11.35,0,0,1-.43,1.92,5.5,5.5,0,0,1-.4.9c-.16.25-.4.64-.76.53.35,0,.5-.35.62-.6a4.74,4.74,0,0,0,.26-.91,10.9,10.9,0,0,0,.26-1.88,17.48,17.48,0,0,0-.23-3.76,4.67,4.67,0,0,0-.55-1.69.41.41,0,0,0-.22-.14s-.12,0-.21.1a2.45,2.45,0,0,0-.42.75A22.52,22.52,0,0,0,397.4,95.5Z"/>
            </g>
            <g>
              <path class="cls-13" d="M375.31,85.5l-5.3-10a52.89,52.89,0,0,0,17.69-5.09c1.15-.54,2.31-1.14,3.48-1.82l1.92,3.31s-1.38.73-3.41,2C385.48,76.32,378.53,80.94,375.31,85.5Z"/>
              <path class="cls-23" d="M389.69,73.81l-2-3.44c1.15-.54,2.31-1.14,3.48-1.82l1.92,3.31S391.72,72.59,389.69,73.81Z"/>
              <path class="cls-13" d="M395.4,75.74c-.94.55-3-1.28-4.64-4.09s-2.16-5.51-1.22-6.06,3,1.29,4.64,4.09S396.34,75.2,395.4,75.74Z"/>
              <path class="cls-23" d="M391.35,71.47a13.6,13.6,0,0,1-1.54-3.58,2.58,2.58,0,0,1-.07-1,.78.78,0,0,1,.41-.56.94.94,0,0,1,.68,0,4.81,4.81,0,0,1,1.57,1.33,13.34,13.34,0,0,1,2.05,3.34,11,11,0,0,1,.58,1.87,4.59,4.59,0,0,1,.1,1c0,.29,0,.75-.39.83.32-.14.26-.54.24-.82a4.77,4.77,0,0,0-.23-.92,10.73,10.73,0,0,0-.72-1.75A17,17,0,0,0,392,68a4.62,4.62,0,0,0-1.31-1.18.35.35,0,0,0-.26,0,.3.3,0,0,0-.14.19,2.77,2.77,0,0,0,0,.86A22.83,22.83,0,0,0,391.35,71.47Z"/>
            </g>
            <g>
              <path class="cls-13" d="M367.23,73.85l-9.62-6a53.13,53.13,0,0,0,12.78-13.26c.72-1,1.43-2.15,2.11-3.32l3.31,1.91s-.83,1.32-2,3.4C371.45,60.81,367.73,68.28,367.23,73.85Z"/>
              <path class="cls-23" d="M373.83,56.54l-3.44-2c.72-1,1.43-2.15,2.11-3.32l3.31,1.91S375,54.46,373.83,56.54Z"/>
              <path class="cls-13" d="M379.74,55.35c-.54.94-3.25.4-6.06-1.22s-4.63-3.7-4.09-4.64,3.26-.39,6.06,1.22S380.29,54.41,379.74,55.35Z"/>
              <path class="cls-23" d="M374.1,53.67A13.47,13.47,0,0,1,371,51.35a2.43,2.43,0,0,1-.59-.88.82.82,0,0,1,.07-.69.89.89,0,0,1,.58-.36,4.7,4.7,0,0,1,2,.36,13,13,0,0,1,3.44,1.87A10.09,10.09,0,0,1,377.94,53a5.08,5.08,0,0,1,.59.79c.13.26.35.67.08.92.2-.28-.06-.6-.22-.83a5.23,5.23,0,0,0-.65-.68,11.13,11.13,0,0,0-1.5-1.16,16.64,16.64,0,0,0-3.38-1.68,4.53,4.53,0,0,0-1.73-.37.41.41,0,0,0-.23.11.29.29,0,0,0,0,.24,2.58,2.58,0,0,0,.44.73A22.35,22.35,0,0,0,374.1,53.67Z"/>
            </g>
            <path class="cls-23" d="M379,94.77A29.44,29.44,0,1,1,367.2,71.25,29.43,29.43,0,0,1,379,94.77Z"/>
            <path class="cls-13" d="M373.11,88.93A29.42,29.42,0,0,1,326,112.45a29.42,29.42,0,0,1,41.2-41.2A29.17,29.17,0,0,1,373.11,88.93Z"/>
            <circle class="cls-23" cx="339.15" cy="80.68" r="8.42"/>
            <path class="cls-23" d="M332.4,98.9A3.24,3.24,0,1,1,328.25,97,3.24,3.24,0,0,1,332.4,98.9Z"/>
            <path class="cls-23" d="M373.55,97.23A5.5,5.5,0,1,1,366.49,94,5.5,5.5,0,0,1,373.55,97.23Z"/>
          </g>
          <g>
            <g>
              <path class="cls-13" d="M381.8,410l-6.74-.25a31.53,31.53,0,0,0,2.64-10.62c.06-.75.09-1.53.09-2.33h2.27s0,.92,0,2.33C380.1,402,380.41,407,381.8,410Z"/>
              <path class="cls-23" d="M380.06,399.13H377.7c.06-.75.09-1.53.09-2.33h2.27S380,397.72,380.06,399.13Z"/>
              <path class="cls-13" d="M382.75,396.76c0,.65-1.56,1.17-3.48,1.17s-3.49-.52-3.49-1.17,1.56-1.17,3.49-1.17S382.75,396.12,382.75,396.76Z"/>
              <path class="cls-23" d="M379.34,397.58a8.15,8.15,0,0,1-2.29-.27,1.59,1.59,0,0,1-.57-.28.47.47,0,0,1-.16-.38.48.48,0,0,1,.19-.35,2.94,2.94,0,0,1,1.14-.42,7.93,7.93,0,0,1,2.33-.06,6.28,6.28,0,0,1,1.14.26,2.74,2.74,0,0,1,.53.23c.15.1.38.24.32.45,0-.2-.21-.29-.36-.36a3.35,3.35,0,0,0-.54-.16,7,7,0,0,0-1.11-.15,9.86,9.86,0,0,0-2.24.14,2.68,2.68,0,0,0-1,.32.28.28,0,0,0-.09.13.2.2,0,0,0,.06.13,1.6,1.6,0,0,0,.45.25A14.12,14.12,0,0,0,379.34,397.58Z"/>
            </g>
            <g>
              <path class="cls-13" d="M373.4,410.7l-6,3.15a31.55,31.55,0,0,0-3-10.51c-.32-.68-.68-1.38-1.08-2.07l2-1.14s.43.82,1.16,2C368,404.65,370.69,408.78,373.4,410.7Z"/>
              <path class="cls-23" d="M366.46,402.16l-2,1.18c-.32-.68-.68-1.38-1.08-2.07l2-1.14S365.73,401,366.46,402.16Z"/>
              <path class="cls-13" d="M367.6,398.76c.33.56-.76,1.8-2.43,2.76s-3.27,1.28-3.6.72.77-1.79,2.43-2.75S367.28,398.2,367.6,398.76Z"/>
              <path class="cls-23" d="M365.06,401.17a8.18,8.18,0,0,1-2.12.91,1.31,1.31,0,0,1-.63,0,.45.45,0,0,1-.33-.24.51.51,0,0,1,0-.4,2.81,2.81,0,0,1,.79-.93,7.83,7.83,0,0,1,2-1.22,6.22,6.22,0,0,1,1.11-.35,3.68,3.68,0,0,1,.58-.06c.18,0,.45,0,.5.23-.09-.18-.33-.15-.5-.14a3.58,3.58,0,0,0-.54.14,6.28,6.28,0,0,0-1,.42,10.29,10.29,0,0,0-1.87,1.24,2.65,2.65,0,0,0-.7.78.23.23,0,0,0,0,.16s0,.06.11.08a1.47,1.47,0,0,0,.51,0A13.45,13.45,0,0,0,365.06,401.17Z"/>
            </g>
            <g>
              <path class="cls-13" d="M366.48,415.5l-3.59,5.71a31.61,31.61,0,0,0-7.88-7.59c-.62-.43-1.27-.85-2-1.25l1.13-2s.79.5,2,1.18C358.73,413,363.17,415.2,366.48,415.5Z"/>
              <path class="cls-23" d="M356.19,411.58l-1.18,2c-.62-.43-1.27-.85-2-1.25l1.13-2S355,410.9,356.19,411.58Z"/>
              <path class="cls-13" d="M355.49,408.06c.56.33.23,1.94-.73,3.61s-2.2,2.75-2.76,2.43-.23-1.94.73-3.61S354.93,407.74,355.49,408.06Z"/>
              <path class="cls-23" d="M354.49,411.42a8.18,8.18,0,0,1-1.38,1.85,1.44,1.44,0,0,1-.53.35.45.45,0,0,1-.4,0,.54.54,0,0,1-.22-.34,2.93,2.93,0,0,1,.22-1.21,7.92,7.92,0,0,1,1.11-2,5.84,5.84,0,0,1,.79-.86,4,4,0,0,1,.47-.34c.15-.08.4-.21.55-.05-.17-.12-.36,0-.5.13a2.46,2.46,0,0,0-.4.39,5.43,5.43,0,0,0-.69.89,9.59,9.59,0,0,0-1,2,2.69,2.69,0,0,0-.22,1,.26.26,0,0,0,.07.14.15.15,0,0,0,.14,0,1.41,1.41,0,0,0,.43-.26A13.62,13.62,0,0,0,354.49,411.42Z"/>
            </g>
            <g>
              <path class="cls-13" d="M362.88,423.12l-.25,6.75A31.53,31.53,0,0,0,352,427.23c-.75-.06-1.53-.1-2.33-.1v-2.27s.92,0,2.33,0C354.92,424.83,359.87,424.52,362.88,423.12Z"/>
              <path class="cls-23" d="M352,424.87v2.36c-.75-.06-1.53-.1-2.33-.1v-2.27S350.6,424.9,352,424.87Z"/>
              <ellipse class="cls-13" cx="349.64" cy="425.66" rx="1.17" ry="3.48"/>
              <path class="cls-23" d="M350.46,425.58a8.18,8.18,0,0,1-.27,2.3,1.41,1.41,0,0,1-.28.56.47.47,0,0,1-.38.17.55.55,0,0,1-.35-.19,2.93,2.93,0,0,1-.42-1.15,7.85,7.85,0,0,1-.06-2.32,6.28,6.28,0,0,1,.26-1.14,3.65,3.65,0,0,1,.23-.54c.1-.14.25-.37.45-.31-.2,0-.29.2-.36.36a3.08,3.08,0,0,0-.16.54A6.89,6.89,0,0,0,349,425a10.46,10.46,0,0,0,.14,2.24,2.74,2.74,0,0,0,.32,1,.23.23,0,0,0,.13.08s.08,0,.13-.06a1.41,1.41,0,0,0,.25-.44A14.24,14.24,0,0,0,350.46,425.58Z"/>
            </g>
            <g>
              <path class="cls-13" d="M363.58,431.52l3.15,6a31.55,31.55,0,0,0-10.51,3c-.68.32-1.37.67-2.07,1.08l-1.14-2s.82-.43,2-1.16C357.53,437,361.67,434.24,363.58,431.52Z"/>
              <path class="cls-23" d="M355,438.47l1.18,2c-.68.32-1.37.67-2.07,1.08l-1.14-2S353.83,439.2,355,438.47Z"/>
              <path class="cls-13" d="M351.64,437.32c.56-.32,1.8.77,2.76,2.43s1.28,3.28.72,3.6-1.79-.76-2.75-2.43S351.08,437.65,351.64,437.32Z"/>
              <path class="cls-23" d="M354.05,439.87A8.56,8.56,0,0,1,355,442a1.41,1.41,0,0,1,0,.62.45.45,0,0,1-.24.34.55.55,0,0,1-.4,0,2.59,2.59,0,0,1-.93-.79,7.77,7.77,0,0,1-1.22-2,7.15,7.15,0,0,1-.35-1.11,3.8,3.8,0,0,1-.06-.58c0-.18,0-.45.23-.5-.18.08-.15.32-.14.49a3.41,3.41,0,0,0,.14.55,5.56,5.56,0,0,0,.43,1,10.07,10.07,0,0,0,1.23,1.87,3,3,0,0,0,.78.7.23.23,0,0,0,.16,0s.06-.05.08-.12a1.41,1.41,0,0,0,0-.5A13.15,13.15,0,0,0,354.05,439.87Z"/>
            </g>
            <g>
              <path class="cls-13" d="M368.38,438.45l5.71,3.59a31.61,31.61,0,0,0-7.59,7.88c-.43.61-.84,1.27-1.25,2l-2-1.14s.49-.78,1.17-2C365.88,446.2,368.08,441.76,368.38,438.45Z"/>
              <path class="cls-23" d="M364.46,448.74l2,1.18c-.43.61-.84,1.27-1.25,2l-2-1.14S363.78,450,364.46,448.74Z"/>
              <path class="cls-13" d="M361,449.44c.32-.56,1.93-.23,3.6.73s2.75,2.19,2.43,2.75-1.94.24-3.6-.73S360.62,450,361,449.44Z"/>
              <path class="cls-23" d="M364.3,450.44a8,8,0,0,1,1.85,1.38,1.4,1.4,0,0,1,.35.52.47.47,0,0,1,0,.41.52.52,0,0,1-.34.21,2.71,2.71,0,0,1-1.2-.21,7.82,7.82,0,0,1-2.05-1.11,7.13,7.13,0,0,1-.86-.79,4,4,0,0,1-.34-.47c-.08-.16-.21-.4-.05-.55-.12.17,0,.36.13.5a3.66,3.66,0,0,0,.39.4,6.61,6.61,0,0,0,.89.69,10.1,10.1,0,0,0,2,1,2.89,2.89,0,0,0,1,.22.26.26,0,0,0,.14-.07.16.16,0,0,0,0-.14A1.45,1.45,0,0,0,366,452,12.81,12.81,0,0,0,364.3,450.44Z"/>
            </g>
            <g>
              <path class="cls-13" d="M376,442.05l6.74.25a31.53,31.53,0,0,0-2.64,10.62c-.06.75-.1,1.52-.1,2.33h-2.27s0-.93,0-2.33C377.71,450,377.4,445.06,376,442.05Z"/>
              <path class="cls-23" d="M377.75,452.92h2.36c-.06.75-.1,1.52-.1,2.33h-2.27S377.78,454.32,377.75,452.92Z"/>
              <path class="cls-13" d="M375.06,455.28c0-.65,1.56-1.17,3.48-1.17s3.48.52,3.48,1.17-1.56,1.17-3.48,1.17S375.06,455.93,375.06,455.28Z"/>
              <path class="cls-23" d="M378.46,454.47a8.18,8.18,0,0,1,2.3.27,1.41,1.41,0,0,1,.56.28.43.43,0,0,1,.17.37.53.53,0,0,1-.19.36,2.76,2.76,0,0,1-1.15.41,7.85,7.85,0,0,1-2.32.06,6.26,6.26,0,0,1-1.14-.25,3.59,3.59,0,0,1-.53-.24c-.15-.09-.38-.24-.32-.45,0,.2.21.29.36.37a3.06,3.06,0,0,0,.54.15,7.07,7.07,0,0,0,1.11.16,10.46,10.46,0,0,0,2.24-.14,2.87,2.87,0,0,0,1-.33.2.2,0,0,0,.08-.13s0-.07-.06-.12a1.41,1.41,0,0,0-.44-.25A13.18,13.18,0,0,0,378.46,454.47Z"/>
            </g>
            <g>
              <path class="cls-13" d="M384.4,441.35l6-3.15a31.61,31.61,0,0,0,3,10.51q.48,1,1.08,2.07l-2,1.13s-.43-.81-1.16-2C389.86,447.39,387.12,443.26,384.4,441.35Z"/>
              <path class="cls-23" d="M391.35,449.89l2-1.18q.48,1,1.08,2.07l-2,1.13S392.08,451.1,391.35,449.89Z"/>
              <path class="cls-13" d="M390.2,453.28c-.32-.56.77-1.79,2.43-2.75s3.28-1.29,3.61-.73-.77,1.8-2.43,2.76S390.53,453.84,390.2,453.28Z"/>
              <path class="cls-23" d="M392.75,450.88a7.88,7.88,0,0,1,2.12-.92,1.61,1.61,0,0,1,.63,0,.48.48,0,0,1,.33.24.58.58,0,0,1,0,.41,2.87,2.87,0,0,1-.78.93,8.32,8.32,0,0,1-2,1.22,7.12,7.12,0,0,1-1.11.34,2.79,2.79,0,0,1-.58.07c-.18,0-.45,0-.5-.24.08.19.32.15.49.14a3.39,3.39,0,0,0,.55-.13,7.33,7.33,0,0,0,1-.43,10.12,10.12,0,0,0,1.87-1.24,2.82,2.82,0,0,0,.7-.78.2.2,0,0,0,0-.15s0-.06-.11-.08a1.74,1.74,0,0,0-.51,0A13.5,13.5,0,0,0,392.75,450.88Z"/>
            </g>
            <g>
              <path class="cls-13" d="M391.33,436.54l3.59-5.71a31.41,31.41,0,0,0,7.88,7.59c.62.43,1.27.85,2,1.25l-1.14,2s-.78-.49-2-1.17C399.08,439.05,394.64,436.84,391.33,436.54Z"/>
              <path class="cls-23" d="M401.62,440.47l1.18-2.05c.62.43,1.27.85,2,1.25l-1.14,2S402.85,441.15,401.62,440.47Z"/>
              <path class="cls-13" d="M402.32,444c-.56-.32-.23-1.93.73-3.6s2.19-2.75,2.75-2.43.24,1.94-.72,3.6S402.88,444.3,402.32,444Z"/>
              <path class="cls-23" d="M403.32,440.63a8,8,0,0,1,1.38-1.86,1.53,1.53,0,0,1,.52-.35.47.47,0,0,1,.41.05.55.55,0,0,1,.22.34,2.92,2.92,0,0,1-.22,1.2,8.15,8.15,0,0,1-1.11,2.05,7,7,0,0,1-.79.85,3.19,3.19,0,0,1-.47.35c-.16.08-.4.2-.55,0,.17.12.36,0,.5-.12a2.46,2.46,0,0,0,.4-.39,5.89,5.89,0,0,0,.69-.89,10.18,10.18,0,0,0,1-2,2.89,2.89,0,0,0,.22-1,.23.23,0,0,0-.07-.13.15.15,0,0,0-.14,0,1.37,1.37,0,0,0-.44.26A12.81,12.81,0,0,0,403.32,440.63Z"/>
            </g>
            <g>
              <path class="cls-13" d="M394.93,428.92l.25-6.74a31.39,31.39,0,0,0,10.62,2.63c.75.07,1.52.1,2.33.1v2.27s-.92,0-2.33,0C402.89,427.22,397.94,427.53,394.93,428.92Z"/>
              <path class="cls-23" d="M405.8,427.18v-2.37c.75.07,1.52.1,2.33.1v2.27S407.21,427.15,405.8,427.18Z"/>
              <ellipse class="cls-13" cx="408.16" cy="426.38" rx="1.17" ry="3.48"/>
              <path class="cls-23" d="M407.35,426.46a8.15,8.15,0,0,1,.27-2.29,1.44,1.44,0,0,1,.28-.57.48.48,0,0,1,.37-.17.58.58,0,0,1,.36.19,2.86,2.86,0,0,1,.41,1.15,7.92,7.92,0,0,1,.06,2.33,6.26,6.26,0,0,1-.25,1.14,3.59,3.59,0,0,1-.24.53c-.09.15-.24.38-.45.32.21,0,.3-.21.37-.36a3.32,3.32,0,0,0,.15-.54,6,6,0,0,0,.16-1.12,10.41,10.41,0,0,0-.14-2.23,2.62,2.62,0,0,0-.33-1s-.09-.09-.12-.09a.17.17,0,0,0-.13.06,1.6,1.6,0,0,0-.25.45A13.07,13.07,0,0,0,407.35,426.46Z"/>
            </g>
            <g>
              <path class="cls-13" d="M394.23,420.52l-3.15-6a31.61,31.61,0,0,0,10.51-3q1-.48,2.07-1.08l1.13,2s-.81.44-2,1.17C400.27,415.07,396.14,417.81,394.23,420.52Z"/>
              <path class="cls-23" d="M402.77,413.58l-1.18-2.05q1-.48,2.07-1.08l1.13,2S404,412.85,402.77,413.58Z"/>
              <path class="cls-13" d="M406.16,414.72c-.56.33-1.79-.76-2.75-2.43s-1.29-3.28-.73-3.6,1.8.77,2.76,2.43S406.72,414.4,406.16,414.72Z"/>
              <path class="cls-23" d="M403.76,412.18a7.88,7.88,0,0,1-.92-2.12,1.64,1.64,0,0,1,0-.63.51.51,0,0,1,.24-.33.53.53,0,0,1,.41,0,3,3,0,0,1,.93.79,8,8,0,0,1,1.22,2,6.29,6.29,0,0,1,.34,1.12,2.79,2.79,0,0,1,.07.58c0,.17,0,.45-.24.5.19-.09.16-.33.14-.5a3.53,3.53,0,0,0-.13-.54,7.33,7.33,0,0,0-.43-1,9.79,9.79,0,0,0-1.24-1.87,2.71,2.71,0,0,0-.78-.71.26.26,0,0,0-.15,0,.19.19,0,0,0-.08.12,1.47,1.47,0,0,0,0,.51A12.51,12.51,0,0,0,403.76,412.18Z"/>
            </g>
            <g>
              <path class="cls-13" d="M389.43,413.6,383.71,410a31.41,31.41,0,0,0,7.59-7.88c.43-.62.85-1.28,1.26-2l2,1.13s-.49.79-1.17,2C391.93,405.85,389.72,410.29,389.43,413.6Z"/>
              <path class="cls-23" d="M393.35,403.31l-2.05-1.18c.43-.62.85-1.28,1.26-2l2,1.13S394,402.08,393.35,403.31Z"/>
              <path class="cls-13" d="M396.86,402.61c-.32.56-1.93.23-3.6-.73s-2.75-2.2-2.43-2.76,1.94-.23,3.6.73S397.19,402.05,396.86,402.61Z"/>
              <path class="cls-23" d="M393.51,401.61a8,8,0,0,1-1.86-1.38,1.58,1.58,0,0,1-.35-.53.47.47,0,0,1,.05-.41.54.54,0,0,1,.34-.21,2.89,2.89,0,0,1,1.2.22,7.69,7.69,0,0,1,2.05,1.11,6.29,6.29,0,0,1,.85.78,3.27,3.27,0,0,1,.35.48c.08.15.21.4.05.55.12-.17,0-.36-.13-.5a2.46,2.46,0,0,0-.39-.4,5.89,5.89,0,0,0-.89-.69,9.66,9.66,0,0,0-2-1,2.47,2.47,0,0,0-1-.22.21.21,0,0,0-.14.07s0,.06,0,.14a1.33,1.33,0,0,0,.26.43A13.62,13.62,0,0,0,393.51,401.61Z"/>
            </g>
            <path class="cls-23" d="M396.39,426a17.49,17.49,0,1,1-7-14A17.49,17.49,0,0,1,396.39,426Z"/>
            <path class="cls-13" d="M392.92,422.56a12.4,12.4,0,1,1-3.51-10.51A17.49,17.49,0,0,1,392.92,422.56Z"/>
            <path class="cls-23" d="M377.74,417.65a5,5,0,1,1-5-5A5,5,0,0,1,377.74,417.65Z"/>
            <path class="cls-23" d="M368.73,428.48a1.92,1.92,0,1,1-2.46-1.14A1.93,1.93,0,0,1,368.73,428.48Z"/>
            <path class="cls-23" d="M393.18,427.49a3.27,3.27,0,1,1-4.19-1.95A3.26,3.26,0,0,1,393.18,427.49Z"/>
          </g>
          <g>
            <g>
              <path class="cls-13" d="M90.06,220.48l-5-.19a23.65,23.65,0,0,0,2-7.91c0-.55.07-1.13.07-1.73h1.69s0,.69,0,1.73C88.79,214.55,89,218.23,90.06,220.48Z"/>
              <path class="cls-23" d="M88.76,212.38H87c0-.55.07-1.13.07-1.73h1.69S88.74,211.34,88.76,212.38Z"/>
              <path class="cls-13" d="M90.76,210.62c0,.48-1.16.87-2.59.87s-2.59-.39-2.59-.87,1.16-.87,2.59-.87S90.76,210.14,90.76,210.62Z"/>
              <path class="cls-23" d="M88.23,211.23a6.16,6.16,0,0,1-1.71-.2,1.11,1.11,0,0,1-.42-.21.34.34,0,0,1-.13-.28.39.39,0,0,1,.14-.26A2,2,0,0,1,87,210a5.9,5.9,0,0,1,1.73-.05,5,5,0,0,1,.85.19,2,2,0,0,1,.39.18c.12.07.29.18.24.33,0-.15-.15-.21-.27-.27a2.64,2.64,0,0,0-.4-.12,4.6,4.6,0,0,0-.83-.11,8.33,8.33,0,0,0-1.66.1,2.07,2.07,0,0,0-.75.25.13.13,0,0,0-.06.09s0,.06,0,.09a1.06,1.06,0,0,0,.33.19A11,11,0,0,0,88.23,211.23Z"/>
            </g>
            <g>
              <path class="cls-13" d="M83.8,221l-4.44,2.34a23.49,23.49,0,0,0-2.25-7.82c-.24-.51-.51-1-.81-1.54l1.47-.85s.32.61.86,1.51C79.74,216.5,81.78,219.57,83.8,221Z"/>
              <path class="cls-23" d="M78.63,214.64l-1.52.88c-.24-.51-.51-1-.81-1.54l1.47-.85S78.09,213.74,78.63,214.64Z"/>
              <ellipse class="cls-13" cx="77.24" cy="213.41" rx="2.59" ry="0.87" transform="matrix(0.87, -0.5, 0.5, 0.87, -96.36, 67.22)"/>
              <path class="cls-23" d="M77.59,213.9a5.72,5.72,0,0,1-1.58.68.88.88,0,0,1-.46,0,.32.32,0,0,1-.25-.18.39.39,0,0,1,0-.3,2.2,2.2,0,0,1,.58-.69,6.27,6.27,0,0,1,1.48-.91,6.13,6.13,0,0,1,.83-.26,3,3,0,0,1,.43,0c.13,0,.34,0,.37.17-.06-.14-.24-.11-.36-.1a2.73,2.73,0,0,0-.41.1,4.41,4.41,0,0,0-.78.32,7.44,7.44,0,0,0-1.39.92,2.15,2.15,0,0,0-.52.58.14.14,0,0,0,0,.11s0,0,.09.06a1,1,0,0,0,.38,0A10.62,10.62,0,0,0,77.59,213.9Z"/>
            </g>
            <g>
              <path class="cls-13" d="M78.65,224.57,76,228.83a23.55,23.55,0,0,0-5.87-5.66q-.69-.48-1.47-.93l.85-1.46s.58.37,1.5.87C72.88,222.71,76.19,224.35,78.65,224.57Z"/>
              <path class="cls-23" d="M71,221.65l-.88,1.52q-.69-.48-1.47-.93l.85-1.46S70.07,221.15,71,221.65Z"/>
              <path class="cls-13" d="M70.47,219c.41.24.17,1.44-.55,2.68s-1.63,2.05-2,1.81-.17-1.45.54-2.68S70.05,218.8,70.47,219Z"/>
              <path class="cls-23" d="M69.72,221.53a5.94,5.94,0,0,1-1,1.38,1.21,1.21,0,0,1-.39.26.35.35,0,0,1-.31,0,.4.4,0,0,1-.16-.25A2.16,2.16,0,0,1,68,222a5.91,5.91,0,0,1,.83-1.52,5,5,0,0,1,.58-.64,2.9,2.9,0,0,1,.36-.25c.11-.07.29-.16.4,0-.12-.09-.26,0-.37.09a4.11,4.11,0,0,0-.3.29,5.63,5.63,0,0,0-.51.67,7.14,7.14,0,0,0-.74,1.49,2.23,2.23,0,0,0-.17.76.2.2,0,0,0,.06.11.11.11,0,0,0,.1,0,1,1,0,0,0,.33-.19A10.38,10.38,0,0,0,69.72,221.53Z"/>
            </g>
            <g>
              <path class="cls-13" d="M76,230.25l-.19,5a23.35,23.35,0,0,0-7.9-2c-.56-.05-1.14-.08-1.74-.08v-1.69s.69,0,1.74,0C70,231.52,73.73,231.29,76,230.25Z"/>
              <path class="cls-23" d="M67.88,231.55v1.76c-.56-.05-1.14-.08-1.74-.08v-1.69S66.83,231.57,67.88,231.55Z"/>
              <path class="cls-13" d="M66.12,229.54c.48,0,.87,1.16.87,2.6s-.39,2.59-.87,2.59-.88-1.16-.88-2.59S65.63,229.54,66.12,229.54Z"/>
              <path class="cls-23" d="M66.72,232.08a6.25,6.25,0,0,1-.2,1.71,1,1,0,0,1-.21.42.34.34,0,0,1-.28.12.38.38,0,0,1-.26-.14,2.1,2.1,0,0,1-.31-.85,5.2,5.2,0,0,1,.14-2.58,2.87,2.87,0,0,1,.18-.4c.07-.11.18-.28.34-.23-.16,0-.22.15-.28.26a3,3,0,0,0-.11.4,5.93,5.93,0,0,0-.12.83,7.78,7.78,0,0,0,.11,1.67A1.85,1.85,0,0,0,66,234a.28.28,0,0,0,.09.07.14.14,0,0,0,.1,0,1.14,1.14,0,0,0,.18-.33A9.8,9.8,0,0,0,66.72,232.08Z"/>
            </g>
            <g>
              <path class="cls-13" d="M76.49,236.5l2.35,4.44A23.58,23.58,0,0,0,71,243.19c-.51.24-1,.51-1.54.81l-.85-1.46s.61-.33,1.51-.87C72,240.56,75.07,238.52,76.49,236.5Z"/>
              <path class="cls-23" d="M70.13,241.67l.88,1.52c-.51.24-1,.51-1.54.81l-.85-1.46S69.23,242.21,70.13,241.67Z"/>
              <path class="cls-13" d="M67.6,240.82c.42-.24,1.34.57,2.05,1.81s1,2.44.55,2.68-1.34-.57-2.06-1.81S67.19,241.06,67.6,240.82Z"/>
              <path class="cls-23" d="M69.39,242.71a6.21,6.21,0,0,1,.69,1.58,1.19,1.19,0,0,1,0,.47.39.39,0,0,1-.18.25.44.44,0,0,1-.3,0,2.16,2.16,0,0,1-.7-.59A5.75,5.75,0,0,1,68,243a4.6,4.6,0,0,1-.26-.82,2.2,2.2,0,0,1,0-.44c0-.13,0-.33.17-.37-.13.06-.11.24-.1.37a2.6,2.6,0,0,0,.1.4,5.32,5.32,0,0,0,.32.78,7.61,7.61,0,0,0,.92,1.39,1.86,1.86,0,0,0,.58.52.17.17,0,0,0,.12,0,.1.1,0,0,0,0-.08,1,1,0,0,0,0-.38A9.7,9.7,0,0,0,69.39,242.71Z"/>
            </g>
            <g>
              <path class="cls-13" d="M80.07,241.66l4.25,2.67a23.45,23.45,0,0,0-5.65,5.86q-.48.69-.93,1.47l-1.47-.84s.37-.59.87-1.51C78.2,247.42,79.84,244.12,80.07,241.66Z"/>
              <path class="cls-23" d="M77.14,249.31l1.53.88q-.48.69-.93,1.47l-1.47-.84S76.64,250.23,77.14,249.31Z"/>
              <path class="cls-13" d="M74.53,249.84c.24-.42,1.44-.18,2.68.54S79.26,252,79,252.43s-1.44.18-2.68-.54S74.29,250.26,74.53,249.84Z"/>
              <path class="cls-23" d="M77,250.58a6.21,6.21,0,0,1,1.38,1,1.11,1.11,0,0,1,.26.39.4.4,0,0,1,0,.3.39.39,0,0,1-.26.16,2,2,0,0,1-.9-.16,5.88,5.88,0,0,1-1.52-.82,5.05,5.05,0,0,1-.63-.59,2.11,2.11,0,0,1-.26-.35c-.06-.12-.16-.3,0-.41-.09.12,0,.26.1.37a1.64,1.64,0,0,0,.29.3,4.14,4.14,0,0,0,.66.51,7.7,7.7,0,0,0,1.49.75,2,2,0,0,0,.77.16s.09,0,.1-.05,0,0,0-.11a1.08,1.08,0,0,0-.19-.32A11.3,11.3,0,0,0,77,250.58Z"/>
            </g>
            <g>
              <path class="cls-13" d="M85.74,244.33l5,.19a23.36,23.36,0,0,0-2,7.91c0,.55-.07,1.13-.07,1.73H87s0-.68,0-1.73C87,250.26,86.78,246.58,85.74,244.33Z"/>
              <path class="cls-23" d="M87,252.43H88.8c0,.55-.07,1.13-.07,1.73H87S87.06,253.48,87,252.43Z"/>
              <path class="cls-13" d="M85,254.19c0-.48,1.16-.87,2.59-.87s2.59.39,2.59.87-1.16.87-2.59.87S85,254.67,85,254.19Z"/>
              <path class="cls-23" d="M87.57,253.58a6.25,6.25,0,0,1,1.71.2,1.11,1.11,0,0,1,.42.21.37.37,0,0,1,.13.28.4.4,0,0,1-.15.26,1.92,1.92,0,0,1-.85.31,5.92,5.92,0,0,1-1.73,0,5,5,0,0,1-.85-.19,2.35,2.35,0,0,1-.4-.18c-.11-.07-.28-.18-.23-.33,0,.15.15.22.26.27a2.77,2.77,0,0,0,.41.12,4.6,4.6,0,0,0,.83.11,7.68,7.68,0,0,0,1.66-.1,2.28,2.28,0,0,0,.75-.24.18.18,0,0,0,.06-.1.14.14,0,0,0,0-.09,1,1,0,0,0-.33-.19A10.61,10.61,0,0,0,87.57,253.58Z"/>
            </g>
            <g>
              <path class="cls-13" d="M92,243.81l4.44-2.34a23.38,23.38,0,0,0,2.26,7.82c.24.51.5,1,.8,1.55l-1.46.84s-.32-.61-.86-1.51C96.06,248.31,94,245.24,92,243.81Z"/>
              <path class="cls-23" d="M97.17,250.17l1.52-.88c.24.51.5,1,.8,1.55l-1.46.84S97.71,251.07,97.17,250.17Z"/>
              <path class="cls-13" d="M96.31,252.7c-.24-.42.57-1.34,1.81-2s2.44-1,2.68-.54-.57,1.33-1.81,2S96.55,253.12,96.31,252.7Z"/>
              <path class="cls-23" d="M98.2,250.91a6,6,0,0,1,1.58-.68.93.93,0,0,1,.47,0,.32.32,0,0,1,.25.18.39.39,0,0,1,0,.3,2.22,2.22,0,0,1-.59.69,6.21,6.21,0,0,1-1.47.91,6.13,6.13,0,0,1-.83.26,3.13,3.13,0,0,1-.43,0c-.14,0-.34,0-.38-.17.07.14.25.11.37.1a2,2,0,0,0,.41-.1,5.63,5.63,0,0,0,.77-.31,7.33,7.33,0,0,0,1.39-.93,2,2,0,0,0,.53-.58s0-.09,0-.11,0,0-.08-.06a1,1,0,0,0-.38,0A11.1,11.1,0,0,0,98.2,250.91Z"/>
            </g>
            <g>
              <path class="cls-13" d="M97.15,240.24,99.82,236a23.4,23.4,0,0,0,5.87,5.65c.46.32,1,.63,1.46.93l-.84,1.46s-.58-.36-1.5-.87C102.92,242.1,99.61,240.46,97.15,240.24Z"/>
              <path class="cls-23" d="M104.81,243.16l.88-1.52c.46.32,1,.63,1.46.93l-.84,1.46S105.73,243.67,104.81,243.16Z"/>
              <path class="cls-13" d="M105.33,245.77c-.42-.24-.17-1.44.54-2.68s1.64-2.05,2-1.8.18,1.44-.54,2.68S105.75,246,105.33,245.77Z"/>
              <path class="cls-23" d="M106.08,243.28a5.94,5.94,0,0,1,1-1.38,1.11,1.11,0,0,1,.39-.26.35.35,0,0,1,.31,0,.45.45,0,0,1,.16.25,2.33,2.33,0,0,1-.16.9,6.23,6.23,0,0,1-.83,1.52,5.09,5.09,0,0,1-.59.64,3.18,3.18,0,0,1-.35.26c-.12.06-.3.15-.41,0,.13.09.27,0,.37-.09a2.76,2.76,0,0,0,.3-.29,6.55,6.55,0,0,0,.52-.66,7.74,7.74,0,0,0,.74-1.5,2,2,0,0,0,.16-.76.19.19,0,0,0,0-.11.11.11,0,0,0-.1,0,1.12,1.12,0,0,0-.33.19A9.62,9.62,0,0,0,106.08,243.28Z"/>
            </g>
            <g>
              <path class="cls-13" d="M99.83,234.56l.18-5a23.5,23.5,0,0,0,7.91,2c.56,0,1.14.07,1.74.07v1.69s-.69,0-1.74,0C105.75,233.3,102.07,233.52,99.83,234.56Z"/>
              <path class="cls-23" d="M107.92,233.26v-1.75c.56,0,1.14.07,1.74.07v1.69S109,233.24,107.92,233.26Z"/>
              <path class="cls-13" d="M109.68,235.27c-.48,0-.87-1.16-.87-2.6s.39-2.59.87-2.59.87,1.16.87,2.59S110.16,235.27,109.68,235.27Z"/>
              <path class="cls-23" d="M109.08,232.73a5.87,5.87,0,0,1,.19-1.71,1.38,1.38,0,0,1,.21-.42.37.37,0,0,1,.28-.12.38.38,0,0,1,.27.14,2.24,2.24,0,0,1,.31.86,5.9,5.9,0,0,1,0,1.73,4.86,4.86,0,0,1-.19.84,2.83,2.83,0,0,1-.17.4c-.07.11-.18.28-.34.24.15,0,.22-.16.27-.27a2,2,0,0,0,.12-.4,4.72,4.72,0,0,0,.11-.83,7.18,7.18,0,0,0-.1-1.67,2,2,0,0,0-.24-.74.23.23,0,0,0-.1-.07.14.14,0,0,0-.09,0,1.15,1.15,0,0,0-.19.33A9.79,9.79,0,0,0,109.08,232.73Z"/>
            </g>
            <g>
              <path class="cls-13" d="M99.31,228.31,97,223.87a23.58,23.58,0,0,0,7.83-2.25c.5-.24,1-.51,1.54-.81l.84,1.46s-.61.33-1.5.87C103.81,224.25,100.73,226.29,99.31,228.31Z"/>
              <path class="cls-23" d="M105.67,223.14l-.88-1.52c.5-.24,1-.51,1.54-.81l.84,1.46S106.56,222.6,105.67,223.14Z"/>
              <path class="cls-13" d="M108.19,224c-.41.24-1.33-.57-2-1.81s-1-2.44-.54-2.68,1.34.57,2.05,1.81S108.61,223.75,108.19,224Z"/>
              <path class="cls-23" d="M106.4,222.1a5.85,5.85,0,0,1-.68-1.58,1.19,1.19,0,0,1,0-.47.39.39,0,0,1,.18-.25.51.51,0,0,1,.3,0,2.16,2.16,0,0,1,.7.59,5.75,5.75,0,0,1,.9,1.48,4.88,4.88,0,0,1,.26.82,3.29,3.29,0,0,1,0,.44c0,.13,0,.33-.18.37.14-.06.12-.24.11-.37a2.6,2.6,0,0,0-.1-.4,5.32,5.32,0,0,0-.32-.78,8.17,8.17,0,0,0-.92-1.39,2,2,0,0,0-.58-.52.17.17,0,0,0-.12,0s0,0-.06.09a1.17,1.17,0,0,0,0,.37A9.66,9.66,0,0,0,106.4,222.1Z"/>
            </g>
            <g>
              <path class="cls-13" d="M95.73,223.15l-4.25-2.67a23.45,23.45,0,0,0,5.65-5.86q.48-.69.93-1.47l1.47.84s-.37.59-.88,1.51C97.6,217.39,96,220.69,95.73,223.15Z"/>
              <path class="cls-23" d="M98.65,215.5l-1.52-.88q.48-.69.93-1.47l1.47.84S99.16,214.58,98.65,215.5Z"/>
              <path class="cls-13" d="M101.27,215c-.24.42-1.44.18-2.68-.54s-2-1.63-1.81-2.05,1.44-.17,2.68.54S101.51,214.56,101.27,215Z"/>
              <path class="cls-23" d="M98.77,214.23a5.71,5.71,0,0,1-1.38-1,1.11,1.11,0,0,1-.26-.39.33.33,0,0,1,0-.3.39.39,0,0,1,.26-.16,2,2,0,0,1,.89.16,5.72,5.72,0,0,1,1.52.82,5.15,5.15,0,0,1,.64.59,2.88,2.88,0,0,1,.26.35c.06.12.15.3,0,.41.09-.12,0-.26-.09-.37a2.72,2.72,0,0,0-.29-.3,5.29,5.29,0,0,0-.66-.51,7.51,7.51,0,0,0-1.5-.75,2,2,0,0,0-.76-.16s-.09,0-.1,0,0,.05,0,.11a1.08,1.08,0,0,0,.19.32A9.69,9.69,0,0,0,98.77,214.23Z"/>
            </g>
            <path class="cls-23" d="M100.92,232.41A13,13,0,1,1,95.72,222,13,13,0,0,1,100.92,232.41Z"/>
            <path class="cls-13" d="M98.33,229.82a13,13,0,0,1-20.84,10.41A13,13,0,0,1,95.72,222,13,13,0,0,1,98.33,229.82Z"/>
            <path class="cls-23" d="M87,226.18a3.72,3.72,0,1,1-3.72-3.73A3.72,3.72,0,0,1,87,226.18Z"/>
            <path class="cls-23" d="M80.33,234.24a1.43,1.43,0,0,1-2.69,1,1.43,1.43,0,1,1,2.69-1Z"/>
            <path class="cls-23" d="M98.53,233.5a2.43,2.43,0,1,1-3.12-1.45A2.44,2.44,0,0,1,98.53,233.5Z"/>
          </g>
          <g>
            <g>
              <path class="cls-13" d="M139.23,392.06l-7.24-.27a33.85,33.85,0,0,0,2.83-11.4c.07-.81.11-1.64.11-2.51h2.43s0,1,0,2.51C137.4,383.51,137.73,388.82,139.23,392.06Z"/>
              <path class="cls-23" d="M137.36,380.39h-2.54c.07-.81.11-1.64.11-2.51h2.43S137.33,378.88,137.36,380.39Z"/>
              <path class="cls-13" d="M140.24,377.85c0,.69-1.67,1.26-3.73,1.26s-3.74-.57-3.74-1.26,1.67-1.26,3.74-1.26S140.24,377.15,140.24,377.85Z"/>
              <path class="cls-23" d="M136.59,378.72a8.58,8.58,0,0,1-2.46-.29,1.45,1.45,0,0,1-.61-.3.49.49,0,0,1-.18-.4.61.61,0,0,1,.2-.38,3.22,3.22,0,0,1,1.24-.45,8.31,8.31,0,0,1,2.49-.06,6.17,6.17,0,0,1,1.22.27,4.23,4.23,0,0,1,.58.25c.16.11.4.26.34.49,0-.22-.22-.32-.39-.4a3.53,3.53,0,0,0-.58-.16,6.83,6.83,0,0,0-1.19-.17,11.4,11.4,0,0,0-2.41.15,3.06,3.06,0,0,0-1.07.35.24.24,0,0,0-.09.14s0,.08.07.13a1.42,1.42,0,0,0,.47.27A14.11,14.11,0,0,0,136.59,378.72Z"/>
            </g>
            <g>
              <path class="cls-13" d="M130.21,392.81l-6.4,3.38a33.91,33.91,0,0,0-3.25-11.29c-.34-.73-.73-1.47-1.16-2.22l2.11-1.22s.46.88,1.25,2.18C124.36,386.32,127.3,390.75,130.21,392.81Z"/>
              <path class="cls-23" d="M122.76,383.64l-2.2,1.26c-.34-.73-.73-1.47-1.16-2.22l2.11-1.22S122,382.34,122.76,383.64Z"/>
              <path class="cls-13" d="M124,380c.34.6-.82,1.93-2.61,3s-3.52,1.38-3.87.78.82-1.92,2.61-3S123.64,379.39,124,380Z"/>
              <path class="cls-23" d="M121.26,382.57a8.61,8.61,0,0,1-2.28,1,1.49,1.49,0,0,1-.67,0,.49.49,0,0,1-.36-.26.58.58,0,0,1,0-.43,3.11,3.11,0,0,1,.85-1,8.67,8.67,0,0,1,2.13-1.31,7.43,7.43,0,0,1,1.19-.37,3.29,3.29,0,0,1,.63-.07c.19,0,.48,0,.53.25-.09-.2-.35-.16-.53-.15a3.8,3.8,0,0,0-.58.15,6.43,6.43,0,0,0-1.12.46,11.24,11.24,0,0,0-2,1.32,3.22,3.22,0,0,0-.75.84.25.25,0,0,0,0,.17s0,.06.12.08a1.69,1.69,0,0,0,.55,0A14.48,14.48,0,0,0,121.26,382.57Z"/>
            </g>
            <g>
              <path class="cls-13" d="M122.78,398l-3.85,6.13a33.81,33.81,0,0,0-8.46-8.14c-.66-.47-1.37-.92-2.12-1.35l1.22-2.11s.84.53,2.17,1.26C114.46,395.27,119.23,397.64,122.78,398Z"/>
              <path class="cls-23" d="M111.74,393.75l-1.27,2.2c-.66-.47-1.37-.92-2.12-1.35l1.22-2.11S110.41,393,111.74,393.75Z"/>
              <path class="cls-13" d="M111,390c.6.35.25,2.08-.78,3.86s-2.36,3-3,2.61-.25-2.07.78-3.86S110.38,389.63,111,390Z"/>
              <path class="cls-23" d="M109.91,393.58a8.88,8.88,0,0,1-1.48,2,1.48,1.48,0,0,1-.56.37.5.5,0,0,1-.44,0,.55.55,0,0,1-.23-.37,3,3,0,0,1,.23-1.29,8.16,8.16,0,0,1,1.19-2.19,6.18,6.18,0,0,1,.85-.92,2.94,2.94,0,0,1,.5-.37c.17-.09.43-.23.59-.05-.18-.13-.38,0-.53.13a2.85,2.85,0,0,0-.43.42,6.07,6.07,0,0,0-.74.95,10.64,10.64,0,0,0-1.08,2.16,2.86,2.86,0,0,0-.23,1.1.24.24,0,0,0,.07.15.17.17,0,0,0,.15,0,1.67,1.67,0,0,0,.47-.28A14.79,14.79,0,0,0,109.91,393.58Z"/>
            </g>
            <g>
              <path class="cls-13" d="M118.92,406.15l-.27,7.23a34,34,0,0,0-11.4-2.83c-.81-.06-1.64-.1-2.51-.1V408s1,0,2.51,0C110.37,408,115.68,407.64,118.92,406.15Z"/>
              <path class="cls-23" d="M107.25,408v2.53c-.81-.06-1.64-.1-2.51-.1V408S105.74,408.05,107.25,408Z"/>
              <path class="cls-13" d="M104.71,405.13c.69,0,1.26,1.67,1.26,3.74s-.57,3.74-1.26,3.74-1.26-1.68-1.26-3.74S104,405.13,104.71,405.13Z"/>
              <path class="cls-23" d="M105.58,408.78a9,9,0,0,1-.28,2.47,1.64,1.64,0,0,1-.31.6.48.48,0,0,1-.4.19.58.58,0,0,1-.38-.21,3.23,3.23,0,0,1-.45-1.23,8.39,8.39,0,0,1-.06-2.5,7.39,7.39,0,0,1,.27-1.22,3.23,3.23,0,0,1,.26-.57c.1-.16.25-.41.48-.34-.22,0-.31.22-.39.38a3,3,0,0,0-.17.58,6.18,6.18,0,0,0-.16,1.2,10.72,10.72,0,0,0,.14,2.4,3,3,0,0,0,.35,1.07.22.22,0,0,0,.14.09s.08,0,.13-.06a1.47,1.47,0,0,0,.27-.48A13.89,13.89,0,0,0,105.58,408.78Z"/>
            </g>
            <g>
              <path class="cls-13" d="M119.67,415.16l3.38,6.41a33.66,33.66,0,0,0-11.28,3.24c-.74.35-1.48.73-2.23,1.17l-1.22-2.12s.88-.46,2.18-1.24C113.18,421,117.61,418.08,119.67,415.16Z"/>
              <path class="cls-23" d="M110.5,422.62l1.27,2.19c-.74.35-1.48.73-2.23,1.17l-1.22-2.12S109.2,423.4,110.5,422.62Z"/>
              <path class="cls-13" d="M106.85,421.39c.61-.35,1.93.82,3,2.61s1.38,3.51.78,3.86-1.92-.82-3-2.61S106.25,421.74,106.85,421.39Z"/>
              <path class="cls-23" d="M109.44,424.12a9,9,0,0,1,1,2.27,1.53,1.53,0,0,1,0,.68.5.5,0,0,1-.26.36.58.58,0,0,1-.43,0,3.09,3.09,0,0,1-1-.84,8.67,8.67,0,0,1-1.31-2.13,7.24,7.24,0,0,1-.37-1.2,4.2,4.2,0,0,1-.07-.62c0-.19,0-.48.25-.54-.2.09-.16.35-.15.53a3.92,3.92,0,0,0,.15.59,6.77,6.77,0,0,0,.46,1.12,10.7,10.7,0,0,0,1.33,2,2.93,2.93,0,0,0,.83.76.33.33,0,0,0,.17,0s.06-.05.08-.13a1.4,1.4,0,0,0,0-.54A15.17,15.17,0,0,0,109.44,424.12Z"/>
            </g>
            <g>
              <path class="cls-13" d="M124.82,422.6l6.14,3.85a33.74,33.74,0,0,0-8.15,8.46c-.46.66-.91,1.36-1.35,2.11l-2.11-1.22s.53-.84,1.26-2.16C122.13,430.91,124.5,426.15,124.82,422.6Z"/>
              <path class="cls-23" d="M120.61,433.64l2.2,1.27c-.46.66-.91,1.36-1.35,2.11l-2.11-1.22S119.88,435,120.61,433.64Z"/>
              <path class="cls-13" d="M116.84,434.39c.35-.6,2.08-.25,3.87.78s3,2.36,2.6,3-2.07.25-3.86-.78S116.49,435,116.84,434.39Z"/>
              <path class="cls-23" d="M120.44,435.47a8.66,8.66,0,0,1,2,1.48,1.54,1.54,0,0,1,.38.56.5.5,0,0,1,0,.44.59.59,0,0,1-.37.23,3.16,3.16,0,0,1-1.29-.23,8.61,8.61,0,0,1-2.19-1.19,7.41,7.41,0,0,1-.92-.85,3,3,0,0,1-.37-.51c-.09-.17-.23-.43-.05-.59-.13.18,0,.39.13.54a3.41,3.41,0,0,0,.42.43,8.36,8.36,0,0,0,.95.74,11.14,11.14,0,0,0,2.16,1.07,3.08,3.08,0,0,0,1.1.24.22.22,0,0,0,.15-.08s0-.07,0-.15a1.57,1.57,0,0,0-.28-.47A14,14,0,0,0,120.44,435.47Z"/>
            </g>
            <g>
              <path class="cls-13" d="M133,426.46l7.23.27a34,34,0,0,0-2.83,11.4c-.06.8-.1,1.64-.1,2.5h-2.44s0-1,0-2.5C134.83,435,134.5,429.69,133,426.46Z"/>
              <path class="cls-23" d="M134.88,438.13h2.53c-.06.8-.1,1.64-.1,2.5h-2.44S134.91,439.64,134.88,438.13Z"/>
              <path class="cls-13" d="M132,440.67c0-.7,1.68-1.26,3.74-1.26s3.74.56,3.74,1.26-1.68,1.25-3.74,1.25S132,441.36,132,440.67Z"/>
              <path class="cls-23" d="M135.65,439.79a9,9,0,0,1,2.46.29,1.57,1.57,0,0,1,.61.3.52.52,0,0,1,.18.4.63.63,0,0,1-.21.39,3.05,3.05,0,0,1-1.23.44,8.74,8.74,0,0,1-2.5.07,7.43,7.43,0,0,1-1.22-.28,3.18,3.18,0,0,1-.57-.25c-.16-.1-.41-.26-.34-.48,0,.21.22.31.38.39a4.23,4.23,0,0,0,.58.17,8.23,8.23,0,0,0,1.2.16,11.31,11.31,0,0,0,2.4-.15,2.81,2.81,0,0,0,1.07-.35.26.26,0,0,0,.1-.14.23.23,0,0,0-.07-.13,1.42,1.42,0,0,0-.47-.27A15.43,15.43,0,0,0,135.65,439.79Z"/>
            </g>
            <g>
              <path class="cls-13" d="M142,425.71l6.41-3.39a33.85,33.85,0,0,0,3.25,11.29c.34.73.72,1.47,1.16,2.22l-2.11,1.22s-.47-.88-1.25-2.17C147.88,432.2,144.94,427.76,142,425.71Z"/>
              <path class="cls-23" d="M149.48,434.88l2.2-1.27c.34.73.72,1.47,1.16,2.22l-2.11,1.22S150.26,436.17,149.48,434.88Z"/>
              <path class="cls-13" d="M148.25,438.52c-.35-.6.82-1.92,2.61-3s3.52-1.38,3.86-.78-.82,1.93-2.61,3S148.6,439.12,148.25,438.52Z"/>
              <path class="cls-23" d="M151,435.94a8.69,8.69,0,0,1,2.27-1,1.69,1.69,0,0,1,.68,0,.53.53,0,0,1,.36.26.58.58,0,0,1,0,.43,3.13,3.13,0,0,1-.84,1,8.63,8.63,0,0,1-2.13,1.3,6.4,6.4,0,0,1-1.2.37,3.18,3.18,0,0,1-.62.07c-.19,0-.48,0-.54-.25.09.2.35.16.53.15a3,3,0,0,0,.59-.14,9.08,9.08,0,0,0,1.12-.46,10.7,10.7,0,0,0,2-1.33,3,3,0,0,0,.76-.84.3.3,0,0,0,0-.16s0-.07-.13-.09a1.65,1.65,0,0,0-.54,0A14.43,14.43,0,0,0,151,435.94Z"/>
            </g>
            <g>
              <path class="cls-13" d="M149.46,420.55l3.85-6.13a33.94,33.94,0,0,0,8.46,8.15c.66.46,1.37.91,2.11,1.34L162.67,426s-.85-.53-2.17-1.26C157.77,423.24,153,420.87,149.46,420.55Z"/>
              <path class="cls-23" d="M160.5,424.76l1.27-2.19c.66.46,1.37.91,2.11,1.34L162.67,426S161.82,425.49,160.5,424.76Z"/>
              <path class="cls-13" d="M161.26,428.53c-.61-.34-.26-2.07.78-3.86s2.35-3,3-2.61.25,2.08-.78,3.87S161.86,428.88,161.26,428.53Z"/>
              <path class="cls-23" d="M162.33,424.93a8.88,8.88,0,0,1,1.48-2,1.52,1.52,0,0,1,.56-.37.5.5,0,0,1,.44,0,.62.62,0,0,1,.23.37,3.13,3.13,0,0,1-.23,1.29,8.67,8.67,0,0,1-1.19,2.2,7.41,7.41,0,0,1-.85.92,3.92,3.92,0,0,1-.51.37c-.17.09-.43.22-.59.05.18.13.39,0,.54-.14a3.35,3.35,0,0,0,.43-.41,7.66,7.66,0,0,0,.74-1,11.05,11.05,0,0,0,1.07-2.15,3.18,3.18,0,0,0,.24-1.11.35.35,0,0,0-.07-.15.18.18,0,0,0-.15,0,1.67,1.67,0,0,0-.47.28A14,14,0,0,0,162.33,424.93Z"/>
            </g>
            <g>
              <path class="cls-13" d="M153.32,412.37l.27-7.24A33.76,33.76,0,0,0,165,408c.8.07,1.64.11,2.5.11v2.43s-1,0-2.5,0C161.86,410.54,156.55,410.87,153.32,412.37Z"/>
              <path class="cls-23" d="M165,410.5V408c.8.07,1.64.11,2.5.11v2.43S166.5,410.46,165,410.5Z"/>
              <ellipse class="cls-13" cx="167.53" cy="409.65" rx="1.26" ry="3.74"/>
              <path class="cls-23" d="M166.65,409.73a9.07,9.07,0,0,1,.29-2.47,1.61,1.61,0,0,1,.3-.6.49.49,0,0,1,.4-.18.62.62,0,0,1,.39.2,3,3,0,0,1,.44,1.24,8.66,8.66,0,0,1,.07,2.49,7,7,0,0,1-.28,1.22,3.28,3.28,0,0,1-.25.58c-.1.16-.26.4-.48.33.21,0,.31-.21.39-.38a3.54,3.54,0,0,0,.17-.58,7.92,7.92,0,0,0,.16-1.19,11.4,11.4,0,0,0-.15-2.41,2.87,2.87,0,0,0-.35-1.07.26.26,0,0,0-.13-.09s-.08,0-.14.06a1.58,1.58,0,0,0-.27.48A14.9,14.9,0,0,0,166.65,409.73Z"/>
            </g>
            <g>
              <path class="cls-13" d="M152.57,403.35l-3.39-6.4a33.85,33.85,0,0,0,11.29-3.25c.73-.34,1.47-.73,2.22-1.16l1.22,2.11s-.88.46-2.17,1.24C159.06,397.5,154.62,400.44,152.57,403.35Z"/>
              <path class="cls-23" d="M161.74,395.89l-1.27-2.19c.73-.34,1.47-.73,2.22-1.16l1.22,2.11S163,395.11,161.74,395.89Z"/>
              <path class="cls-13" d="M165.38,397.13c-.6.34-1.92-.82-3-2.61s-1.38-3.52-.78-3.87,1.93.82,3,2.61S166,396.78,165.38,397.13Z"/>
              <path class="cls-23" d="M162.8,394.4a8.41,8.41,0,0,1-1-2.28,1.64,1.64,0,0,1,0-.67.49.49,0,0,1,.26-.36.59.59,0,0,1,.43,0,3.15,3.15,0,0,1,1,.85,8.45,8.45,0,0,1,1.3,2.13,6.88,6.88,0,0,1,.38,1.19,4.34,4.34,0,0,1,.06.63c0,.18,0,.48-.25.53.2-.09.16-.35.15-.53a2.89,2.89,0,0,0-.14-.58,8.49,8.49,0,0,0-.46-1.12,10.77,10.77,0,0,0-1.33-2,3.07,3.07,0,0,0-.84-.75.23.23,0,0,0-.16,0s-.07.05-.09.12a1.71,1.71,0,0,0,0,.55A14.43,14.43,0,0,0,162.8,394.4Z"/>
            </g>
            <g>
              <path class="cls-13" d="M147.41,395.92l-6.13-3.86a33.78,33.78,0,0,0,8.15-8.45c.46-.67.91-1.37,1.34-2.12l2.11,1.22s-.53.84-1.26,2.17C150.1,387.6,147.73,392.37,147.41,395.92Z"/>
              <path class="cls-23" d="M151.62,384.88l-2.19-1.27c.46-.67.91-1.37,1.34-2.12l2.11,1.22S152.35,383.55,151.62,384.88Z"/>
              <ellipse class="cls-13" cx="152.16" cy="382.25" rx="1.26" ry="3.74" transform="translate(-254.96 322.89) rotate(-60)"/>
              <path class="cls-23" d="M151.8,383.05a8.71,8.71,0,0,1-2-1.48,1.56,1.56,0,0,1-.37-.57.54.54,0,0,1,0-.44.6.6,0,0,1,.37-.22,3,3,0,0,1,1.29.23,8.37,8.37,0,0,1,2.2,1.19,7.34,7.34,0,0,1,.92.84,6,6,0,0,1,.37.51c.09.17.22.43,0,.59.13-.18,0-.38-.14-.53a3.39,3.39,0,0,0-.41-.44,7.66,7.66,0,0,0-1-.74,11.05,11.05,0,0,0-2.15-1.07,2.9,2.9,0,0,0-1.11-.23.21.21,0,0,0-.14.07s0,.07,0,.15a1.67,1.67,0,0,0,.28.47A14.16,14.16,0,0,0,151.8,383.05Z"/>
            </g>
            <path class="cls-23" d="M154.89,409.26a18.77,18.77,0,1,1-7.49-15A18.77,18.77,0,0,1,154.89,409.26Z"/>
            <path class="cls-13" d="M151.17,405.53a18.77,18.77,0,0,1-30,15,18.77,18.77,0,0,1,26.28-26.28A18.61,18.61,0,0,1,151.17,405.53Z"/>
            <path class="cls-23" d="M134.87,400.27a5.37,5.37,0,1,1-5.37-5.37A5.36,5.36,0,0,1,134.87,400.27Z"/>
            <path class="cls-23" d="M125.2,411.9a2.06,2.06,0,1,1-2.65-1.23A2.06,2.06,0,0,1,125.2,411.9Z"/>
            <path class="cls-23" d="M151.44,410.83a3.51,3.51,0,1,1-4.5-2.09A3.5,3.5,0,0,1,151.44,410.83Z"/>
          </g>
        </g>
      </g>
    </g>
  </g>
</svg>
