<svg id="Layer_1" data-name="Layer 1" xmlns="http://www.w3.org/2000/svg" width="506.36" height="661.95" viewBox="0 0 506.36 661.95">
  <defs>
    <style>
      .cls-1 {
        fill: #1e234f;
      }

      .cls-2 {
        fill: #ccc;
      }

      .cls-3 {
        fill: #999;
      }

      .cls-4 {
        fill: #d9d9d9;
      }

      .cls-5 {
        fill: red;
      }

      .cls-6 {
        fill: #fff;
      }

      .cls-7 {
        fill: #1a1a1a;
      }
    </style>
  </defs>
  <g>
    <g>
      <path class="cls-1" d="M281.2,148.06V138.6h3.42a5.25,5.25,0,0,1,2,.34,3.63,3.63,0,0,1,1.42,1,4.1,4.1,0,0,1,.84,1.49,6.79,6.79,0,0,1,0,3.86,4.1,4.1,0,0,1-.84,1.49,3.63,3.63,0,0,1-1.42,1,5.25,5.25,0,0,1-2,.34Zm2-1.74h1.36a2.32,2.32,0,0,0,1.91-.76,3.46,3.46,0,0,0,.63-2.23,3.43,3.43,0,0,0-.63-2.23,2.32,2.32,0,0,0-1.91-.77h-1.36Z"/>
      <path class="cls-1" d="M291,148.06V138.6h2v9.46Z"/>
      <path class="cls-1" d="M298.52,148.19a4.6,4.6,0,0,1-2.63-.72,2.93,2.93,0,0,1-1.28-2l2-.46a1.74,1.74,0,0,0,.63,1.19,2,2,0,0,0,1.32.42,1.69,1.69,0,0,0,1-.3,1,1,0,0,0,.39-.86.93.93,0,0,0-.33-.7,2.43,2.43,0,0,0-.67-.43c-.22-.08-.57-.2-1.06-.35l-.15,0-.6-.2a5.7,5.7,0,0,1-.56-.22,3.13,3.13,0,0,1-.55-.27,3.84,3.84,0,0,1-.46-.34,1.72,1.72,0,0,1-.38-.44,2.25,2.25,0,0,1-.23-.54,2.41,2.41,0,0,1-.09-.67,2.55,2.55,0,0,1,.44-1.49,2.79,2.79,0,0,1,1.19-1,4.38,4.38,0,0,1,1.71-.32,5.45,5.45,0,0,1,1.23.14,4.38,4.38,0,0,1,1.11.42,2.73,2.73,0,0,1,.88.78A2.92,2.92,0,0,1,302,141l-1.9.47a1.54,1.54,0,0,0-1.7-1.36,1.92,1.92,0,0,0-1.06.28.94.94,0,0,0-.41.83q0,.51.69.84a11.64,11.64,0,0,0,1.31.45l.63.2c.16.05.37.12.61.22a3.7,3.7,0,0,1,.6.3,4,4,0,0,1,.5.36,2.29,2.29,0,0,1,.42.47,2.69,2.69,0,0,1,.26.59,2.39,2.39,0,0,1,.1.73,2.78,2.78,0,0,1-.19,1.06,2.4,2.4,0,0,1-.52.81,3,3,0,0,1-.78.55,3.89,3.89,0,0,1-1,.33A5.42,5.42,0,0,1,298.52,148.19Z"/>
      <path class="cls-1" d="M309.31,138.6v1.73h-2.25v7.73h-1.94v-7.73h-2.26V138.6Z"/>
      <path class="cls-1" d="M315.79,148.06l-2.46-4.16h-.57v4.16h-2V138.6h3.43a3.92,3.92,0,0,1,1.38.22,2.4,2.4,0,0,1,.95.61,2.63,2.63,0,0,1,.54.89,3.31,3.31,0,0,1,.18,1.11,2.27,2.27,0,0,1-.52,1.55,2.56,2.56,0,0,1-1.48.82l2.84,4.26Zm-3-7.83v2.26h1.16c1,0,1.47-.38,1.47-1.13a1,1,0,0,0-.36-.83,1.71,1.71,0,0,0-1.11-.3Z"/>
      <path class="cls-1" d="M319.55,148.06V138.6h2v9.46Z"/>
      <path class="cls-1" d="M329,143.06a2.22,2.22,0,0,1,1.78,2.35,2.51,2.51,0,0,1-.76,1.94,3.1,3.1,0,0,1-2.21.71H324V138.6H327a3.48,3.48,0,0,1,2.31.68,2.38,2.38,0,0,1,.81,1.91,2.31,2.31,0,0,1-.28,1.13A1.85,1.85,0,0,1,329,143.06Zm-2-2.83h-1.19v2.23h1.28a1.19,1.19,0,0,0,.9-.32,1.13,1.13,0,0,0,.3-.82,1,1,0,0,0-.33-.79A1.38,1.38,0,0,0,327,140.23Zm.45,6.15a1.47,1.47,0,0,0,1.08-.34,1.12,1.12,0,0,0,.34-.85,1.21,1.21,0,0,0-.34-.88,1.56,1.56,0,0,0-1.12-.34h-1.6v2.41Z"/>
      <path class="cls-1" d="M336.07,148.19a4.81,4.81,0,0,1-1.46-.21,3.29,3.29,0,0,1-1.17-.62,2.76,2.76,0,0,1-.79-1.08,3.83,3.83,0,0,1-.28-1.53V138.6h2v5.88a2,2,0,0,0,.48,1.5,1.67,1.67,0,0,0,1.26.48,1.71,1.71,0,0,0,1.26-.49,2,2,0,0,0,.48-1.49V138.6h2v6.15a3.83,3.83,0,0,1-.29,1.53,2.67,2.67,0,0,1-.79,1.08,3.29,3.29,0,0,1-1.17.62A4.81,4.81,0,0,1,336.07,148.19Z"/>
      <path class="cls-1" d="M346.22,148.19a5.34,5.34,0,0,1-1.93-.35,4.31,4.31,0,0,1-1.53-1,4.22,4.22,0,0,1-1-1.53,5.25,5.25,0,0,1-.37-2,5.1,5.1,0,0,1,.63-2.57,4.26,4.26,0,0,1,1.72-1.7,5.23,5.23,0,0,1,2.49-.59,5,5,0,0,1,2.77.77,4.19,4.19,0,0,1,1.7,2.1l-1.83.67a2.64,2.64,0,0,0-1-1.28,3,3,0,0,0-1.62-.45,2.77,2.77,0,0,0-2.07.82,3,3,0,0,0-.81,2.23,3.07,3.07,0,0,0,.81,2.23,2.79,2.79,0,0,0,2.07.82,2.87,2.87,0,0,0,1.62-.46,2.6,2.6,0,0,0,1-1.28l1.83.67a4.21,4.21,0,0,1-1.7,2.11A5,5,0,0,1,346.22,148.19Z"/>
      <path class="cls-1" d="M352.3,148.06V138.6h2v9.46Z"/>
      <path class="cls-1" d="M360.89,148.19a5.19,5.19,0,0,1-2.48-.59,4.38,4.38,0,0,1-1.73-1.71,5.62,5.62,0,0,1,0-5.13,4.29,4.29,0,0,1,1.73-1.7,5.51,5.51,0,0,1,5,0,4.29,4.29,0,0,1,1.73,1.7,5.62,5.62,0,0,1,0,5.13,4.38,4.38,0,0,1-1.73,1.71A5.19,5.19,0,0,1,360.89,148.19Zm-2.07-2.63a2.81,2.81,0,0,0,2.07.83,2.78,2.78,0,0,0,2.07-.83,3.47,3.47,0,0,0,0-4.46,2.77,2.77,0,0,0-2.07-.82,2.8,2.8,0,0,0-2.07.82,3.47,3.47,0,0,0,0,4.46Zm1.49-7.84,1.71-2.41.93.66-1.48,1.75Z"/>
      <path class="cls-1" d="M374,138.6h2v9.46h-2.27l-4.19-6.76v6.76h-2V138.6h2.24l4.22,6.72Z"/>
      <path class="cls-1" d="M381.88,148.06V138.6h3.42a5.25,5.25,0,0,1,2,.34,3.63,3.63,0,0,1,1.42,1,4.1,4.1,0,0,1,.84,1.49,6.79,6.79,0,0,1,0,3.86,4.1,4.1,0,0,1-.84,1.49,3.63,3.63,0,0,1-1.42,1,5.25,5.25,0,0,1-2,.34Zm2-1.74h1.36a2.32,2.32,0,0,0,1.91-.76,3.46,3.46,0,0,0,.63-2.23,3.43,3.43,0,0,0-.63-2.23,2.32,2.32,0,0,0-1.91-.77h-1.36Z"/>
      <path class="cls-1" d="M397.14,140.33h-3.51v2.15h3.11v1.7h-3.11v2.14h3.51v1.74h-5.49V138.6h5.49Z"/>
      <path class="cls-1" d="M408.65,138.6h2.09l-3.49,9.46h-2.16l-3.48-9.46h2.08l2.48,7.17Z"/>
      <path class="cls-1" d="M417.66,148.06l-.69-1.95h-4l-.69,1.95h-2l3.49-9.46h2.4l3.48,9.46Zm-4.08-3.59h2.82l-1.41-4Z"/>
      <path class="cls-1" d="M424.81,148.19a5.34,5.34,0,0,1-1.93-.35,4.4,4.4,0,0,1-1.53-1,4.22,4.22,0,0,1-1-1.53,5.25,5.25,0,0,1-.37-2,5.1,5.1,0,0,1,.63-2.57,4.26,4.26,0,0,1,1.72-1.7,5.23,5.23,0,0,1,2.49-.59,5,5,0,0,1,2.77.77,4.19,4.19,0,0,1,1.7,2.1l-1.83.67a2.64,2.64,0,0,0-1-1.28,2.92,2.92,0,0,0-1.62-.45,2.77,2.77,0,0,0-2.07.82,3,3,0,0,0-.81,2.23,3.07,3.07,0,0,0,.81,2.23,2.8,2.8,0,0,0,2.07.82,2.87,2.87,0,0,0,1.62-.46,2.6,2.6,0,0,0,1-1.28l1.83.67a4.21,4.21,0,0,1-1.7,2.11A5,5,0,0,1,424.81,148.19Z"/>
      <path class="cls-1" d="M434.39,148.19a4.86,4.86,0,0,1-1.46-.21,3.17,3.17,0,0,1-1.16-.62,2.67,2.67,0,0,1-.79-1.08,3.83,3.83,0,0,1-.29-1.53V138.6h2v5.88a2,2,0,0,0,.47,1.5,1.7,1.7,0,0,0,1.26.48,1.73,1.73,0,0,0,1.27-.49,2,2,0,0,0,.48-1.49V138.6h2v6.15a3.83,3.83,0,0,1-.28,1.53,2.76,2.76,0,0,1-.79,1.08,3.25,3.25,0,0,1-1.18.62A4.81,4.81,0,0,1,434.39,148.19Z"/>
      <path class="cls-1" d="M446.81,138.6h2v9.46H446.5l-4.19-6.76v6.76h-2V138.6h2.25l4.21,6.72Z"/>
      <path class="cls-1" d="M457.55,148.06l-.69-1.95h-4l-.69,1.95h-2l3.48-9.46h2.41l3.48,9.46Zm-4.09-3.59h2.83l-1.41-4Z"/>
      <path class="cls-1" d="M313.34,164.14l-.69-1.95h-4l-.69,1.95h-2l3.48-9.45h2.41l3.48,9.45Zm-4.09-3.59h2.82l-1.4-4Z"/>
      <path class="cls-1" d="M326.71,154.69h2v9.45H326.4l-4.19-6.76v6.76h-2v-9.45h2.24l4.22,6.72Z"/>
      <path class="cls-1" d="M331.11,164.14v-9.45h2v9.45Z"/>
      <path class="cls-1" d="M341.54,154.69h2.08l-3.49,9.45H338l-3.48-9.45h2.08l2.49,7.16Z"/>
      <path class="cls-1" d="M350.53,156.41H347v2.15h3.11v1.71H347v2.14h3.51v1.73H345v-9.45h5.49Z"/>
      <path class="cls-1" d="M354.52,162.41h3v1.73h-4.93v-9.45h2Z"/>
      <path class="cls-1" d="M368.92,154.69h2v9.45h-2.27l-4.19-6.76v6.76h-2v-9.45h2.25l4.21,6.72Z"/>
      <path class="cls-1" d="M379.66,164.14l-.69-1.95h-4l-.68,1.95h-2l3.48-9.45h2.4l3.48,9.45Zm-4.09-3.59h2.82l-1.41-4Z"/>
      <path class="cls-1" d="M386.8,164.28a5.24,5.24,0,0,1-1.92-.35,4.59,4.59,0,0,1-1.54-1,4.39,4.39,0,0,1-1-1.54,5.44,5.44,0,0,1-.36-2,5.23,5.23,0,0,1,.62-2.57,4.35,4.35,0,0,1,1.73-1.7,5.19,5.19,0,0,1,2.48-.58,5,5,0,0,1,2.78.76,4.15,4.15,0,0,1,1.69,2.11l-1.83.67a2.63,2.63,0,0,0-1-1.28,3,3,0,0,0-1.63-.46,2.81,2.81,0,0,0-2.07.83,3.44,3.44,0,0,0,0,4.45,2.77,2.77,0,0,0,2.06.83,2.87,2.87,0,0,0,1.62-.46,2.64,2.64,0,0,0,1-1.28l1.83.67a4.24,4.24,0,0,1-1.69,2.11A5,5,0,0,1,386.8,164.28Z"/>
      <path class="cls-1" d="M392.88,164.14v-9.45h2v9.45Z"/>
      <path class="cls-1" d="M401.48,164.28a5.12,5.12,0,0,1-2.49-.6,4.26,4.26,0,0,1-1.72-1.7,5.56,5.56,0,0,1,0-5.14,4.33,4.33,0,0,1,1.72-1.7,5.61,5.61,0,0,1,5,0,4.33,4.33,0,0,1,1.72,1.7,5.56,5.56,0,0,1,0,5.14,4.26,4.26,0,0,1-1.72,1.7A5.11,5.11,0,0,1,401.48,164.28Zm-2.07-2.63a3,3,0,0,0,4.14,0,3.06,3.06,0,0,0,.81-2.24,3,3,0,0,0-.81-2.22,3,3,0,0,0-4.14,0,3,3,0,0,0-.81,2.22A3.06,3.06,0,0,0,399.41,161.65Z"/>
      <path class="cls-1" d="M414.58,154.69h1.95v9.45h-2.27l-4.19-6.76v6.76h-2v-9.45h2.25l4.22,6.72Z"/>
      <path class="cls-1" d="M425.31,164.14l-.69-1.95h-4l-.69,1.95h-2l3.48-9.45h2.41l3.48,9.45Zm-4.08-3.59h2.82l-1.41-4Z"/>
      <path class="cls-1" d="M430.7,162.41h3v1.73h-4.93v-9.45h2Z"/>
    </g>
    <g>
      <g>
        <g>
          <path class="cls-2" d="M268.8,188.68c-2.27-.77-2.33-2.89-3.14-4.54-.23-.47.25-1.15-.34-1.58-5.19-3.78-5.7-9.82-7.29-15.29-1.31-4.55-2-5.11-6.4-4.13-.21-.21-.52-.39-.62-.64-1.68-4.37-1.64-4.32-5.76-1.93-1.6.92-3.23,0-4.86-.29a8,8,0,0,1-3.32,2.26c-1.13.38-1.44,1.48-1.54,2.58a18.32,18.32,0,0,0,.3,5.07,5,5,0,0,1-1.07,4.46l-.2.25c-3.07,3.55-2.47,7.65-2,11.78,1.22.19,1.34-.72,1.66-1.3a7.72,7.72,0,0,1,1.84-2.56,1.55,1.55,0,0,1,2.64,1,7.37,7.37,0,0,1-.84,5.52,10,10,0,0,0-1.66,4.76c-.08,1.59.13,2.78,1.95,3.5,2.22.89,2.39,1.83,1.34,3.95-.14.27-.57.6-.51.75,1.54,3.68-2.26,5-3.34,7.46A2.49,2.49,0,0,1,233,211c-.5,0-1.13-.23-1.18.59a1.14,1.14,0,0,0,.92,1.14,9.21,9.21,0,0,0,1.84.47,10.3,10.3,0,0,1,3.73.63c.53.26,1,.24,1.32-.37.77-1.63,2.35-1.61,3.79-1.9a36.24,36.24,0,0,0,4.07-.58,2.77,2.77,0,0,1,3.46,2c.48,1.92,1.81,3.35,2.49,5.06,1.43,3.57,3,7.24,2.14,11.27-.17.74,0,.88.6,1.09a53,53,0,0,1,6.94,3.49,16.26,16.26,0,0,1,2.54,1.89c1.53,1.26,2.67,1.33,4.22.21A10,10,0,0,1,273,234.5a5.82,5.82,0,0,0,3.08-1.57,5,5,0,0,1,3.37-2.22,5.57,5.57,0,0,1-.42-2c0-1,0-1.91,0-2.86,0-5.11-1.94-6.6-7-5.41a3.17,3.17,0,0,1-3.85-2.86c-.46-2.91-1.8-5.56-2.9-8.25a20.71,20.71,0,0,0-1.44-3.59c-.35-.56-.57-2.11.57-2.43,1.89-.53,2.4-2.61,4.12-3.26s1.68-2,1.62-3.49c-.08-1.9-1.37-3.74-.09-5.77C270.5,190,269.47,188.9,268.8,188.68Z"/>
          <path class="cls-2" d="M275.94,372.19c1.64-.77,2.87.05,3.95,1.16a3.15,3.15,0,0,0,2.34.74,15.44,15.44,0,0,0,5.31-.86,9.26,9.26,0,0,1,5.61-.35,12.58,12.58,0,0,0,3.48.27,57.59,57.59,0,0,0,15.09-1.41c.75-.19,1.15-.45,1.17-1.19,0-.95,0-1.91,0-2.86q-.07-23.55-.17-47.1c0-3.72,0-7.43-.07-11.14,0-2.17-.65-2.58-2.7-1.94a4.54,4.54,0,0,0-1.45.65c-3.36,2.61-7.43,4.09-10.71,6.82a10.76,10.76,0,0,1-2.19,1.26c-3.78,1.85-8,2.75-11.25,5.75a3.77,3.77,0,0,1-3.9.69,3.73,3.73,0,0,0-3.84.7,6.27,6.27,0,0,1-5.45,1.06,8.49,8.49,0,0,0-5.55.69,38.2,38.2,0,0,1-5.37,1.93c-3.29.83-4.22.19-5.11-3.15-.17-.61-.35-1.22-.47-1.84a3.86,3.86,0,0,0-2.17-3,4.19,4.19,0,0,1-2.79-4.19c0-1-.68-1.72-2-1.87-.16,1-.34,2.07-.49,3.11a57.67,57.67,0,0,1-2.3,10.22c-.79,2.35-1.74,2.56-3.68,1.2a7.74,7.74,0,0,0-7.12-1.19c-2,.65-2.89.28-3.8-1.66-.58-1.25-1-2.58-1.52-3.84-.7-1.64-4.08-2.35-5.45-1.19a1.05,1.05,0,0,0-.36,1.4c1.11,2,0,4.41,1.08,6.5a2.37,2.37,0,0,1-1,2.84c-3.38,2.51-6.62,5.5-11.4,4.14-.53-.16-1.08-.38-1.48,0-1.41,1.49-3.54,2.41-3.61,4.95a10.43,10.43,0,0,1-2.88,6.83c-1.35,1.52-2.5,2.88-4.76,2.24-.53-.15-1.26-.14-1.39.4-.56,2.34-2.59,3.85-3,6.49-.71,5.06-1.41,10.46-7.07,13-.12.06-.13.35-.19.54.52.76,1.36.37,2,.54,1.77.46,1.69,2.29,2.59,3.36s3.16.36,3.71,2.41c.6,2.24.93,4.4-.81,6.28a6.69,6.69,0,0,0-1.6,4.05c-.6,5.62,1.1,10.91,2.3,16.27a1.56,1.56,0,0,0,.46.82c2.84,2.37,4.78,6,9.3,6,2.17,0,4.17,1,4.59,3.58a1.42,1.42,0,0,0,1.54,1.29,3.11,3.11,0,0,1,2.25,1.05c1,1,2.12.81,3.25.45,3.08-1,6.05-2.38,9.33-1.72,0-3.55.06-6.72,0-9.89-.09-4.13-.38-8.26-.43-12.4,0-2.75.46-2.95,3.23-2.42s5.5,1.69,8.44,1.15a27.45,27.45,0,0,1,5-.39,7.31,7.31,0,0,0,5.9-2.59,10.87,10.87,0,0,0,2.21-3.77c.71-2.14,3.13-3.09,4.14-1.62,1.37,2,2.28,1.93,3.68.23a3.68,3.68,0,0,1,1.68-.86c2.6-.84,4.45-3.64,7.65-2.93.14,0,.39-.18.52-.34,1.63-2,3.61-2.64,6.19-1C274.56,374.62,274.23,373,275.94,372.19Z"/>
          <path class="cls-2" d="M222,171.58c.65,2.56,1.35,5.12,2.11,7.66a16.48,16.48,0,0,1,.63,6.91c-.29,2.27-1.07,4.55-.09,6.85-1.63,2.84-.58,5.44.58,8.11a4.44,4.44,0,0,1-.14,2.82,6.36,6.36,0,0,0,.56,5,7.26,7.26,0,0,1,6.29-.26,2.9,2.9,0,0,0,1.25.08c.44,0,1-.28,1-.69.09-2.06,3.27-2.17,2.8-4.58-.2-1-.59-2,.06-3.1.35-.57,0-1-.56-1.21-2.15-.94-2.25-2.85-2.28-4.82a13.35,13.35,0,0,1,2-6.38c-.13-.57-.25-.6-.46-.38-1,1-1.91,2.23-3.47,1.81-1.79-.49-1.63-2.27-2-3.67s.5-3.39-1.27-4.65c-.53-.37,0-1.22.4-1.68,1.71-1.8,2.24-4.32,3.84-6.2,1.09-1.28.59-2.86.36-4.29a12,12,0,0,1,.16-5.36c.38-1.26,1-2.51,2.27-2.88,1.9-.54,3-1.92,4.13-3.32l.16-.18c1.26-3.19,3.37-5.91,4-9.56.43-2.61,3.3-4.73,5.48-6.73,1.21-1.1,1.8-2,.72-3.86-1.86-3.13-.21-6.43.66-9.48.58-2,1.33-4,1.16-6.07a3.3,3.3,0,0,1,.09-1.15c-1.86-1.88-4.32-2.15-6.85-2-3.17.14-4.1-1-3-3.91.15-.4.38-.76.54-1.16.95-2.34.24-3.73-2.27-4.42-2-.56-2.12-.74-1.79-2.84.42-2.64-.11-3.27-2.7-3-3,.28-5.73,1.38-9,2.23,3.69,2.56,2.75,5.31.87,8.09a9.46,9.46,0,0,0-1.28,3.23,4.18,4.18,0,0,1-3.4,3.37,26.85,26.85,0,0,0-4.35,1.92c-3.31,1.37-4.57,4.19-5.5,7.34-.31,1,.17,1.57.83,2.16,2.69,2.42,4.56,5.56,7,8.19a7.9,7.9,0,0,1,1.93,5c.2,2.85-1.38,4.21-4.1,3.53a3.1,3.1,0,0,1-.6-.23,4.2,4.2,0,0,0-5,.58,6.11,6.11,0,0,1-1.45.7c.31,1,1.26,1.1,1.87,1.56A6.65,6.65,0,0,1,217,155a3.54,3.54,0,0,0,1.58,2.88,3.92,3.92,0,0,1,1.44,2.76c.27,1.45.38,2.92,1.63,4a1.4,1.4,0,0,1,.29,1.77C220.87,168.12,221.54,169.86,222,171.58Z"/>
          <path class="cls-2" d="M199.16,344.62a1.26,1.26,0,0,0,1.93,1.6c1.39-1.92,3.54-3.46,3.39-6.24a6.28,6.28,0,0,1,2.71-5.45c.66-.52,1.18-1.22,1.82-1.77a3,3,0,0,0,1.06-3.11c-.21-1-.26-2.1-.39-3.15A8.09,8.09,0,0,1,211.4,320c2-2.49,3.5-5.35,2.65-8.76,0-1.31,0-2.58,0-3.85a1.7,1.7,0,0,0-1.16-1.72c-1-.26-1.2.64-1.47,1.29a11.71,11.71,0,0,1-1.93,3.27,5.5,5.5,0,0,0-1.1,6.44,3.85,3.85,0,0,1,.3,2.78,25.52,25.52,0,0,0-.93,7.82,4.23,4.23,0,0,1-2.52,4.07c-2.68,1.42-2.88,1.63-2.36,4.53A6.28,6.28,0,0,1,201.7,341C200.82,342.16,200,343.37,199.16,344.62Z"/>
          <path class="cls-2" d="M151.36,342.09c-1.29,2.89-1.22,6.26-3.26,8.85a2,2,0,0,0-.25,1.23A21.14,21.14,0,0,1,145,363.71a2.11,2.11,0,0,0,.11,2.66,10.88,10.88,0,0,0,3.91,3.19c1.32.48,2.16-1.07,3.3-1.52a5.17,5.17,0,0,0,.82-.48c2.6-1.69,5.84-2.68,6.71-6.25a1.17,1.17,0,0,1,.64-.67c1.71-.64,2.12-2.21,2.75-3.66.42-.94.85-2.38,1.92-2.33,2.36.1,4.93-.11,7,.73,1.54.61,2.46.71,3.68-.16a9.67,9.67,0,0,1,1.65-1,2.8,2.8,0,0,1,3,.57c.86.67.76,1.61.53,2.61-.18.75-1,1.38-.54,2.43,2.06-.58,4.39-1.36,5-3.08.7-2,2.37-3.9,1.28-6.45-.66-1.52.31-3,2.05-3.32,4.61-.9,5.55-4.86,6.84-8.27,1.22-3.24.25-6.92,1.63-10.76-1,.12-1.54.34-1.83.18-2.16-1.22-4-.64-6,.49-1.83,1-3.72.06-5.18-1.36s-.79-3.12.09-4.62,1.88-3.08,1.62-4.73c-.49-3,.4-5.67,1.25-8.37,1.31-4.13-.48-8.36.56-12.5a12.33,12.33,0,0,0,.08-3.16c0-.7-.35-1.41-1.11-1.19-1.59.47-3.14.12-4.71.09a2.52,2.52,0,0,0-2.6,1.85c-1.43,3.52-2.37,3.81-5.76,2.26a1.69,1.69,0,0,0-1.33-.17,3.54,3.54,0,0,1-.45,1.05,5.26,5.26,0,0,0-1.24,5.79,2.59,2.59,0,0,1-.93,2.83,4.83,4.83,0,0,0-1.26,4.6c.8,4.17.51,4.66-3.2,6.81-1.55.9-3.46,1.88-3.64,3.74-.39,4-2.12,7.51-3,11.29a5.08,5.08,0,0,1-2.73,3.65C153.47,337.67,152.39,339.79,151.36,342.09Z"/>
          <path class="cls-2" d="M188.47,365.2a5.55,5.55,0,0,0,2.86-4.3c.49-2.8,1.65-5.47,1.76-8.37a2,2,0,0,1,.66-1.39c1.44-1.11,1.69-2.9,2.59-4.31.64-1,.71-2.08-.31-3.52-.3.53-.44.81-.6,1.07-1.36,2.19-2.78,4.26-5.69,4.58-.94.11-1.1.86-.62,1.67a2.77,2.77,0,0,1-.46,3.74,3.24,3.24,0,0,0-.67,1.73c-.7,2.91-5.12,6.15-8.09,5.94a4.53,4.53,0,0,1-1.54-.34c-1.32-.58-1.61-1.54-.82-2.8.46-.74,1.31-1.28,1.25-2.31-.43-.08-.69-.21-.83-.13-2.17,1.31-4.29,3-6.9.85a.67.67,0,0,0-.6,0c-1.64,1-3,.05-4.74-.84-.95,2.42-1.57,5-4.06,6.2-.13.06-.15.38-.17.59-.07,1.36-1.11,1.95-2,2.69a52.06,52.06,0,0,1-7.25,4.58,3.27,3.27,0,0,0-1.85,3.88,16.6,16.6,0,0,0,.6,2.78c1.1,2.86,2.17,5.74,3.25,8.61a8.63,8.63,0,0,1,.57,1.81c.2,1.62-.4,2.18-2,2.6-2.5.64-4-.58-5.06-2.54-1,.26-1.2,1.06-1.67,1.59-1.23,1.4-2.88,1.68-4.59,1.8-.93.06-1.68-1.18-2.65-.42s-.73,1.95-1.23,2.87A9.47,9.47,0,0,0,137,395c-1.71,5.08-1.71,5.08-6.85,4.32-2.12-.31-2.81.37-2.15,2.42.42,1.34,1,2.59.32,4-.52,1.05.17,1.26,1,1.46,3.44.87,3.72,1.17,4.19,4.48.36,2.56.34,2.66,3,3.1,1.53.25,2.66.7,2.85,2.38s1.17,1.49,2.3,1.1,2.14-.87,3-.07c1.51,1.38,2.61.69,3.31-.63,2.12-4,5.81-6.71,8-10.61.43-.77,1-1.54,1.92-1.47,2,.14,2.8-1.25,3.54-2.66a19.66,19.66,0,0,1,5.26-6.3c1.55-1.21,2.47-2.56,2.26-4.56a3.3,3.3,0,0,1,2.22-3.75,8.51,8.51,0,0,0,4.43-4.77,4.44,4.44,0,0,1,2.38-2.82,2.3,2.3,0,0,0,1.54-2.51c-.18-2.18.88-3.88,2.05-5.54C183.53,369.76,185.35,366.89,188.47,365.2Z"/>
          <path class="cls-2" d="M160.77,318.87a13.46,13.46,0,0,1,3.74-2.88,9.39,9.39,0,0,0,1.87-1.15,1.59,1.59,0,0,0,.4-1.75c-.25-.85-1-.59-1.57-.58-1.47,0-3,.06-4.42.07-1.28,0-2.42,0-3.25,1.37a4,4,0,0,1-3.25,1.66c-2,.21-2.22.55-1.92,2.6.59,4.14,2.67,7.68,4.51,11.69a17.64,17.64,0,0,0,2.41-7.66A5.23,5.23,0,0,1,160.77,318.87Z"/>
          <path class="cls-2" d="M327.77,378.48a9.68,9.68,0,0,0,4-2.36c-1.85-.25-2.85.67-4,1.15s-2,1.12-3,.63c-2.5-1.23-5.29-1.39-7.85-2.35-3.05-1.15-6.05-2.39-9.43-.82a8.15,8.15,0,0,1-4.38.47,20.61,20.61,0,0,0-5.71.09,9.89,9.89,0,0,1-3.79-.21,11.54,11.54,0,0,0-5.94.29c-3.56,1-7.21,1.88-10.29-1.14-.81.79-.37,1.55-.41,2.26-.13,2-.93,2.63-2.88,2.23a6.69,6.69,0,0,1-1.45-.59c-.5-.23-1.07-.53-1.47-.08a6.67,6.67,0,0,1-5.71,2.16c-.57,0-.89.53-1.2,1a3.08,3.08,0,0,1-2.08,1.33,5.63,5.63,0,0,0-3.43,2.07c-1.29,1.42-2.67,1.31-4.2,0-.46-.39-.55-1.2-1.34-1.22-.44.2-.47.63-.61,1-1.63,4.55-6.16,7.6-10.51,7.06a9.7,9.7,0,0,0-2.84.2,17.41,17.41,0,0,1-8.77-.44c-2-.68-2.52-.23-2.45,1.82.1,2.86.3,5.71.4,8.57.19,5.29-.06,10.6.73,15.87.14.92,0,1.84.77,2.64a15.54,15.54,0,0,1,4.8,8,2.26,2.26,0,0,0,.86,1.3,61.9,61.9,0,0,1,6.07,6c2.25,2.39,4.69,4.43,8.17,2a4.27,4.27,0,0,1,1-.35c0-.53,0-1-.08-1.56a7.89,7.89,0,0,1,2.44-6c1.43-1.4,4.29-1.6,6.55-1,4.4,1.23,7.29,4.81,10.87,7.31.69,3.52,3.57,5.44,5.76,7.86a1.08,1.08,0,0,1,.15.28c.6,1.32,1.57,1.7,3.05,1.71a5.44,5.44,0,0,0,3.81-1,7.63,7.63,0,0,1,2.61-1.11,10.33,10.33,0,0,0,7.23-6.95c.4-1.18.91-1.88,2.28-1.45a2.17,2.17,0,0,0,2.23-.66c1.76-1.5,1.93-2.91.87-4.94s-.79-3.19,1.08-4.35c1.5-.94,2.13-2,1.74-3.64-.75-3.18.58-5.79,2.09-8.39.78-1.36,1.76-2,3.38-1.57a4.41,4.41,0,0,0,4.63-1.33c1.28-1.26,2.72-2.36,4-3.65a4.29,4.29,0,0,1,3.37-1.27,45,45,0,0,0,9.43-.9c5.06-1.21,10.19-2.16,15-4.4a20,20,0,0,0,5.61-4.21c-1.84-.29-3.62-.12-5.35-.35a6.24,6.24,0,0,0-4,.29,3.25,3.25,0,0,1-4.08-.7,3.47,3.47,0,0,0-3.43-.95c-3.11.55-4.39-.41-4.74-3.51-.25-2.23-1-3.68-3.31-4.49-2-.7-2.26-2.08-1-3.76A11.74,11.74,0,0,1,327.77,378.48Z"/>
          <path class="cls-2" d="M346.45,401.8c-1.52-.61-2.7.16-3.8.93a7.11,7.11,0,0,1-4.74,1.51,4.11,4.11,0,0,0-1.84.38,31.89,31.89,0,0,1-12.67,2.49c-1.8,0-3.46,1.07-5.33.58-.54-.14-.93.39-1.32.75-1.25,1.15-2.55,2.24-3.78,3.41-1.7,1.6-3.55,2.68-6,2a1.3,1.3,0,0,0-1.66.56c-1.06,2-2.51,3.9-1.89,6.52.57,2.38.35,4.68-2.32,5.93-1,.46-1.06,1.22-.58,2.12a6.78,6.78,0,0,1,.41.86c1.42,3.67-.13,6.72-4,7.49a3.23,3.23,0,0,0-2.4,1.71c-2,3.27-4.6,5.77-8.54,6.63-1.14.25-2.73.57-2.59,2.27a19.31,19.31,0,0,0,1,3,1.89,1.89,0,0,0,2.28,1.63c1-.09,1.5.56,1.75,1.49a9.87,9.87,0,0,0,1.66,3.4c.91,1.24,1.71,2.33,3.56,2a2.79,2.79,0,0,1,3,2c1.05,2.37,2.92,3.08,5.32,3.27,1.54.12,3.2.28,4.38,1.58.13.15.41.36.52.31,3.37-1.5,5.45,2.08,8.52,2.13a4.35,4.35,0,0,1,4.14,3.41c.11.4.18,1.09.38,1.14,2.45.61,2.3,2.68,2.69,4.5a7.88,7.88,0,0,0,.85,2c1.08,2,1.46,2.2,3.8,1.6a38.21,38.21,0,0,0,3.94-1.22c3.27-1.16,3.44-1.11,4.74,2a4.75,4.75,0,0,0,1.44,2.42c.9.63,1.73,1.16,2.81.19a7.09,7.09,0,0,1,2.19-1.25,3.29,3.29,0,0,1,3.9,1.83c.38,1.1-.39,1.47-1.18,1.9-2.13,1.14-2.17,1.51-1.71,3.64a15.89,15.89,0,0,1,0,7.54,4.09,4.09,0,0,0,.52,3.62c.48.7,1,1.35,1.53,2s.78,2.23,1.89,2.42c1.28.23,1.4-1.36,2.18-2a3.7,3.7,0,0,1,3.83-.83,5.5,5.5,0,0,0,3.39.45,2.3,2.3,0,0,1,2.91,1.29c.71,1.4,1.78,1.53,3.21,1.15,2.41-.63,2.93-.48,3.52,1.75s1.81,2.7,3.82,3l1.16.21c.06-1.75.08-3.51,0-5.27a1.71,1.71,0,0,0-.65-1.59c-2.43-1.65-3.6-4.44-5.72-6.38a3.56,3.56,0,0,1-.62-5.06,3.22,3.22,0,0,0-.11-4.09c-1.58-1.81-2.84-3.89-4.66-5.51-.8-.71-1.9-1.66-2.55-1.46-2.64.82-3-1.38-4.19-2.63-1.41-1.48-3-3-2.8-5.11.51-6.37.11-12.74.3-19.1,0-.79,0-1.79.93-2.23,2.58-1.14,5.27-2,7.37-4.09.38-.37,1.48-.19,2.17,0s1.45.45,1.89-.06c2-2.32,4.83-1.72,7.59-2.25.45,3.84,4.73,2.25,6.3,4.75,1.6-.83,2.61-2.08,4.23-2.56-.74-1.58-1.64-2.85-1.21-4.37.83-2.93-.81-5.14-1.72-7.72-1-2.86-2.76-2.67-4.65-2.42-4,.53-7.92.71-11.78-.69A2.64,2.64,0,0,0,358,435v-.63a3,3,0,0,1-1-2.55c-.06-5,0-10-.39-14.95a6.3,6.3,0,0,1,0-1,3.4,3.4,0,0,0-2.26-.72c-2.06.26-3.4-.76-4.5-2.36a6.62,6.62,0,0,0-4.52-3.16c-2.17-.37-2.6-2.68-1.15-4.82C344.83,403.81,346.17,403.28,346.45,401.8Z"/>
          <path class="cls-2" d="M393.63,262.27a9,9,0,0,1-5.39-.54c-3.75-1.74-7-.58-10.2,1.1a8.4,8.4,0,0,1-5.93,1c-.33.24-.68.48-1,.71a7.65,7.65,0,0,1-5.42,1.41,7.78,7.78,0,0,0-5.72,1.36,16.25,16.25,0,0,1-3.88,2,2.77,2.77,0,0,0-1.89,2c-.23.8-.78,1.52-1,2.33-1.23,5.52-5.63,7.78-10.29,8.69-5.28,1-9.11,4.34-13.56,6.7a3.45,3.45,0,0,0-1.41,2.4,6.45,6.45,0,0,1-3.79,4.35c-3.72,1.74-5.86,5.36-8.77,8.08-.9.83-.68,2.17-.68,3.34,0,6.69,0,13.37,0,20.06q.15,20.83.36,41.69c0,3.74.82,4.79,4.54,5.38a9.37,9.37,0,0,1,3.94,1.1,3.37,3.37,0,0,0,3.86-.14,7.42,7.42,0,0,1,6.37-.88c2.08.66,5.72-2.14,6.26-4.68a9.9,9.9,0,0,1,3.45-6.16c1.09-.89,2.59-2.72,1.78-4.93a3.84,3.84,0,0,1,.28-2.8c.37-.87,1.09-1.59,1.94-1.32,2.65.85,5-.72,7.42-.72.52-1.1-.71-2.18.21-3.11a4.72,4.72,0,0,1,3.2-1.15c3.23-.26,6.17-1.16,8.47-3.66a7.85,7.85,0,0,1,4.28-1.95,1.75,1.75,0,0,1,2,.61c.7,1.28,1.84,1,2.95,1.28,1.84.43,3.34.76,4.7-1.09.62-.83,2-.6,3-.49,4.76.47,9.19-1.47,13.83-1.82,1.34-.1,1.91-1.2,2.44-2.26,1-2,2.38-3.24,4.79-2.76a2.32,2.32,0,0,0,2.29-.81c2.4-2.74,5.52-2.88,8.76-2.36a3.35,3.35,0,0,0,2.37-.44,5.55,5.55,0,0,1,6.56.35,3.81,3.81,0,0,0,4.3.69c-.58-3.84-2.51-7.33-3.1-11.2-.84-5.42-2.87-10.58-.76-16.31a12,12,0,0,0-.39-8.56,4,4,0,0,1,.15-2.87c.21-.54,1-1.05.7-1.54-2.77-4.48,1.27-6,3.53-8.29a9.58,9.58,0,0,0,2.55-8,5.4,5.4,0,0,1,2.16-5.17c3.77-3.09,4.8-8.74,3-12.36-.89-1.77-1.75-2.72-3.87-1.93-1.59.59-2.62-.8-3.81-1.54-4-2.49-3.65-1.67-7.06.19s-6.89,3.69-11.1,2.73a4.05,4.05,0,0,0-3.86.82,7.45,7.45,0,0,1-7.57,1.3C397.58,261.36,395.54,261.93,393.63,262.27Z"/>
          <path class="cls-3" d="M200.39,257.06c-1.55,1-1.64,2.62-1.31,4.18s1,2.94,2.85,2.93c1.55,0,2.95,1.09,4.64.32,1-.47,1.82.4,2.12,1.39a11.07,11.07,0,0,1,.33,2.51c.11,1.73.87,2.76,2.71,2.87a4.69,4.69,0,0,1,3.43,1.43,5.66,5.66,0,0,0,6.05,1.78,23.4,23.4,0,0,1,4-.72c1.83-.12,2.64-.94,2.71-2.77a12.44,12.44,0,0,1,2.92-7.23,2.08,2.08,0,0,1,3.05-.61,7.25,7.25,0,0,1,3,7.25c3-1.64,6.46-2.42,8.82-5.14a1.32,1.32,0,0,1,1.48-.31c1.82.73,2.8-.3,3.61-1.66.95-1.57,1.9-3.08,3.92-3.42.94-.16,1.09-1,1-1.73s-.29-1.66-.45-2.49c-.41-2.18-.95-4.35-1.19-6.55-.17-1.46,1-2.35,2.64-2.53,1.51-.15,2.28.48,2.51,2.12.09.62,0,1.28.14,1.89.18.81,1,1.1,1.4.53,1.44-2.19,4.12-3.85,3.1-7.18a6.07,6.07,0,0,1,.22-4.37,2.16,2.16,0,0,0-1.16-3.17c-2.87-1-5.06-3.35-8.13-4-2.13-.48-2.75-1.61-1.8-3.45a5.3,5.3,0,0,0,.21-4.58c-1.06-2.47-.9-5.46-3.22-7.44-1.11-1-.19-3.64-2.3-3.62a38.1,38.1,0,0,0-4.71.46c-.53.08-1.18.13-1.37.66-1,2.64-2.62,2.21-4.55,1.21a5.25,5.25,0,0,0-2.17-.42c-2.67-.1-4.73-1-5.59-3.79-.31-1-.76-1.31-1.88-.83-2.75,1.19-4.08.41-4.51-2.56a11.47,11.47,0,0,1,.07-4.74c.54-2-.64-3.46-1.35-5.08a.62.62,0,0,0-.78-.36c-.25.09-.64.41-.62.58.28,2.39-.94,5,.56,7.14,1.71,2.43,1,4.78.55,7.29s.62,5.45-1.43,7.6-2.33,4.63-3.05,7.17a3.54,3.54,0,0,0,1.25,4.15c2.08,1.79,2,2.13-.21,3.69-2.69,1.88-5.53,3.65-7.44,6.38a12.9,12.9,0,0,1-6.07,4.87c-2.37.91-2.32,1-1.75,3.45C203.36,252.91,203.09,255.35,200.39,257.06Z"/>
          <path class="cls-2" d="M193.92,273.31a4.94,4.94,0,0,0,5.05.46,6.94,6.94,0,0,1,.92-.26c3.87-1.16,5.63-1.36,5.8,4.4.09,3,1,4.83,3.62,6.06a8.08,8.08,0,0,1,2.9,2.43c.89,1.14,1.79.92,2.59-.15.5-.67.94-1.41,1.47-2.07a7.26,7.26,0,0,1,4.44-2.85c2.64-.51,2.71-.55,3.33,2.14.16.72.34,1.15,1.14,1.19,1.58.09,2.1,1.24,2.4,2.54a4.3,4.3,0,0,0,2.06,3c2,1.16,2.2,3.52,3.11,5.4a5.25,5.25,0,0,1-.51,5.67c-1,1.44-.67,2.36,1,3,2,.77,3.53,1.79,4.19,3.93a1.78,1.78,0,0,0,1.72,1.2,2.48,2.48,0,0,1,2.35,1.35c.43.95,1,1.31,2,.69s2-1.41,1.46-2.51c-2-4.38.36-6.95,3.53-9.26.78-.57,1.14-1.09.74-2.11a4.45,4.45,0,0,1,0-4,20.26,20.26,0,0,1,4.34-5.44c1.21-1,2.37-.2,3.38.72,2.29,2.06,2.48,2.06,4.34-.34,1.47-1.9,3.67-3.1,4.82-5.36.6-1.19,2-1.47,3.35-1.35,1.2.11,2.5-1,3-2.5.47-1.26-.37-1.66-1.21-2.18-1.45-.9-2.85-1.85-4.23-2.84-1.78-1.26-1.83-2.33,0-3.64.81-.57,1.23-1.08,1.1-2a4.59,4.59,0,0,1,.45-2.47,2.37,2.37,0,0,0-.26-2.38c-1.54-2.46-1.23-4.78.65-7a31.11,31.11,0,0,0,2.27-3.45c.4-.63.81-1.53,1.51-1.55,4.13-.14,3.54-4,4.94-6.23.69-1.09.44-2.74,1.86-3.51.16-.1.37-.33.37-.49,0-3,2.11-5,3.17-7.45.12-.3.26-.59.39-.87l-.7,0a3.89,3.89,0,0,1-2-.68,12.48,12.48,0,0,1-1.6,1.09,29.41,29.41,0,0,1-6.72,3.38,4.25,4.25,0,0,0-1.78,1.28c-1,1-1.69,2.27-3.42,1.35-.62-.33-.91.26-1.16.73a4.6,4.6,0,0,0-.1,3.42c1,4.21-2,6.65-4.12,9.47-.54.72-1.56.58-2.4.36s-1.54-.5-2.31-.75a5.39,5.39,0,0,0,.37,3,8.59,8.59,0,0,1,.23,3.46c-.07,1.29-.63,2.4-1.94,2.57-1.73.23-2.51,1.35-3.31,2.65-1,1.68-2.3,3.08-4.58,2.79a2.72,2.72,0,0,0-1.73.66,36.12,36.12,0,0,1-4.18,2.29,6.29,6.29,0,0,0-3.82,3.53c-.39,1-.95,2-2.29,1.84s-1.79-1.35-2.07-2.49A4.84,4.84,0,0,1,234,270c.32-.74,1.37-1.25.88-2.22a4.56,4.56,0,0,0-2.06-2.44c-2.25,1.53-2.49,4-2.92,6.36-.16.93-.16,1.91-.38,2.83-.17.74-.63,1.51-1.52,1.31-2.3-.52-4.38.52-6.56.81-2.76.37-5.3.19-7.33-2a4.42,4.42,0,0,0-2.49-1.24c-3.74-.82-4.29-1.52-4.6-5.29,0-.31-.12-.61-.18-.92-3.27.66-7.28-1.27-9.84-4.74-1,.16-1,1.08-.91,1.7a12,12,0,0,1-1.81,7.87A5.67,5.67,0,0,0,193.92,273.31Z"/>
          <path class="cls-2" d="M129.16,432.25c.27,2.52,2,3.87,4.05,4.92a2.11,2.11,0,0,0,1.84-.15c2.21-1,4.38-2.23,6.87-.58.55.37,1.3-.15,1.51-.78s-.34-.9-.91-1c-2-.37-2.76-2.38-4.52-3.17-.94-.42-1.09-2-.9-3.2.37-2.5.49-5.08,2.41-7.11a14.54,14.54,0,0,1-1.29-1.23,20.32,20.32,0,0,0-4.65-3.76c-1.86-.57-2.27-1.93-2.31-3.69-.06-2.77-.14-2.77-2.88-3.36-2.19-.48-3.12-1.84-2.26-3.88a2.77,2.77,0,0,0-.12-2.66,4.23,4.23,0,0,1-.41-2.47c.22-2.14,1.12-3,3.3-2.95a16.81,16.81,0,0,1,3.46.44,1.45,1.45,0,0,0,1.94-1.08c.64-1.8,1.23-3.62,1.87-5.42,1-2.79,2-3.36,4.74-2.53a3.28,3.28,0,0,0,4.08-1.47,13.29,13.29,0,0,1,.91-1.31c1.33-1.55,2.27-1.5,3.53.2.38.51.62,1.12,1,1.63a1.25,1.25,0,0,0,1.71.32c.62-.33.33-.9.14-1.38-.95-2.48-1.87-5-2.73-7.46a15.52,15.52,0,0,1-1.13-5.23,4,4,0,0,0-1.84-3.51c-.78-.54-1.41-1.29-2.16-1.87a4,4,0,0,1-1.65-4.19c.35-1.63-.59-2.16-1.85-2.78-2.86-1.43-5.83-.58-8.76-.62-.77,0-.88.81-1,1.42-.49,2.9-2.29,4.15-5.11,4.19-.42,0-1,0-1.23.2-1.71,1.79-4,1.9-6.18,2.57-1.75.54-2.88.54-3.87-.77a3.51,3.51,0,0,0-4.12-1.48c-1.71.45-3.26-.2-4.89-.82-2.41-.92-3.93-3.07-6.3-4-1.06-.43-1.29-1.87-1.65-3-.09-.29-.19-.55-.29-.81-1.21.81-1.45,2.88-1.79,4.33C95,366,93.56,368.57,90.54,370c-2.09,1-2.06,3.09-2.47,4.81-.88,3.72-1.29,4.37-4.84,4.72a3.52,3.52,0,0,0-1.78.58,1.93,1.93,0,0,1,0,.24,4.21,4.21,0,0,0,1.19,3.15c2.35,2.72,4.81,5.38,5.82,9a2.83,2.83,0,0,0,2.81,2.16c2.48.17,4.88,1.06,7.46,0,1.5-.59,2.83.1,3.39,1.94a7.12,7.12,0,0,0,3.55,4.27c2.61,1.46,2.83,4.55.57,6.6-1.23,1.12-2.76,2-3.11,3.9,1.68.56,3.26,1.08,4.83,1.62s2.39-.35,3.35-1.24c2.36-2.18,3.62-2.09,5.19.6a9.23,9.23,0,0,0,2.37,2.49c2.32,1.87,2.53,2.84.89,5.3-1.2,1.81-.61,3.45.15,5.09a1.08,1.08,0,0,0,1.86.29c1-1.12,2.7-1.22,3.7-2.41a1.34,1.34,0,0,1,2.21.12c1.19,1.38,2.25,2.83,1.78,4.85A12.36,12.36,0,0,0,129.16,432.25Z"/>
          <path class="cls-2" d="M160.93,282.63c-.81.25-1.64.69-2.46.29-1.52-.73-2.71-.07-3.79.82-.92.76-2.58,1.22-2.21,2.73s1.93.7,3,.78a3,3,0,0,1,3.05,3,3,3,0,0,1-3,3c-2-.22-2.28.76-2.37,2.33a35.42,35.42,0,0,1-.66,3.76c3.69-1.66,4.14-1.51,5.37,1.93.36,1,.67,1.76,1.95,1.38,2.53-.74,4.57.18,6.31,2,.45.45.84,1,1.6.61s1.25-1,.94-1.79c-.94-2.43-.17-4.37,1.17-6.49,1.68-2.66,1.77-2.92,4.83-1.79,1.9.7,2.15.73,2.75-1.25a3.91,3.91,0,0,1,4.5-3.1c1.93.17,3.77-.43,5.65-.35,1,.05,1.29-.51,1.51-1.24.52-1.73,1.09-3.44,1.52-5.18a27.63,27.63,0,0,0,.43-8.22,1.52,1.52,0,0,0-1-1.46c-.77-.28-1.17.29-1.55.79s-.87,1.2-1.28,1.82c-1.38,2.12-3,3.38-5.82,2.59-2.18-.62-3.5.34-4.38,2.48a18,18,0,0,1-.77,1.74c-.88,1.57-2.11,2.7-4,2.64a3.77,3.77,0,0,1-3.77-2.89c-.6-2.57-2.75-3.94-3.92-6-.31-.56-.7-.73-1.27-.41s-1.17.62-1,1.4c.07.4.39.76.49,1.16C163.15,281.55,162.84,282,160.93,282.63Z"/>
          <path class="cls-3" d="M129.46,332.89a30.42,30.42,0,0,0-5.73,2.74,2.19,2.19,0,0,1-3.32-.61,1.91,1.91,0,0,0-2.15-1c-.38.08-1,.07-1.21-.17-1.56-1.92-3.77-1.56-5.82-1.78a4.68,4.68,0,0,1-2.61-1.05,7.31,7.31,0,0,0-5.66-1.43,2.15,2.15,0,0,0-1.6.78c-1.26,1.34-2.59,2.6-4,3.8l.19.15c1.15.84,1.15,2.3,2.13,3.16.48-.66,1.39-1,1.8-1.76,1.69-2.93,3.18-2.7,5.31.29-.78,1-2.1,1.53-2.64,2.83.37,2.56,2.18,2.67,4.19,2.54,1.26-.09,2.71-.25,2.84,1.58.08,1.2.45,2.7-1.56,2.89-.44,0-1.24.42-1.22.6.27,3.94-2.52,5-5.45,6.1-1.15.44-1.63,1.79-2.22,2.84-.44.79-.58,1.61-1.3,2.16.14.34.26.68.38,1.05.4,1.33,1,2.32,2.4,2.64a2.69,2.69,0,0,1,1.66.86,7.08,7.08,0,0,0,7.57,2.66,3.67,3.67,0,0,1,4,1.34c.7.94,1.35,1.09,2.65.8,2-.45,4.12-.43,5.69-2.12a1.78,1.78,0,0,1,1.22-.27c2.93.12,4-1.47,4.47-4.18.38-2.38,1.08-2.59,3.5-1.86a2.54,2.54,0,0,0,1.2.23c2.85-.88,5.43.14,8,1.05,2,.69,2.31.48,2.85-1.54a9.84,9.84,0,0,0,.42-2.51c-.06-5.12,2.56-9.47,4-14.15a10.26,10.26,0,0,1,4.83-6.44,1.85,1.85,0,0,0,.9-2.65,59,59,0,0,0-2.83-7.08,18.61,18.61,0,0,1-2.14-9.5c.06-2.51.36-2.81,2.78-2.56a2.42,2.42,0,0,0,2.38-.61c-2.06-.2-3.17-2.23-5.4-1.72-.77.18-1.21-.72-1.48-1.44-.57-1.48-1-3-1.67-4.45s-1.31-1.52-3-.85c-2.43,1-3.43,3.37-5.29,4.9a17.15,17.15,0,0,1-3.25,2.5,6.63,6.63,0,0,0-4,6,5,5,0,0,1-1.57,4c-.42.35-.89.92-.65,1.35,1,1.71.76,4,2.14,5.34s.85,2.16,0,3.21A4.6,4.6,0,0,1,129.46,332.89Z"/>
          <path class="cls-2" d="M107.72,455.42c0-1.69-.17-3.11-2-3.89a1.75,1.75,0,0,1-.72-2.9c2.13-3,2.36-6.79,4.62-9.71,1-1.3,1.33-2.83-.51-4.1-1.23-.85-1-2.24-.42-3.48a6.55,6.55,0,0,1,4.37-3.42c.8-.25,1.65-.38,2.44-.65,1.43-.49,2.32-1.11,1.77-3s-.65-3.79.84-5.41a1.25,1.25,0,0,0-.37-2.12,7.25,7.25,0,0,1-3.47-4c-1.13,0-1.44.65-1.9,1.06-1.71,1.54-3.55,2.27-5.77,1a14.42,14.42,0,0,0-3.37-.88c-2.38-.64-3-2.16-1.82-4.33a14,14,0,0,1,3.21-3.49c1.58-1.41,1.51-2.32-.32-3.41a9.86,9.86,0,0,1-3.9-4.49c-.52-1.12-1-1.89-2.3-1.2-3.1,1.58-6-.38-9-.68-1.54-.16-2.37-1.79-2.76-3.24-.84-3.1-2.93-5.39-4.94-7.68a8.94,8.94,0,0,1-2-3.17,33.6,33.6,0,0,1-3.28,1.5c-.49-.63-1.51-1-1.53-1.89,0-1.21-.42-1.59-1.63-1.63-1.57-.06-1.21,1.44-1.7,1.81-1,.78-.09,2-1.4,2.82-2.48,1.56-3.09-.86-4.5-1.48-1.91.37-3.28,1.31-3.5,3.26-.11,1-.88,1.8-1.32,1.82-1.85.06-2.58,1.05-2.51,2.63.08,1.75-.55,3.53,1.18,5.16a5.53,5.53,0,0,1-1.55,9.14c-1.13.56-1.22,1.94-.87,2.16,1,.65.56,1.64.79,2.36.38,1.2,0,1.95-1.83,1.62-8.93-1.66-8.3-.32-11.53,5.84,2,2.12,3.93,4.39,6.78,5.55,3.08,1.25,4.38,4,5.71,6.7.61,1.23,1.12,2.57,2.87,2.21,3.65-.75,6.18,1.19,7.88,3.89S71.44,439,74,439.4a12.45,12.45,0,0,1,5.09,2c2.9,1.87,5.92,3.17,9.55,2.61,1.78-.27,3.6-.47,3.95,2.48a5.56,5.56,0,0,0,4,4.74c1.76.47,1.62,1.65,1.58,2.91a3.49,3.49,0,0,0,2.57,3.74c2.28.49,4.54,1.49,6.9,1.45C107.68,458,107.69,456.71,107.72,455.42Z"/>
          <path class="cls-3" d="M117,183.5a2.11,2.11,0,0,1,1.56,1.61c.58,4.86,3.46,9.09,3.85,14a5.16,5.16,0,0,1-1.59,4.46c-5.76-1.34-6-2.33-2.14-7.77a7.75,7.75,0,0,1-2.17-1.44,6.4,6.4,0,0,1-2.51,5.07c-.32.23-.72.71-.67,1,.35,2.28-.54,4.14-1.7,6a1.29,1.29,0,0,0,.42,1.7,9.16,9.16,0,0,0,1.22,1c6.78,4.14,10.94,10.82,16.06,16.58,2.65,3,1.33,6.44,1.18,9.73,0,.86-1,1-1.77.9a9,9,0,0,1-4.08-1.65c-2.14-1.32-3.84-.58-4.45,1.88a11.61,11.61,0,0,0-.13,1.58,2.38,2.38,0,0,1-2.31,2.54,7.53,7.53,0,0,0-1.56.29c-1.38.45-1.75,1.87-.52,2.58,1.82,1,3,2.27,2.82,4.5,0,.61.45.95.94,1.16a3.83,3.83,0,0,1,2.25,4.19c-.28,3.41,2.5,5.2,3.81,7.76a1.17,1.17,0,0,0,1.41.44c2.57-.6,5.19-1.06,7.68-1.88,2.8-.92,6.4.36,7,3.21a43.86,43.86,0,0,0,4.44,10.83,7.64,7.64,0,0,1,.78,5.24,12.6,12.6,0,0,0-.08,4.74c.36,2,1.49,2.38,3.12,1.14,1.1-.83,2.13-1.75,3.2-2.62,1.64-1.31,3.42-2.13,5.59-1.56a1.71,1.71,0,0,0,1.51-.28c-.58-3.34.16-4.73,3.14-5.81,1.23-.45,2.38-.44,2.81,1.06a5.71,5.71,0,0,0,2.18,3c1.07.83,1.28,2.15,1.71,3.34s1,2.32,2.32,2.28,1.95-1.16,2.38-2.29c.59-1.55.77-3.3,2.74-4a8,8,0,0,1,4.66-.52c1.51.39,2.41-.34,3.18-1.49.65-1,1.31-1.93,2-2.85s1.61-1.62,2.72-1.24c1.47.49,1.91,0,2.52-1.32a10.76,10.76,0,0,0,1.35-5.72,7.47,7.47,0,0,1,2.31-6.07c1.41-1.35,1.73-3.61,3.88-4.35.66-.23.65-1.27.68-2a9,9,0,0,0-.46-2.81c-.78-3-.59-3.42,2.22-4.48a13.13,13.13,0,0,0,6.65-5.11c1.77-2.67,4.73-4.19,7.13-6.28,0-1.23-1.49-1.57-1.37-2.77-1.55,0-2.18,1.1-3.08,1.75-1.83,1.34-3.73,2.45-6.14,1.95a3.28,3.28,0,0,1-2.95-2.89,6,6,0,0,0-.42-2.16,7.72,7.72,0,0,1,0-8.42c.07-.12-.08-.38-.13-.6-1.33.32-1.6,1.58-2.23,2.49-1.15,1.67-1.82,1.72-3.14.16a6.24,6.24,0,0,1-1.7-5c.24-1.79.31-3.59.47-5.39,0-.42-.05-1,.19-1.23,2.36-2.08,1.11-4.7.85-7-.33-2.87-2.18-5.19-4.25-7.19A21.64,21.64,0,0,0,190,196c-1-.73-1.85-1-2.74.15a3.1,3.1,0,0,1-2.21,1.12,11.68,11.68,0,0,0-6.23,2c-1.24.93-2.45.11-3.52-.59-1.28-.85-2.22-.81-3.18.57-1.84,2.66-3.16,5.81-6.39,7.31-.47.22-.49.89-.64,1.4-.71,2.36-.77,2.5-2.89,1.8-1.14-.38-1.49,0-2,.81-1.77,2.88-4.13,5.39-5,8.8-.49,1.88-2.08,2.47-3.9,2.72-3.71.5-7.48-.37-11.1.27-4.45.78-6.85-.58-8-5-.64-2.52-2.65-4.55-3.17-7.24-.45-2.36-.27-4.36,1.63-6.09a8,8,0,0,0,2.49-5.36c.23-2.78,1.25-5.36,1.85-8a5.7,5.7,0,0,1,2.69-3.39,5.77,5.77,0,0,0,2.44-4.27c.29-2.28.23-2.52-2.11-3.31a3.92,3.92,0,0,1-2.83-3.47c-.25-1.82-.36-3.63-2.28-4.62a1.14,1.14,0,0,1-.52-.77c0-.16-.07-.3-.1-.46a18.4,18.4,0,0,0-1.87,2.18c-2.55,3.58-5.83,5.07-9.71,5.88-1,.2-1.88.57-2.85.69-1.26.15-2.3.47-2.55,1.92A2.15,2.15,0,0,0,117,183.5Z"/>
          <path class="cls-2" d="M91.44,236.14a4.39,4.39,0,0,1,1.74,5c-.65,2.08.34,3.59,2.78,3.46,1.72-.09,2.49.89,3.21,2.24,2.28,4.31,2.25,9,2.55,13.7.25,3.79-1.16,7.65,2.06,11.27,2.44,2.73-1.17,9.34-5,9.65-1.67.14-2.49,1.19-3.45,2-1.35,1.22-.89,2.71.93,3.06.9.18,2,.21,2.16,1,.75,3,3.15,5.82,1.62,9.21-.68,1.51-1,2.76.65,3.84,1.22.79.64,2.11.61,3.17-.08,2.37.07,4.47,2.23,6.1,1.37,1,2,2.35.42,4.14s-1.35,4.61-2,6.94c-.37,1.33-.17,2.75-2.41,3.47A6.9,6.9,0,0,0,95.43,329a5.25,5.25,0,0,0,.58,3.58c.66-.56,1.32-1.12,2-1.69a13.24,13.24,0,0,0,1.36-1.34c2.13-2.51,4.31-3.2,7.44-1.81,2.9,1.29,5.62,3,9,2.57,1.63,1.75,4.62.67,6,2.91a.91.91,0,0,0,1.39.26c1.72-1.29,3.85-1.73,5.76-2.76-1.08-2.45-.83-5.13-2-7.5-.49-1,.19-2.08,1.09-2.77a3.62,3.62,0,0,0,1.37-3,8.17,8.17,0,0,1,4.77-7.35,18,18,0,0,0,5.75-5.33c1.27-1.66,1.22-2.44-.24-3.8a7.79,7.79,0,0,1-2-2.41c-2.25-5.11-2.31-7,2.69-10.78a5.78,5.78,0,0,1,.81-.51c2.59-1.31,3.42-3.23,3.57-6.27a17.05,17.05,0,0,0-2.79-10.48c-1.11-1.73-1.42-3.75-2-5.68-.8-2.75-2.34-3.53-5.1-2.79-2.56.68-5.16,1.2-7.74,1.75a3.12,3.12,0,0,1-3.71-1.75,5.87,5.87,0,0,0-1.14-1.88,7,7,0,0,1-2.57-6.17c0-1.3-.28-2.54-1.76-3.06a2.3,2.3,0,0,1-1.56-2.5,2.65,2.65,0,0,0-1.59-2.83c-1.83-.87-2.22-2.42-1.87-4.27a3,3,0,0,1,3.2-2.52c1.37,0,1.82-.69,1.82-2a5.24,5.24,0,0,1,1.82-3.6c1.74-1.83,3.22-2,5.37-.77a8.5,8.5,0,0,0,3,1.54c.88-2.59,1.23-5.06-.79-7.32-4.91-5.51-9-11.82-15.4-15.92-3.28-2.09-3.36-3.2-1.45-6.55a3.73,3.73,0,0,0,.65-3.28,2.16,2.16,0,0,1,1.33-3.07,3.9,3.9,0,0,0,2.14-3.65c0-.78.06-1.55.09-2.33-1.49-2.38-4.73-3.2-6.72-5.41-1.36-1.51-2.81-2.73-3.5-4.81-.81-2.43-2.68-2.85-5-1.62-3,1.58-3.36,2.44-1.9,5.09a8.66,8.66,0,0,0,1.93,2.82c4.38,3.31,4.29,8.92,6.86,13.17,1.07,1.77-.73,3.62-2.12,5a69.94,69.94,0,0,0-9.5,11.47,3.82,3.82,0,0,0-1.66-.87c-1.43-.29-2.23-2.12-3.79-1.64s-1.73,2-2,3.44c-.19,1.09-1.61,1.34-2.49,1.9-3.84,2.4-4,3.76-1.28,7.05C86.05,230.45,88.12,233.78,91.44,236.14Z"/>
          <path class="cls-2" d="M137.11,174.5c.31,1.83.75,3.22,3,3.36,1.6.1,2.36,1.23,2.35,2.86,0,3.17-.44,6.17-3.38,8.11-2.75,1.82-2.82,4.95-3.33,7.62-.69,3.61-1.24,7.08-4.09,9.73-1.07,1-.74,2.42-.43,3.63.89,3.53,3.3,6.39,4.45,9.82.2.6.8.62,1.33.61q6.53,0,13-.11a3.42,3.42,0,0,0,3.69-2.76c1.1-3.71,4-6.46,5.89-9.75.1-.18.31-.29.44-.46.84-1.11,2.62,1,3.18-.9a3.08,3.08,0,0,1,2.43-2.21,3.7,3.7,0,0,0,1.83-1.71c.77-1.14,1.56-2.27,2.33-3.42,2.38-3.55,2.7-3.68,6.67-2,.88.38,1.65.53,2.34-.13,1.26-1.2,2.78-1.33,4.4-1.45,2.51-.18,3.54-1.25,3.9-3.78.19-1.35-.13-2.75.59-4,.28-.53-.08-1-.63-1.25a5.11,5.11,0,0,0-3-.82,2.83,2.83,0,0,1-2.42-.45c-1.08-.92-1.74-.47-2.68.36-2.44,2.15-3.65,2-6.12-.22A7.29,7.29,0,0,0,171,184c-1.66-.76-2.51-1.87-2.06-3.77a3.48,3.48,0,0,0-1-2.9,5.73,5.73,0,0,1-.85-4.86,3.83,3.83,0,0,1,3.06-3.28,13.13,13.13,0,0,0,2.45-.69c1.57-.62,1.86-2,.46-2.81a12.87,12.87,0,0,1-4.05-3.46,2.38,2.38,0,0,0-1.38-.7c-1.57-.34-3.14-.54-3.56-2.56-.13-.61-1-.81-1.57-1-1.89-.49-3.42-1.68-5.08-2.59s-3-2-3.35-3.72c-1.7.11-2.79,1.38-4,2.57-2.37,2.32-3.61,5.45-5.7,8a9.73,9.73,0,0,1-4.11,3,25.79,25.79,0,0,0-6,3.47C135.4,170.52,136.74,172.29,137.11,174.5Z"/>
          <path class="cls-2" d="M455.34,417.8c.32-1.36-.63-2.46-1.29-3.47a23.93,23.93,0,0,1-4.14-10.53,4.85,4.85,0,0,0-2.14-3.89c-2.14-1.42-2.33-3.93-2.24-6.3a4.33,4.33,0,0,0-1.59-3.86c-1.76-1.51-3.39-3.08-4-5.65-.31-1.32-1.38-3.58-4-2.36a1.61,1.61,0,0,1-2.21-1.5c-.17-3-2.29-3.56-4.76-3.49-1.46.05-2.87.1-3.54-1.56,4-4,7.8-8,11.86-11.77,1.91-1.78,2-5.1,5.06-5.66-.11-3.55-1.36-6.27-4.45-8.11s-3.17-5.33-4.08-8.27c-.59-1.92-.3-4.13-3.26-4.15a1.1,1.1,0,0,1-.94-.51c-.25.11-.5.23-.75.37a3.49,3.49,0,0,1-3.9-.45c-2.23-1.71-4.46-2.46-6.79-.11-.67.69-1.49.49-2.34.08-2.6-1.25-4.91-.45-7,1.28-1.16,1-2.27,2-3.93,1.57a2.28,2.28,0,0,0-3,1.59c-1,2.39-2.79,3.3-5.21,3.48-4.53.33-8.87,2.19-13.52,1.68a1.77,1.77,0,0,0-1.79,1.07,2.43,2.43,0,0,1-2.43,1.23c-2-.19-3.91-.79-5.94-.42-.4.08-.74-.26-1.07-.56-1.44-1.34-2.49-1.55-3.46-.25-2.25,3-5.49,3.66-8.81,4.12-1.58.22-2.53.37-2.21,2.42.2,1.26-1,2.1-2.34,2.05-2.34-.1-4.38,1.68-6.85.94-.8-.24-1.05.8-.85,1.32.9,2.27-.1,4.07-1.22,5.87-.28.44-.47,1.14-.86,1.27-2.44.85-2.77,2.92-3.23,5a6.85,6.85,0,0,1-3.79,4.79c-3.46,1.83-6.65,4.15-10.31,5.64a9.27,9.27,0,0,0-3.17,2.7c-.08,1,.55,1.1,1,1.3a5.49,5.49,0,0,1,3.41,4.94c.25,2.53.43,2.6,3,2.4.85-.07,1.84-.4,2.5.08,1.95,1.42,3.71,2.13,6.31,1.24,2-.69,4.31.92,6.58.3a3.17,3.17,0,0,1,1.56,0c1.09.27,2.47.22,2.77,1.7s-.73,2.06-1.81,2.63c-.62.33-1.61.63-1.21,1.57,1.05,2.42-.57,3.76-1.89,5.26-.29.32-.62.59-.88.92-.64.79-.85,1.61.4,1.91,2.23.53,3.63,2.06,4.93,3.78.5.67,1,1.67,1.89,1.55a6.79,6.79,0,0,1,4,.72,3.25,3.25,0,0,1,2.54-.94c2.09,0,3.24-1,4.46-2.33s4.28-1.69,5-.28c2.42,4.72,6.65,4,10.59,3.72,5.3-.31,10.6-.55,15.92-.61,4.56-.06,9.12-.42,13.69-.58.75,0,1.21-.63,1.9-.67l1.28.64c-3.2-2.9-3.5-4.29-1.94-7.33,1-1.93,3-1.58,3.39-.57,1.39,3.59,6,4.29,6.35,8.52,1.71-.92,3.23-.85,4.29-1.89l1.28-.64c-1.37-.49-1.77-1.46-.95-2.54a10.53,10.53,0,0,1,4.48-3.1,8.7,8.7,0,0,0,4.49-3.55c1.59-2.56,4.24-3.7,7.36-3.76a4,4,0,0,1,.44,4c-1.54,3.61.4,6,2.7,7.92a11.36,11.36,0,0,1,4.42,10c-.08,1.88-.24,3.73,1.18,5.47,1,1.24.22,3.12.4,4.71.4,3.7.64,3.8,4.45,3.22a5.49,5.49,0,0,0,3.18-1.61,5.59,5.59,0,0,0-.63-2.89C455.82,425.24,454.4,421.78,455.34,417.8Z"/>
          <path class="cls-2" d="M174.71,184c1,.94,2,.86,2.73-.07,1.64-2,3.36-2.39,5.52-.82.45.32,1.24.12,1.84.3,4.37,1.28,5.44.81,5.56,6,1.77-1.66,3.39-3.08,4.87-4.64a1.82,1.82,0,0,0-.06-2.11,8.42,8.42,0,0,1-.83-4.95,4.74,4.74,0,0,0-.54-2.76,6.2,6.2,0,0,1-.71-4.3c.29-1.55-.4-2.47-1.62-3.46-2.28-1.84-3.78-4.56-6.42-6.06a.78.78,0,0,1-.37-.5c.14-3-2.54-5.35-2.21-8.43a2.26,2.26,0,0,0-1.37-2.57c-1.82-.87-3.36-2.19-5.21-3a8.2,8.2,0,0,0-3.6-.91c-3,0-4.23-1.42-3.14-4.19.74-1.86.18-2.66-1.39-3-2.2-.47-2.74-1.82-2.89-3.87a39.41,39.41,0,0,0-1.26-5.89,5.1,5.1,0,0,0-2.28-3.22c-.27.68-.51,1.34-1.38,1.44h1.27c1.74.28,2.39,1.13,1.61,2.87-.53,1.17-.91,2.38-1.54,3.53-.92,1.67-1.34,3.66,0,5.35a2.82,2.82,0,0,1-.08,3.81,9.23,9.23,0,0,0-1.9,6.08c0,2.19-1.17,3.69-2.79,3.55a5.34,5.34,0,0,0,1.78,1.47,36.11,36.11,0,0,0,3.33,1.85c1.92.83,4.07,1.2,5.11,3.42.19.41,1.12.49,1.72.67a4.47,4.47,0,0,1,2.6,1.73,6.88,6.88,0,0,0,2.87,2.39,3.86,3.86,0,0,1,2.28,3.89,3.49,3.49,0,0,1-3.18,3.08c-.31.06-.61.21-.91.3-3.13.94-3.81,2.78-2.09,5.66.37.63,1.12,1.36,1,1.91C170.4,181.58,173,182.41,174.71,184Z"/>
          <path class="cls-2" d="M349.79,263.38c-.12-.37-.47-.94-.74-.95-2.5-.14-4.63-.91-6-3.16-2.9.26-5.89-1-8.71.59-.92.52-1.91.93-2.87,1.36a6.15,6.15,0,0,1-5.5,0,7.61,7.61,0,0,0-6.06-.07c-1.86.73-3.37,1.13-4.94-.37a1.84,1.84,0,0,0-1.11-.55c-3.16.05-6.36-.75-9.45.45-2.79,1.08-5.59,2-8.63,1.12-.77-.23-1.47.24-2.19.19-5.67-.39-10.58,2.58-15.95,3.57-2.8.52-4.22.34-5.63-2.08-.36-.64-.51-1.39-.81-2.06a.81.81,0,0,0-1-.55c-.79.26-.45.85-.23,1.27.49.9,1.71,1.67,1.2,2.78-1.14,2.47.08,5.56-2.46,7.7,1.52,1.05,2.78,2,4.12,2.84,2.26,1.43,2.65,2.57,1.51,4.95a10.23,10.23,0,0,0-1.3,2.84c-.46,2.81-1.5,3.18-3.72,1.5a1.64,1.64,0,0,0-1.44-.58c-.95,2.52-3.5,4-5.25,6.17a6,6,0,0,1-4,2.38c-1.41.18-2-1.06-2.71-1.92s-1.38-.86-2.06,0-1.57,2-2.35,3a2.55,2.55,0,0,0-.39,2.69c1.06,2.42.24,3.91-2,5.22-2.69,1.58-3.17,4.21-1.86,7a10.47,10.47,0,0,0,2.71,3.05c.84.8,2,1.53,1.81,2.83-.19,1.64.73,2.21,1.95,2.84a5.28,5.28,0,0,1,2.78,3.68c.19.82.52,1.62.63,2.45.19,1.43,1,1.67,2.25,1.47a24,24,0,0,0,6-2,8,8,0,0,1,5.85-.67,4.61,4.61,0,0,0,4.46-1c1-.84,2.3-1.59,3.49-1.15,2.65,1,4.45-.12,6.21-1.82a4.87,4.87,0,0,1,1.67-.92A89.2,89.2,0,0,0,302,309.83c2.61-1.58,4.89-3.83,8-4.52a6.82,6.82,0,0,0,3.53-2.43c3.24-3.41,5.93-7.49,10.47-9.46a2.64,2.64,0,0,0,1.65-1.81,7.34,7.34,0,0,1,5-5.68,7.58,7.58,0,0,0,2.06-1.47,17.88,17.88,0,0,1,8.32-3.73,15.92,15.92,0,0,0,5.35-1.94c2.2-1.31,4.19-2.69,4.79-5.55.41-1.92,1.5-3.7,2.35-5.69A7.45,7.45,0,0,1,349.79,263.38Z"/>
          <path class="cls-2" d="M369,513.29c-2.15-.35-3.87-1-4.36-3.44-.19-1-.73-1.49-1.83-1.07a3.63,3.63,0,0,1-4.48-1.42c-.55-.73-1.06-1.33-2.08-.89a.91.91,0,0,1-.62.08c-2.88-1.31-5.09-.85-6.78,2.07-.56,1-2,.81-2.81-.12-2-2.3-4-4.66-4.9-7.66a3,3,0,0,1-.19-1.56c.87-3,.42-6,0-9a14.65,14.65,0,0,1,.23-3.13c-1.59.31-3,.82-4.5-.38a7.31,7.31,0,0,1-2.56-3.5c-.4-1.26-1.08-1.59-2.39-1.05a28.14,28.14,0,0,1-4.87,1.45c-2.48.5-3.73-.12-5-2.36a15.09,15.09,0,0,1-1.38-3.2c-.35-1.2-.22-2.54-1.92-2.91-.78-.18-.86-1.14-.95-1.88-.2-1.8-1.42-2.53-3-2.78s-3.38-.41-4.59-1.86c-.37-.44-1-.35-1.49-.24-.72.14-1.42.55-2.17.21-1.53-.72-2.7.1-3.74,1a9.22,9.22,0,0,1-5.31,2.64A4,4,0,0,0,294.7,474c-1.47,1.66-3.11,2.72-5.53,2.46a2.9,2.9,0,0,0-3.27,2.74c-.17,2.95-1.64,4.33-4.42,4.91a5.42,5.42,0,0,0-4,3.82c-.25.7-.41,1.44-.72,2.1-1.21,2.6-2.93,3.18-5.28,1.53-1.27-.88-2.07-.79-2.92.35l-.57.76c-2.92,3.85-4,3.94-7.43.5-1.28-1.27-2.94-1.63-4.56-2.06a20.6,20.6,0,0,1-2.81-.45c-2.32-1-4.18-1.45-5.32,1.68-.45,1.22-2,1.21-2.85,0-1.09-1.59-2.26-1.49-3.83-1.07-2.29.61-4.39.48-5.71-2a2.31,2.31,0,0,0-3.21-1.17,2.77,2.77,0,0,1-3-.63,4.18,4.18,0,0,0-2.25-1.11c-6.52-.67-12.82-.94-19.18,2l-6.46,3c.08.24.15.49.21.74a9.38,9.38,0,0,0,1.53,3.53c1.06,1.4,2,2.85.75,4.8a2.48,2.48,0,0,0,.56,2.82c2.54,2.6,5.31,4.75,9.23,4.44,1.71-.14,3,.22,3.85,1.91s2,2.79,4.11,2.63c.84-.07,1.56.88,2.23,1.52,1.46,1.37,2.61,3,5.09,3,1.47,0,3,4.76,2.52,7.21-.34,1.59-1.13,3.06-1,4.79.41,3.8,1.44,4.88,5.43,4.4,5.78-.7,9,2.41,8,8a23.29,23.29,0,0,0,0,5.72c.07.89,1,2.21,1.53,2.13,4.56-.59,5.27,5,8.93,5.47,4.81.65,9.56-.25,14.33-.88a44.66,44.66,0,0,1,6.36-.51c4.13.06,7-2,9.83-4.35,1.65-1.4,3-3.21,5.44-2.79,1.25.21,1.32-1.64,2.56-1.3.21-.11.41,0,.63.32,3.2,4.6,8,4.36,12.73,4.15a4.83,4.83,0,0,1,3.21.6c2.74,1.86,4.37,1.74,6.66-.3a18.35,18.35,0,0,0,1.59-1.59c1.5-1.71,3-1.77,4.8-.34a20.58,20.58,0,0,1,3.16,2.58,2.32,2.32,0,0,0,2.23,1c2.24-.28,3.92.44,4.45,2.84.16.74.57.94,1.28,1,1.52.08,2.6,1.13,3.84,1.85,2,1.15,3.58,2.71,6.34,2.85,1.76.08,3.47,2.64,5,4.25a2.29,2.29,0,0,1-.23,2.19c-4.16,6.42-8.2,12.91-12.63,19.17A75.93,75.93,0,0,0,328,598.3c-.37.84-.68,1.7-1.43,2.06l1.42-.2c.66,1.2,2.24,1.44,2.79.92,2.28-2.11,3.86-1,5.28.85,4.07-2.56,4.26-2.5,6.92-.8a9.25,9.25,0,0,1,2.48,2.29c2.43,3.22,4.71,6.55,7,9.84l.21.72a.56.56,0,0,1,.15-.36c1.89-1.81,1.38-4.27,1.82-6.42,2-10.05,3.78-20.16,5.7-30.24,1.35-7.09,2.59-14.21,3.89-21.32,1.43-7.84,2.51-15.76,4.22-23.54a118.42,118.42,0,0,0,2.67-18.37C370.47,513.56,369.74,513.41,369,513.29Z"/>
          <path class="cls-2" d="M167,472.82c2.5,3,4.73,4.63,9.15,2.57,3-1.4,5.45-1.13,7.66,1.31,1.29,1.42,2.94,1.65,4.77,1.61,3.11-.07,6.42,1.67,6.83,4.46.3,2.1,1.37,2.79,2.69,3.83a10.4,10.4,0,0,1,2.49,2.77c3.18-1.35,6.31-2.8,9.51-4.09a43.3,43.3,0,0,1,7.49-2.22,3.93,3.93,0,0,0-3-1.23,11,11,0,0,1-7.75-3.16,4.94,4.94,0,0,0-4.35-1.45,27.08,27.08,0,0,1-2.85.17c-2.3,0-2.81-.26-3.36-2.53a3.06,3.06,0,0,0-3-2.73,3,3,0,0,1-2.62-2.44,8,8,0,0,0-1.23-2.56,3.48,3.48,0,0,0-3.18-1.71c-2.73.17-4.27-1.49-5.35-3.74-1.73-3.62-3.71-7.05-7.17-9.35a2.06,2.06,0,0,1-1-1.19c-.36-3-2.64-3.55-5-3.84s-4.5-.46-5.35-3.12c-.14-.46-.61-.55-1-.63a68.08,68.08,0,0,1-7-1.69c-2.36-.66-4.27-1.54-5.63-3.66s-1.6-2.15-3.91-.66c-1.51,1-3,2.13-4.87.56-.91-.75-2.07-.14-3,.35-1.76.93-3.47,1.57-5.37.34-2.2-1.43-4-3.09-4.47-5.87a11.28,11.28,0,0,1,0-3.48,11.11,11.11,0,0,0,.26-2.21c0-1.48-.56-1.82-2-1.36a3.94,3.94,0,0,0-1.47.58,4.46,4.46,0,0,1-4.32,1.36c-.79-.19-1.41.38-2,.78-1.46,1-3.22,1-4.79,1.65a4.11,4.11,0,0,0-2.16,1.78c-.74,1.32.53,1.58,1.13,2.2a3,3,0,0,1,.66,3,7.75,7.75,0,0,1-1.14,2.94c-2.08,2.56-2.31,5.91-3.92,8.64-.42.71-.2,1.14.46,1.54a4,4,0,0,1,1.76,3.85c0,1.61,0,3.21,0,4.82a6.7,6.7,0,0,0,1-.38,2.65,2.65,0,0,1,2.25.52c4,2.33,8.08,4.48,13,2.38a5.92,5.92,0,0,1,4.71.3c2.48,1.34,4.19.59,5.77-1.34,2.86-3.5,6.85-3.61,9.47.05,1.15,1.61,2.07,3.06,4.21,3.14,1,0,1.37,1.1,1.51,1.61.87,3.13,3.53,3,5.45,2.37,2.32-.75,3.36-.26,4.19,1.74.47,1.12,1.14,2.09,2.54,1.9S166,471.66,167,472.82Z"/>
          <path class="cls-2" d="M150.52,437a5,5,0,0,0,3.22,2.39c2.66.61,5,2.13,7.84,2.21,1,0,2.13.2,2.44,1.18.65,2.07,2.2,2.12,3.93,2.47,2.93.58,6.28.87,6.82,4.91,0,.24.42.45.66.64a25.16,25.16,0,0,1,7.31,9.7c.67,1.52,1.58,3,3.43,2.82,3.33-.31,4.84,1.81,6,4.28.67,1.44,1.23,2.59,3,2.79,1.53.17,2.32,1.28,2.83,2.69.86,2.41.92,2.53,3.28,2.06a7.42,7.42,0,0,1,7.26,2.17,7.69,7.69,0,0,0,4.81,2.24c3.66.4,7.18,1,9.5,4.26.06.09.17.2.24.2,3.13-.2,5.92,1.56,8.79,1.77,2.49.18,4.29.5,5.61,2.53a2.15,2.15,0,0,0,2.73,1,6.26,6.26,0,0,1,6.44.76c.32-.47.5-.72.67-1,1.72-2.51,1.89-2.57,4.52-1.2a11.55,11.55,0,0,0,3.65,1c2.75.42,5.35,1.09,7.26,3.45,1.18,1.47,1.81,1.34,3-.11.41-.49.73-1.05,1.13-1.55,1.91-2.33,3-2.59,5.65-1,1.33.81,1.94.33,2.45-.79.26-.58.37-1.22.59-1.81a7.37,7.37,0,0,1,5.31-5.05c2.1-.46,2.66-1.58,3-3.44a5.16,5.16,0,0,1,5.37-4.39,4.32,4.32,0,0,0,3.88-1.65,6.6,6.6,0,0,1,4.31-2.44c1.89-.24,3.24-1.39,4.94-3.61-3.9.33-6.14-1.08-7.49-4a1.62,1.62,0,0,0-2.09-1,2.79,2.79,0,0,1-3.26-1.35,25.38,25.38,0,0,1-1.85-2.58c-.8-1.45-1.21-3.15-3.44-3.1-.72,0-1.09-.93-1.35-1.64a25.34,25.34,0,0,0-1.12-3c-.58-1.13-1.32-2.31-2.89-2-2,.39-3-.75-3.81-2.18-.65-1.09-1.19-2.28-2.51-2.75a4.39,4.39,0,0,1-2.81-3.57c-.29-1.42-.77-2.62-2.37-3.06a2.18,2.18,0,0,1-1.26-.91c-1.3-2.3-3.72-2.94-5.76-4.21a4.86,4.86,0,0,0-5.34,0,4.91,4.91,0,0,0-2,5.27c.54,2.11.13,2.57-2,3.09-.5.13-1.16,0-1.54.27-2.73,2-4.87.69-7.1-1-3.31-2.51-5.52-6.17-9-8.52a2,2,0,0,1-.84-1.66c0-2.69-1.86-4.54-3.38-6.28a7.36,7.36,0,0,1-2.14-4.67c-.15-2.18-1-2.75-3.17-2.37a17.74,17.74,0,0,0-5.18,1.47c-3.64,1.89-6.34-1-9.48-1.57-.35-.06-.76-.79-.84-1.27-.52-3-2.69-3.51-5.17-3.51a5.37,5.37,0,0,1-3.72-1.57c-1.49-1.35-2.92-2.78-4.4-4.14a4.73,4.73,0,0,1-1.57-2.69c-.59-3.23-1.68-6.35-2-9.64-.47-4.56-1-9.05,2.29-13,1.24-1.48.35-3.35-1.56-3.77a2.8,2.8,0,0,1-2.36-2.23c-.34-1.38-1.21-1.72-2.53-1.87a3.48,3.48,0,0,0-3.75,1.71c-1.09,1.7-2.24,3.33-2.1,5.52a3.29,3.29,0,0,1-2.2,3.52,3.31,3.31,0,0,0-1.8,2.07,10.2,10.2,0,0,1-4.79,5.33,2.71,2.71,0,0,0-1.61,2.79,5.13,5.13,0,0,1-1.82,4.53,23.81,23.81,0,0,0-6.56,7.68c-.74,1.4-1.63,2.8-3.6,2.67a1.64,1.64,0,0,0-1.64,1.26,12,12,0,0,1-2.74,3.46,24.55,24.55,0,0,0-3.86,5,11,11,0,0,1-2.39,3c-1.71,1.52-2,1.64-4.14.39-1-.61-2.1-.69-2.51.16-.81,1.7-2.3,3.14-2.4,5.12s-1.36,4.59,2.17,5.1c.14,0,.26.32.35.51.84,1.69,2.74,2.26,4.11,2.52A6.1,6.1,0,0,1,150.52,437Z"/>
          <path class="cls-3" d="M150.42,288c-.24-.41-.76-.29-1.18-.28a8.73,8.73,0,0,1-3.44-.44,1.66,1.66,0,0,0-1.77.24c-1,.76-2.12,1.39-3.11,2.19-2.45,2-2.9,3.71-2.17,6.24.61,2.11,2.54,3.07,3.6,4.72a1.86,1.86,0,0,0,2,1c2.86-.1,4.07.45,4.58,3.26.64,3.5,3.92,3.56,5.8,5.38,3.28,0,6.54.72,9.82.26a1.84,1.84,0,0,0,1.5-2.58,5.63,5.63,0,0,0-5.31-3.32c-3.8.24-3.8.24-5.13-3.34a4.66,4.66,0,0,0-.56-.73c-.55.41-.95.74-1.39,1-1.17.74-2.46,1-3.52,0s-.88-2.33,0-3.45a5.22,5.22,0,0,0,.9-3c.25-3.31.64-3.72,3.87-4.21.53-.08,1.12,0,1.14-.73s-.58-.79-1.1-.77C153.25,289.53,151.5,289.9,150.42,288Z"/>
          <path class="cls-2" d="M193.14,279a32.67,32.67,0,0,1-1.58,9.35c-.62,2.11-1.95,4-1.9,6.33s.26,4.66-.42,6.95a3.08,3.08,0,0,0,.22,2.18,6.78,6.78,0,0,1,.13,4.38c-.7,3.38-2,6.61-1.64,10.22.21,2-.86,3.91-2,5.62s.12,2.42,1.36,2.74a2.07,2.07,0,0,0,1.84-.24c2.16-1.68,4.38-1.51,6.89-.77,2.93.87,3.52,1.36,2.78,4.34s-.49,6.09-.86,9.13a2.51,2.51,0,0,0,.57,2.45c1.78-1.82,3.1-3.52,2.21-6.21-.48-1.44.09-2.94.65-4.33.46-1.17,1.62-1.17,2.61-1.53,1.36-.5,1.78-1.64,1.73-3.07a20.75,20.75,0,0,1,.69-7.23,3.55,3.55,0,0,0-.33-2.44,7,7,0,0,1,.8-6.68A39,39,0,0,0,210,305c1.09-2.16,3.29-2.31,4.95-.53a4.69,4.69,0,0,1,1.28,2.86c.48,5.27.36,10.41-3.53,14.64a3.21,3.21,0,0,0-.94,2.59c.24,2.42.46,4.85.61,7.27,0,.86.54,1,1.2,1.15,1.68.28,7.46-2.58,8.3-4.12.1-.18.28-.45.21-.57-.94-1.93.07-4.25-1.19-6.07-1-1.45-.49-2.57.54-3.67,1.78-1.92,3.95-1.59,6.21-1.24,1.79.27,2.91,1,3.29,2.87a21.52,21.52,0,0,0,1.21,3.27c.25.63.62,1.12,1.43.83,3.25-1.16,6.2.29,9.24,1,1.82-4.21,2.63-9,2-12-.7.22-1.41.43-2.1.67a1.68,1.68,0,0,1-2.24-.65,4,4,0,0,0-2.93-2.13,3,3,0,0,1-1.81-1.7,6.19,6.19,0,0,0-3.49-3.39c-2.6-1.13-3.33-3.25-2-5.72.86-1.55,1.2-2.88.35-4.45s-.91-3.41-2.58-4.24a4,4,0,0,1-2.2-2.91c-.26-1.08-.55-2-2.08-1.7-1.19.26-1.68-.61-1.9-1.65-.13-.6.14-1.29-.52-2-2.43.77-2.53.82-3.69,2.37-.5.67-.92,1.43-1.48,2.06-1.8,2-3.54,2.09-5.38.1a10.08,10.08,0,0,0-2.9-2.43c-3.13-1.52-4.58-3.95-4.17-7.45a3.37,3.37,0,0,0,0-.95c-.33-2-.75-2.25-2.74-1.78-1.64.39-3.23,1.28-5,.85C193.56,275.65,193.13,276.27,193.14,279Z"/>
          <path class="cls-2" d="M302.21,233.68a6.86,6.86,0,0,1-6.07-1.06,4.2,4.2,0,0,0-4.46-.22,12.83,12.83,0,0,1-5.72.9,16.48,16.48,0,0,0-1.16,2.21c-1,2.28-2.05,4.54-3.05,6.81a51.32,51.32,0,0,1-2.88,6.17c-.22.36-.62.72-.63,1.08-.05,2.87-1.6,3.84-4.29,4.36-1.74.34-2,2.8-3.4,4.24a5.33,5.33,0,0,1,3.09,3.61c.59,2,1.55,2.05,3.71,1.63,5.57-1.09,10.8-3.74,16.63-3.64a8.66,8.66,0,0,1,1.9,0c2.7.67,5.15-.16,7.71-.93,4.41-1.32,8.89-1.82,13.17.64.5.29,1.1.46,1.48.08,2-1.91,4.51-.34,6.67-1.15.6-.23,1.23.18,1.73.61a3.25,3.25,0,0,0,4.14.19c3.84-2.42,8-2.29,12.3-2.1.9,0,1.76.09,2.13,1a3.08,3.08,0,0,0,3.2,2.05,3.36,3.36,0,0,1,3.28,2.55,4.56,4.56,0,0,0,2.08,2.7c1.54.88,2.88,1.32,4.65.16a9.58,9.58,0,0,1,7.54-1.72,5.3,5.3,0,0,0,3.89-1.05h0a8.25,8.25,0,0,1-1.4-1.27c-6.9-7.95-13.85-15.86-20.66-23.9-2.51-3-5.19-4-9-2.59a5.26,5.26,0,0,1-5.37-1.22,12.28,12.28,0,0,0-4.13-2.6c-3-1.05-5.6-1.76-8.35.66a9.11,9.11,0,0,1-6.32,2c-.53,0-1.18-.3-1.59.31-1.77,2.7-3.77,1.42-5.72.3A6.09,6.09,0,0,0,302.21,233.68Z"/>
          <path class="cls-3" d="M162.79,123.86h0a7,7,0,0,1,3,4.85c.26,1.35.79,2.66,1,4,.25,2,.77,3.43,3,4.27,2.47.95,2.58,1.82,1.62,4.54-.36,1.05-.56,2.15.9,1.92,2-.32,3.49.47,5,1.42,1.81,1.09,3.66,2.12,5.5,3.17a3.38,3.38,0,0,1,1.79,3.45,5.57,5.57,0,0,0,1.19,4.17c.26.31.59.78.53,1.12-.4,2.45,1.33,3.58,2.88,4.83,1.8,1.46,2.92,3.58,4.93,4.89,1.08.71,1.3,2.15,1.26,3.46,0,.63-.45,1.43-.21,1.86,1.76,3.07.74,6.64,1.92,9.81,1,2.7.63,4.11-1.64,5.78-1.75,1.29-2.56,3.67-5.08,4.14-.91.17-.53,1.33,0,1.83a18.49,18.49,0,0,0,2.78,2.11c2.46,1.56,5.52,6.59,5.66,9.46,0,.31-.12.68,0,.94,1,2.33,1.7,4.61-.91,6.42-.23,2.93-1.18,5.89.14,9.31,1.38-1.48,2.23-2.72,3.55-3.43a2.27,2.27,0,0,1,2.68,0,2.42,2.42,0,0,1,.66,2.62,2.6,2.6,0,0,1-.36.88,6,6,0,0,0-.09,7.4,3.42,3.42,0,0,1,.34.89c.94,3.19,1.7,3.58,4.53,1.89a45.22,45.22,0,0,0,4.85-3.58c.8-.63.84-1.67,1.06-2.59.54-2.26.91-4.61,2.87-6.21,1.06-4.32,2.65-8.63.65-13.06a6.57,6.57,0,0,1-.69-3.67,12.93,12.93,0,0,0,.07-3.17c-.28-2.43,0-2.93,2.09-4s2.4-1.54,1.89-3.66a8.52,8.52,0,0,1,.3-4.06,15.71,15.71,0,0,0-.27-7.85c-1-3.35-1.88-6.73-2.65-10.14a2.55,2.55,0,0,0-2.23-2.24c-2.21-.49-4.06-2.21-6.54-1.88a1.77,1.77,0,0,1-1.42-.61c-2-3-5.84-3.23-8.22-5.62a3.29,3.29,0,0,0-2.58-.95,5,5,0,0,1-5-3.22,8.8,8.8,0,0,0-3.62-3.92,4.31,4.31,0,0,1-2.37-4.07,18.47,18.47,0,0,0-2.42-9.43,3.17,3.17,0,0,1,.52-4.29c1.26-1.32,1.07-1.84-.58-2.81-3.34-2-3.42-2-2.51-5.7a2.33,2.33,0,0,0-.93-2.75c-1.54-1.12-3-2.42-5-2.69-3.11-.43-4.24-2.46-4.59-5.23a11.07,11.07,0,0,1-.11-1.27c0-2.27.12-4.5-1.35-6.52-2.39,2.52-3.45,6-6.38,8.23-1.71,1.29-.64,3.8-.28,5.61C164.21,122.06,164.12,123.55,162.79,123.86Z"/>
          <path class="cls-3" d="M172.88,106.67a5.71,5.71,0,0,1,1,3.9,28.17,28.17,0,0,0,.12,3.18c.22,2.22,1.14,3.71,3.65,4,2.27.28,3.84,2.16,6.08,3.2,3-4.4,5.85-8.75,5.53-14.47a10.9,10.9,0,0,0-1.92-6.26,11.81,11.81,0,0,1-2-4,6.18,6.18,0,0,0-1.54,1.35c-2.88,3.29-5.53,6.82-10.51,7.1a2.44,2.44,0,0,0-1.13.51A3.62,3.62,0,0,0,172.88,106.67Z"/>
          <path class="cls-2" d="M228.59,92.41c-1.05,2.36-.63,4.8-.92,7.18-.26,2.13,1.27,2.87,3.52,2.25a39.61,39.61,0,0,1,5.27-1.15c3.08-.43,5,1.28,5,4.52a1.4,1.4,0,0,0,.71,1.48c4,2.61,4.26,3.64,2.46,8.07a5.59,5.59,0,0,0-.17,1.19c1.86-.28,3.54.29,5.27.62a6.53,6.53,0,0,1,3.72,1.84,7,7,0,0,1,1.4-1c2-1.16,2.47-2.83,3.25-4.82a144.49,144.49,0,0,1,6.93-14.35c1.12-2.12,3.51-2.71,5.69-3.16a5.7,5.7,0,0,0,4.6-3.8c1.64-3.7,3.55-7.34,5.49-10.93A8,8,0,0,1,287.3,76a24,24,0,0,0,8.57-3c1.93-1,3.72-2.31,6.06-2.22,1.06,0,1.45-.54,1.63-1.57s-.05-2.14,1.23-3.12c1.23-.29,3,1,4.52-.66s1.76-3.3.21-4.77a4.63,4.63,0,0,1-1.58-3.88c.1-2.75-2-3.51-4.11-3.76a8.71,8.71,0,0,1-5.74-3.22c-1.63-1.86-2.86-1.83-4.07.33s-2.34,3.69-5.15,3.55c-1.57-.08-2.31,1.61-3.19,3-1.91-1.29-3.44-1-4.22,1.32-1.68-.65-2.81-2.29-4.72-.92s-1.87,3.16-1.46,4.8a4,4,0,0,1-1.37,4.47c-3.8,3.14-7.32,6.56-12.72,7.14a11.09,11.09,0,0,0-7,4.34c-3.27,4-8.42,5.62-11.88,9.46-1.06,1.19-3.15,1.37-5,1.4-2.67,0-5.41-.49-8,.69A9.85,9.85,0,0,1,228.59,92.41Z"/>
          <path class="cls-2" d="M188.74,98.5c3.85,5.86,3.17,11.81.32,17.79-1.22,2.58-3.08,4.83-4,7.55-.28.8-.64,1.57-.89,2.38a1.75,1.75,0,0,0,1.17,2.51,5,5,0,0,1,2.16,1.29c1.44,1.59,1.55,3.08,0,4.69-.78.82-1.07,1.43-.43,2.45,1.76,2.76,2.17,6,2.51,9.1a4.52,4.52,0,0,0,2.17,3.88,9,9,0,0,1,3.55,4,3.56,3.56,0,0,0,3.74,2.34c.52,0,1.31-.17,1.54.1,2.2,2.59,6,2.66,8.19,5.16a7,7,0,0,0,1.61,1.5c1.44.87,3.25-.2,4.6.9a6.06,6.06,0,0,0,4.23,1.5,19.36,19.36,0,0,1-1.24-4.38c-.1-.51-.17-1.28-.5-1.45-2.19-1.14-2.41-3.18-2.84-5.27a4.36,4.36,0,0,0-3.07-3c-1.21-.44-2.08-1.1-1.88-2.55.17-1.27,1-1.84,2.11-2.47,2.55-1.41,5-2,7.8-.82,1.16.49,1.79,0,1.69-1.39a6.38,6.38,0,0,0-1.94-4.26c-2.55-2.41-4.08-5.69-6.92-7.84-1.31-1-1.07-2.39-.78-3.8,1.15-5.51,4.93-8.53,9.94-10.11a5.08,5.08,0,0,0,3.92-4,18.32,18.32,0,0,1,1.88-3.65c.64-1.24.94-2.39-.67-3.2a2.08,2.08,0,0,1-.91-3,4.31,4.31,0,0,0,.05-3.29,15.86,15.86,0,0,1,.49-8.12c.2-.76.4-1.52.57-2.28-1.16.18-2.64-.76-3.53-1.58-1.62-1.46-3.29-1.65-4.79-.51-1.78,1.35-2.75,0-3.85-.72-3.69-2.57-5.42-.57-6,2.9a11.56,11.56,0,0,1-2,5.42,4.18,4.18,0,0,1-3.53,1.91,7.4,7.4,0,0,0-2.84.33c-4.31,2-7.64-.94-11.12-2.37a5.45,5.45,0,0,0-1.94-.47A9.5,9.5,0,0,0,188.74,98.5Z"/>
        </g>
        <g>
          <path class="cls-4" d="M59.47,53.26c-2.31-3.65-3.56-3.86-6-.6-1.51,2-2.93,3.86-5.42,4.82-1.12.43-1.8,1.45-.79,3.18a4.1,4.1,0,0,1-1.15,5A16,16,0,0,0,43,68.91c-.48.8-1.31,1.8-.16,3.2,1.5,1.84,1.27,4.06.15,6.34-1,2-1.25,4.21.86,6,1.33,1.14,1.29,3,.91,4.41-.83,3.15-1,6.38-1.55,9.56-.43,2.56-1.36,5-1.57,7.65-.13,1.56.45,2.75,1.93,3.13,1.14.29,1.88-.49,2.58-1.51a20.07,20.07,0,0,0,3.22-7,72.76,72.76,0,0,1,4.9-15c1-2.08,3.6-2.64,4-5.18-2.52-2.34-2.84-5.1-.68-7.78,1.52-1.89,1.61-3.35,0-5.18A5.89,5.89,0,0,1,56.36,65c-.26-1.43-.49-3.75,1.51-3.67,3.13.12,4.55-1.92,6.37-3.64V57.4C63.17,55.42,60.64,55.12,59.47,53.26Z"/>
          <path class="cls-4" d="M99.78,62.57c-3-2.31-6.83-3.89-5.89-8.3-2.59-.22-4,1.19-4,2.5-.16,2.46-1.73,2.74-3.32,2.8-2.92.13-4.59,2-6.36,3.88l.31.32c0,2.3.15,4.43-1.78,6.49-1.26,1.34-.77,3.95.57,5.56a3.68,3.68,0,0,1,.66,4.54c-.66,1.44.22,2.82,1.83,3.47.32-.11.75-.12.93-.34,3.5-4.24,9.09-5.35,13.15-8.81,1.3-1.11,2.6-1.72,1.82-3.58C96.33,68,97.22,65.28,99.78,62.57Z"/>
          <path class="cls-4" d="M87.5,52.65c2.29-1.5,1.11-2.78,0-4.16h-.64c-1.83-.11-2.13,1.69-3.49,2.38C84.48,52.64,85.25,54.13,87.5,52.65Z"/>
        </g>
      </g>
      <g>
        <g>
          <rect class="cls-5" x="167.2" y="118.38" width="1.5" height="31.4" transform="translate(-8.78 11.81) rotate(-3.93)"/>
          <polygon class="cls-5" points="171.88 148.69 169.31 153.93 166.06 149.09 171.88 148.69"/>
        </g>
        <g>
          <g>
            <rect class="cls-5" x="184.41" y="112.43" width="1.5" height="61.85" transform="translate(-48.93 137.19) rotate(-36.24)"/>
            <polygon class="cls-5" points="205.29 165.89 205.92 171.69 200.58 169.34 205.29 165.89"/>
          </g>
          <g>
            <rect class="cls-5" x="128.75" y="145.31" width="58.18" height="1.5" transform="translate(-30.02 250.74) rotate(-71.91)"/>
            <polygon class="cls-5" points="151.84 173.81 147.5 177.71 146.29 172 151.84 173.81"/>
          </g>
          <g>
            <g>
              <rect class="cls-5" x="205.54" y="90.34" width="1.5" height="58.68" transform="translate(0.64 240.45) rotate(-60.54)"/>
              <polygon class="cls-5" points="232.53 131.15 235.5 136.17 229.66 136.23 232.53 131.15"/>
            </g>
            <g>
              <rect class="cls-5" x="180.7" y="102.79" width="70.76" height="1.5" transform="matrix(1, -0.05, 0.05, 1, -4.74, 10.53)"/>
              <polygon class="cls-5" points="250.43 98.97 255.62 101.64 250.71 104.79 250.43 98.97"/>
            </g>
            <g>
              <rect class="cls-5" x="179.37" y="97.65" width="35.41" height="1.5" transform="translate(-22.72 83.9) rotate(-22.76)"/>
              <polygon class="cls-5" points="211.49 89.19 217.27 89.93 213.74 94.57 211.49 89.19"/>
            </g>
            <g>
              <rect class="cls-5" x="128.88" y="51.76" width="1.5" height="87.47" transform="translate(-19.64 155.85) rotate(-58.39)"/>
              <polygon class="cls-5" points="91.58 75.5 88.81 70.37 94.64 70.53 91.58 75.5"/>
            </g>
            <g>
              <g>
                <g>
                  <rect class="cls-5" x="146.29" y="291.93" width="17.85" height="1.5" transform="translate(-45.92 29.43) rotate(-9.44)"/>
                  <polygon class="cls-5" points="162.7 288.49 168.16 290.54 163.66 294.24 162.7 288.49"/>
                </g>
                <g>
                  <rect class="cls-5" x="150.3" y="293.23" width="1.5" height="24.3" transform="translate(-105.14 80.79) rotate(-22.44)"/>
                  <polygon class="cls-5" points="158.05 314.7 157.28 320.48 152.66 316.93 158.05 314.7"/>
                </g>
              </g>
              <g>
                <g>
                  <rect class="cls-5" x="132.32" y="205.68" width="1.5" height="47.36" transform="translate(-113.36 327.27) rotate(-81.55)"/>
                  <polygon class="cls-5" points="110.06 228.89 105.5 225.26 110.92 223.12 110.06 228.89"/>
                </g>
                <g>
                  <rect class="cls-5" x="216.42" y="213.19" width="50.2" height="1.5" transform="translate(-34.13 381.63) rotate(-72.85)"/>
                  <polygon class="cls-5" points="245.88 189.91 250.16 185.95 251.46 191.64 245.88 189.91"/>
                </g>
                <g>
                  <g>
                    <rect class="cls-5" x="287.4" y="274.72" width="1.5" height="169.69" transform="translate(-150.81 499.67) rotate(-68.99)"/>
                    <polygon class="cls-5" points="367.6 386.95 371.27 391.48 365.51 392.39 367.6 386.95"/>
                  </g>
                  <g>
                    <g>
                      <rect class="cls-5" x="77.04" y="379.15" width="65.78" height="1.5" transform="matrix(0.43, -0.9, 0.9, 0.43, -280.09, 314.33)"/>
                      <polygon class="cls-5" points="98.68 410.05 93.87 413.33 93.42 407.52 98.68 410.05"/>
                    </g>
                    <g>
                      <rect class="cls-5" x="96.57" y="359.98" width="31.58" height="1.5" transform="translate(-210.97 165.25) rotate(-41.54)"/>
                      <polygon class="cls-5" points="103.12 372.82 97.4 373.99 99.25 368.45 103.12 372.82"/>
                    </g>
                    <g>
                      <rect class="cls-5" x="199.83" y="309.02" width="50.32" height="1.5" transform="translate(-157.09 285.42) rotate(-50.36)"/>
                      <polygon class="cls-5" points="238.25 289.19 243.72 287.16 242.74 292.91 238.25 289.19"/>
                    </g>
                    <g>
                      <rect class="cls-5" x="196.04" y="292.92" width="110.47" height="1.5" transform="translate(-129.96 230.11) rotate(-39.98)"/>
                      <polygon class="cls-5" points="291.08 256.51 296.83 255.5 294.83 260.98 291.08 256.51"/>
                    </g>
                    <g>
                      <rect class="cls-5" x="206.36" y="313.26" width="91.32" height="1.5" transform="translate(-89.83 101.27) rotate(-19.36)"/>
                      <polygon class="cls-5" points="293.32 296.41 299.05 297.48 295.25 301.91 293.32 296.41"/>
                    </g>
                    <g>
                      <rect class="cls-5" x="281.15" y="260.63" width="1.5" height="146.21" transform="translate(-68.88 594.12) rotate(-86.4)"/>
                      <polygon class="cls-5" points="354.19 335.37 359.05 338.59 353.83 341.19 354.19 335.37"/>
                    </g>
                    <g>
                      <rect class="cls-5" x="231.58" y="322.44" width="1.5" height="88.2" transform="translate(-159.02 179) rotate(-32.03)"/>
                      <polygon class="cls-5" points="257.74 401.65 257.94 407.48 252.79 404.75 257.74 401.65"/>
                    </g>
                    <g>
                      <rect class="cls-5" x="267.22" y="299.37" width="1.5" height="146.81" transform="translate(-191.08 366.74) rotate(-53.54)"/>
                      <polygon class="cls-5" points="328.06 413.55 330.38 418.9 324.59 418.24 328.06 413.55"/>
                    </g>
                    <g>
                      <rect class="cls-5" x="151.6" y="379.81" width="103.44" height="1.5" transform="translate(-196.98 541.57) rotate(-83.8)"/>
                      <polygon class="cls-5" points="200.7 431.44 197.25 436.15 194.9 430.81 200.7 431.44"/>
                    </g>
                    <g>
                      <rect class="cls-5" x="109.4" y="387.06" width="134.11" height="1.5" transform="translate(-248.3 354.37) rotate(-61.03)"/>
                      <polygon class="cls-5" points="146.94 447.14 141.94 450.15 141.84 444.32 146.94 447.14"/>
                    </g>
                    <g>
                      <rect class="cls-5" x="235.36" y="325.32" width="1.5" height="196.84" transform="translate(-107.79 81.63) rotate(-16.02)"/>
                      <polygon class="cls-5" points="265.84 516.71 264.43 522.37 260.23 518.32 265.84 516.71"/>
                    </g>
                  </g>
                </g>
              </g>
            </g>
          </g>
        </g>
      </g>
      <g>
        <circle class="cls-6" cx="124.17" cy="350.25" r="3.61"/>
        <circle cx="124.17" cy="350.25" r="2.44"/>
      </g>
      <g>
        <circle class="cls-6" cx="156.49" cy="232.84" r="3.61"/>
        <circle cx="156.49" cy="232.84" r="2.44"/>
      </g>
      <g>
        <circle class="cls-6" cx="146.41" cy="294.15" r="3.61"/>
        <circle cx="146.41" cy="294.15" r="2.44"/>
      </g>
      <g>
        <circle class="cls-6" cx="180.74" cy="105.25" r="3.61"/>
        <circle cx="180.74" cy="105.25" r="2.44"/>
      </g>
      <g>
        <circle class="cls-6" cx="234.11" cy="237.92" r="3.61"/>
        <circle cx="234.11" cy="237.92" r="2.44"/>
      </g>
      <g>
        <circle class="cls-6" cx="166.88" cy="118.41" r="3.61"/>
        <circle cx="166.88" cy="118.41" r="2.44"/>
      </g>
      <g>
        <g>
          <rect class="cls-7" x="177.98" y="287.81" width="84.17" height="1.5" transform="translate(-116.41 424.51) rotate(-74.67)"/>
          <polygon class="cls-7" points="228.16 248.03 232.31 243.93 233.78 249.57 228.16 248.03"/>
        </g>
        <g>
          <rect class="cls-7" x="184.77" y="236.62" width="1.5" height="98.46" transform="translate(-113.65 122.68) rotate(-28.41)"/>
          <polygon class="cls-7" points="159.94 244.69 160.1 238.85 165.07 241.91 159.94 244.69"/>
        </g>
        <g>
          <rect class="cls-7" x="133.65" y="338.4" width="76.62" height="1.5" transform="translate(-82.61 56.69) rotate(-15.14)"/>
          <polygon class="cls-7" points="136.56 351.75 130.93 350.25 135.04 346.12 136.56 351.75"/>
        </g>
        <g>
          <rect class="cls-7" x="189.73" y="125.21" width="1.5" height="205.61" transform="translate(-37.85 37.91) rotate(-10.34)"/>
          <polygon class="cls-7" points="169.3 128.24 171.26 122.75 175.04 127.19 169.3 128.24"/>
        </g>
        <g>
          <rect class="cls-7" x="195.56" y="114.84" width="1.5" height="215.81" transform="translate(-24.73 24.52) rotate(-6.72)"/>
          <polygon class="cls-7" points="180.88 116.77 183.18 111.41 186.67 116.08 180.88 116.77"/>
        </g>
        <g>
          <rect class="cls-7" x="180.97" y="282.69" width="1.5" height="62.4" transform="translate(-180.94 318.92) rotate(-60.73)"/>
          <polygon class="cls-7" points="153.83 301.6 150.85 296.58 156.68 296.51 153.83 301.6"/>
        </g>
      </g>
      <g>
        <circle cx="208.94" cy="329.15" r="7.38"/>
        <circle class="cls-6" cx="208.94" cy="329.15" r="4.32"/>
        <circle cx="208.94" cy="329.15" r="1.83"/>
      </g>
    </g>
  </g>
</svg>
